<?xml version="1.0" encoding="utf-8"?>
<svg xmlns="http://www.w3.org/2000/svg"
	xmlns:xlink="http://www.w3.org/1999/xlink"
	width="12px" height="12px" viewBox="0 0 12 12">
<path fillRule="evenodd" d="M 11.14 12C 10.67 12 10.29 11.64 10.29 11.2 10.29 10.05 9.76 9.02 8.93 8.29 8.16 9.1 7.13 9.6 6 9.6 4.86 9.6 3.84 9.1 3.07 8.29 2.24 9.02 1.71 10.05 1.71 11.2 1.71 11.2 1.71 11.2 1.71 11.2 1.71 11.64 1.33 12 0.86 12 0.38 12-0 11.64-0 11.2-0 9.47 0.86 7.95 2.17 6.92 1.89 6.28 1.71 5.56 1.71 4.8 1.71 2.15 3.63-0 6-0 8.37-0 10.29 2.15 10.29 4.8 10.29 5.56 10.11 6.28 9.83 6.92 11.14 7.95 12 9.47 12 11.2 12 11.2 12 11.2 12 11.2 12 11.64 11.62 12 11.14 12ZM 6 1.6C 4.58 1.6 3.43 3.03 3.43 4.8 3.43 6.57 4.58 8 6 8 7.42 8 8.57 6.57 8.57 4.8 8.57 3.03 7.42 1.6 6 1.6Z" fill="rgb(153,153,153)"/></svg>
