<?xml version="1.0" encoding="utf-8"?>
<svg xmlns="http://www.w3.org/2000/svg"
	xmlns:xlink="http://www.w3.org/1999/xlink"
	width="14px" height="12px" viewBox="0 0 14 12">
<path fillRule="evenodd" d="M 13.12 5.54C 13.12 5.54 12.91 5.54 12.91 5.54 12.91 5.54 11.34 11.33 11.34 11.33 11.34 11.33 11.33 11.33 11.33 11.33 11.22 11.71 10.9 12 10.5 12 10.5 12 3.5 12 3.5 12 3.1 12 2.78 11.71 2.67 11.33 2.67 11.33 2.66 11.33 2.66 11.33 2.66 11.33 1.09 5.54 1.09 5.54 1.09 5.54 0.87 5.54 0.87 5.54 0.39 5.54-0 5.12-0 4.61-0 4.1 0.39 3.69 0.87 3.69 0.87 3.69 2.96 3.69 2.96 3.69 2.96 3.69 4.47 0.51 4.47 0.51 4.47 0.51 4.48 0.51 4.48 0.51 4.62 0.21 4.91-0 5.25-0 5.73-0 6.12 0.41 6.12 0.92 6.12 1.07 6.08 1.21 6.02 1.33 6.02 1.33 6.03 1.33 6.03 1.33 6.03 1.33 4.92 3.69 4.92 3.69 4.92 3.69 9.08 3.69 9.08 3.69 9.08 3.69 7.97 1.33 7.97 1.33 7.97 1.33 7.98 1.33 7.98 1.33 7.92 1.21 7.87 1.07 7.87 0.92 7.87 0.41 8.27-0 8.75-0 9.09-0 9.38 0.21 9.52 0.51 9.52 0.51 9.53 0.51 9.53 0.51 9.53 0.51 11.04 3.69 11.04 3.69 11.04 3.69 13.12 3.69 13.12 3.69 13.61 3.69 14 4.1 14 4.61 14 5.12 13.61 5.54 13.12 5.54ZM 4.16 10.15C 4.16 10.15 9.84 10.15 9.84 10.15 9.84 10.15 11.09 5.54 11.09 5.54 11.09 5.54 2.91 5.54 2.91 5.54 2.91 5.54 4.16 10.15 4.16 10.15Z" fill="rgb(153,153,153)"/></svg>
