<?xml version="1.0" encoding="utf-8"?>
<svg xmlns="http://www.w3.org/2000/svg"
	xmlns:xlink="http://www.w3.org/1999/xlink"
	width="12px" height="13px" viewBox="0 0 12 13">
<path fillRule="evenodd" d="M 7.38 10.4C 7.38 10.4 2.77 13 2.77 13 2.77 13 2.77 4.33 2.77 4.33 2.77 3.38 3.6 2.6 4.61 2.6 4.61 2.6 10.15 2.6 10.15 2.6 11.17 2.6 12 3.38 12 4.33 12 4.33 12 13 12 13 12 13 7.38 10.4 7.38 10.4ZM 1.85 3.47C 1.85 3.47 1.85 9.36 1.85 9.36 1.85 9.36-0 10.4-0 10.4-0 10.4-0 1.73-0 1.73-0 0.77 0.83-0 1.85-0 1.85-0 7.38-0 7.38-0 8.4-0 9.23 0.77 9.23 1.73 9.23 1.73 3.69 1.73 3.69 1.73 2.67 1.73 1.85 2.51 1.85 3.47Z" fill="rgb(152,152,152)"/></svg>
