<?xml version="1.0" encoding="utf-8"?>
<svg xmlns="http://www.w3.org/2000/svg"
	xmlns:xlink="http://www.w3.org/1999/xlink"
	width="14px" height="12px" viewBox="0 0 14 12">
<path fillRule="evenodd" d="M 14 4.28C 14 4.6 13.81 4.87 13.55 5.02 13.55 5.02 13.56 5.03 13.56 5.03 13.56 5.03 12.25 5.76 12.25 5.76 12.25 5.76 12.25 8.57 12.25 8.57 12.25 10.46 9.9 12 7 12 4.1 12 1.75 10.46 1.75 8.57 1.75 8.57 1.75 5.76 1.75 5.76 1.75 5.76 0.44 5.03 0.44 5.03 0.44 5.03 0.45 5.02 0.45 5.02 0.18 4.87-0 4.6-0 4.28-0 3.97 0.18 3.7 0.45 3.55 0.45 3.55 0.44 3.54 0.44 3.54 0.44 3.54 6.57 0.11 6.57 0.11 6.57 0.11 6.57 0.12 6.57 0.12 6.7 0.05 6.84-0 7-0 7.16-0 7.3 0.05 7.43 0.12 7.43 0.12 7.43 0.11 7.43 0.11 7.43 0.11 13.56 3.54 13.56 3.54 13.56 3.54 13.55 3.55 13.55 3.55 13.81 3.7 14 3.97 14 4.28ZM 3.5 8.57C 3.5 9.52 5.07 10.28 7 10.28 8.93 10.28 10.5 9.52 10.5 8.57 10.5 8.57 10.5 6.74 10.5 6.74 10.5 6.74 7.43 8.46 7.43 8.46 7.43 8.46 7.43 8.45 7.43 8.45 7.3 8.52 7.16 8.57 7 8.57 6.84 8.57 6.7 8.52 6.57 8.45 6.57 8.45 6.57 8.46 6.57 8.46 6.57 8.46 3.5 6.74 3.5 6.74 3.5 6.74 3.5 8.57 3.5 8.57ZM 7 1.84C 7 1.84 3.5 3.8 3.5 3.8 3.5 3.8 3.5 4.77 3.5 4.77 3.5 4.77 7 6.73 7 6.73 7 6.73 10.5 4.77 10.5 4.77 10.5 4.77 10.5 3.8 10.5 3.8 10.5 3.8 7 1.84 7 1.84Z" fill="rgb(153,153,153)"/></svg>
