<?xml version="1.0" encoding="utf-8"?>
<svg xmlns="http://www.w3.org/2000/svg"
	xmlns:xlink="http://www.w3.org/1999/xlink"
	width="14px" height="14px" viewBox="0 0 14 14">
<path fillRule="evenodd" d="M 14 6.12C 14 6.37 13.9 6.58 13.74 6.74 13.74 6.74 13.74 6.74 13.74 6.74 13.74 6.74 11.99 8.49 11.99 8.49 11.99 8.49 11.99 8.49 11.99 8.49 11.84 8.65 11.62 8.75 11.37 8.75 10.89 8.75 10.5 8.36 10.5 7.87 10.5 7.63 10.6 7.41 10.76 7.26 10.76 7.26 10.76 7.26 10.76 7.26 10.76 7.26 11.01 7 11.01 7 11.01 7 8.75 7 8.75 7 8.27 7 7.87 6.61 7.87 6.12 7.87 5.64 8.27 5.25 8.75 5.25 8.75 5.25 11.01 5.25 11.01 5.25 11.01 5.25 10.76 4.99 10.76 4.99 10.76 4.99 10.76 4.99 10.76 4.99 10.6 4.83 10.5 4.62 10.5 4.37 10.5 3.89 10.89 3.5 11.37 3.5 11.62 3.5 11.84 3.6 11.99 3.76 11.99 3.76 11.99 3.76 11.99 3.76 11.99 3.76 13.74 5.51 13.74 5.51 13.74 5.51 13.74 5.51 13.74 5.51 13.9 5.66 14 5.88 14 6.12ZM 11.37 1.75C 11.37 1.75 9.62 1.75 9.62 1.75 9.62 1.75 7.87 1.75 7.87 1.75 7.87 1.75 4.03 1.75 4.03 1.75 4.03 1.75 5.7 2.75 5.7 2.75 5.7 2.75 5.69 2.76 5.69 2.76 5.95 2.91 6.12 3.18 6.12 3.5 6.12 3.5 6.12 10.5 6.12 10.5 6.12 10.5 7 10.5 7 10.5 7 10.5 9.62 10.5 9.62 10.5 9.62 10.5 11.37 10.5 11.37 10.5 11.86 10.5 12.25 10.89 12.25 11.37 12.25 11.86 11.86 12.25 11.37 12.25 11.37 12.25 7 12.25 7 12.25 7 12.25 6.12 12.25 6.12 12.25 6.12 12.25 6.12 13.12 6.12 13.12 6.12 13.61 5.73 14 5.25 14 5.08 14 4.94 13.94 4.81 13.86 4.81 13.86 4.8 13.87 4.8 13.87 4.8 13.87 0.42 11.25 0.42 11.25 0.42 11.25 0.43 11.24 0.43 11.24 0.43 11.24 0.43 11.24 0.43 11.24 0.31 11.17 0.22 11.07 0.15 10.95 0.14 10.94 0.12 10.92 0.11 10.91 0.05 10.78-0 10.65-0 10.5-0 10.5-0 0.87-0 0.87-0 0.51 0.22 0.2 0.53 0.07 0.64 0.02 0.75-0 0.87-0 0.87-0 0.87-0 0.87-0 0.87-0 7.87-0 7.87-0 7.87-0 11.37-0 11.37-0 11.86-0 12.25 0.39 12.25 0.87 12.25 1.36 11.86 1.75 11.37 1.75Z" fill="rgb(153,153,153)"/></svg>
