<?xml version="1.0" encoding="utf-8"?>
<svg xmlns="http://www.w3.org/2000/svg"
	xmlns:xlink="http://www.w3.org/1999/xlink"
	width="10px" height="14px" viewBox="0 0 10 14">
<path fillRule="evenodd" d="M 10 12.25C 10 12.61 9.89 12.95 9.72 13.23 9.6 13.41 9.44 13.57 9.26 13.7 9.18 13.76 9.08 13.82 8.98 13.86 8.78 13.95 8.56 14 8.33 14 8.33 14 1.67 14 1.67 14 1.44 14 1.22 13.95 1.02 13.86 0.92 13.82 0.82 13.76 0.73 13.7 0.56 13.57 0.4 13.41 0.28 13.23 0.1 12.95-0 12.61-0 12.25-0 12.25-0 1.75-0 1.75-0 0.78 0.75-0 1.67-0 1.67-0 5-0 5-0 5.23-0 5.44 0.1 5.59 0.26 5.59 0.26 5.59 0.26 5.59 0.26 5.59 0.26 9.76 4.63 9.76 4.63 9.76 4.63 9.76 4.63 9.76 4.63 9.91 4.79 10 5.01 10 5.25 10 5.25 10 12.25 10 12.25ZM 4.17 1.75C 4.17 1.75 2.5 1.75 2.5 1.75 2.04 1.75 1.67 2.14 1.67 2.62 1.67 2.62 1.67 11.37 1.67 11.37 1.67 11.86 2.04 12.25 2.5 12.25 2.5 12.25 7.5 12.25 7.5 12.25 7.96 12.25 8.33 11.86 8.33 11.37 8.33 11.37 8.33 6.12 8.33 6.12 8.33 6.12 5 6.12 5 6.12 4.54 6.12 4.17 5.73 4.17 5.25 4.17 5.25 4.17 1.75 4.17 1.75ZM 5.83 4.37C 5.83 4.37 7.15 4.37 7.15 4.37 7.15 4.37 5.83 2.99 5.83 2.99 5.83 2.99 5.83 4.37 5.83 4.37Z" fill="rgb(153,153,153)"/></svg>
