<?xml version="1.0" encoding="utf-8"?>
<svg xmlns="http://www.w3.org/2000/svg"
	xmlns:xlink="http://www.w3.org/1999/xlink"
	width="12px" height="14px" viewBox="0 0 12 14">
<path fillRule="evenodd" d="M 11.16 5.87C 11.16 5.87 11.17 5.87 11.17 5.87 11.17 5.87 11.04 5.95 11.04 5.95 11.11 6.29 11.14 6.64 11.14 7 11.14 7.36 11.11 7.71 11.04 8.04 11.04 8.04 11.17 8.12 11.17 8.12 11.17 8.12 11.16 8.13 11.16 8.13 11.66 8.43 12 8.99 12 9.62 12 10.59 11.23 11.37 10.29 11.37 9.96 11.37 9.66 11.28 9.41 11.12 9.41 11.12 9.4 11.12 9.4 11.12 9.4 11.12 9.25 11.03 9.25 11.03 8.8 11.42 8.28 11.72 7.71 11.93 7.71 11.93 7.71 12.25 7.71 12.25 7.71 13.22 6.95 14 6 14 5.05 14 4.29 13.22 4.29 12.25 4.29 12.25 4.29 11.93 4.29 11.93 3.72 11.72 3.2 11.42 2.75 11.03 2.75 11.03 2.6 11.12 2.6 11.12 2.6 11.12 2.59 11.12 2.59 11.12 2.34 11.28 2.04 11.37 1.71 11.37 0.77 11.37-0 10.59-0 9.62-0 8.99 0.34 8.43 0.84 8.13 0.84 8.13 0.83 8.12 0.83 8.12 0.83 8.12 0.96 8.04 0.96 8.04 0.89 7.71 0.86 7.36 0.86 7 0.86 6.64 0.89 6.29 0.96 5.95 0.96 5.95 0.83 5.87 0.83 5.87 0.83 5.87 0.84 5.87 0.84 5.87 0.34 5.56-0 5.01-0 4.37-0 3.41 0.77 2.62 1.71 2.62 2.04 2.62 2.34 2.72 2.59 2.88 2.59 2.88 2.6 2.87 2.6 2.87 2.6 2.87 2.75 2.96 2.75 2.96 3.2 2.58 3.72 2.28 4.29 2.07 4.29 2.07 4.29 1.75 4.29 1.75 4.29 0.78 5.05-0 6-0 6.95-0 7.71 0.78 7.71 1.75 7.71 1.75 7.71 2.07 7.71 2.07 8.28 2.28 8.8 2.58 9.25 2.96 9.25 2.96 9.4 2.87 9.4 2.87 9.4 2.87 9.41 2.88 9.41 2.88 9.66 2.72 9.96 2.62 10.29 2.62 11.23 2.62 12 3.41 12 4.37 12 5.01 11.66 5.56 11.16 5.87ZM 6 3.5C 4.11 3.5 2.57 5.07 2.57 7 2.57 8.93 4.11 10.5 6 10.5 7.89 10.5 9.43 8.93 9.43 7 9.43 5.07 7.89 3.5 6 3.5ZM 6 8.75C 5.05 8.75 4.29 7.97 4.29 7 4.29 6.03 5.05 5.25 6 5.25 6.95 5.25 7.71 6.03 7.71 7 7.71 7.97 6.95 8.75 6 8.75Z" fill="rgb(153,153,153)"/></svg>
