<?xml version="1.0" encoding="utf-8"?>
<svg xmlns="http://www.w3.org/2000/svg"
	xmlns:xlink="http://www.w3.org/1999/xlink"
	width="14px" height="14px" viewBox="0 0 14 14">
<path fillRule="evenodd" d="M 0.87 12.25C 0.87 12.25 5.25 12.25 5.25 12.25 5.55 12.25 5.81 12.08 5.96 11.85 5.96 11.85 5.98 11.86 5.98 11.86 5.98 11.86 7.47 9.62 7.47 9.62 7.47 9.62 8.25 9.62 8.25 9.62 8.25 9.62 10.62 13.57 10.62 13.57 10.62 13.57 10.64 13.57 10.64 13.57 10.79 13.82 11.06 14 11.37 14 11.86 14 12.25 13.61 12.25 13.12 12.25 12.96 12.19 12.81 12.11 12.68 12.11 12.68 12.12 12.67 12.12 12.67 12.12 12.67 9.5 8.3 9.5 8.3 9.5 8.3 9.49 8.31 9.49 8.31 9.33 8.05 9.07 7.87 8.75 7.87 8.75 7.87 8.75 7.87 8.75 7.87 8.75 7.87 8.07 7.87 8.07 7.87 8.07 7.87 8.38 6.3 8.38 6.3 8.38 6.3 10.94 7.76 10.94 7.76 10.94 7.76 10.95 7.75 10.95 7.75 11.08 7.82 11.22 7.87 11.37 7.87 11.68 7.87 11.93 7.71 12.09 7.48 12.09 7.48 12.1 7.48 12.1 7.48 12.1 7.48 13.85 4.86 13.85 4.86 13.85 4.86 13.84 4.85 13.84 4.85 13.93 4.71 14 4.55 14 4.37 14 3.89 13.61 3.5 13.12 3.5 12.82 3.5 12.57 3.66 12.41 3.9 12.41 3.9 12.4 3.89 12.4 3.89 12.4 3.89 11.1 5.83 11.1 5.83 11.1 5.83 5.68 2.74 5.68 2.74 5.68 2.74 5.68 2.75 5.68 2.75 5.55 2.68 5.41 2.62 5.25 2.62 4.91 2.62 4.62 2.83 4.47 3.11 4.47 3.11 4.47 3.11 4.47 3.11 4.47 3.11 2.72 6.61 2.72 6.61 2.72 6.61 2.72 6.61 2.72 6.61 2.67 6.73 2.62 6.86 2.62 7 2.62 7.48 3.02 7.87 3.5 7.87 3.84 7.87 4.13 7.67 4.27 7.39 4.27 7.39 4.28 7.39 4.28 7.39 4.28 7.39 5.62 4.72 5.62 4.72 5.62 4.72 6.78 5.38 6.78 5.38 6.78 5.38 6.18 8.41 6.18 8.41 6.18 8.41 4.78 10.5 4.78 10.5 4.78 10.5 0.87 10.5 0.87 10.5 0.39 10.5-0 10.89-0 11.37-0 11.86 0.39 12.25 0.87 12.25ZM 9.62 3.5C 10.59 3.5 11.37 2.72 11.37 1.75 11.37 0.78 10.59-0 9.62-0 8.66-0 7.87 0.78 7.87 1.75 7.87 2.72 8.66 3.5 9.62 3.5Z" fill="rgb(152,152,152)"/></svg>
