<?xml version="1.0" encoding="utf-8"?>
<svg xmlns="http://www.w3.org/2000/svg"
	xmlns:xlink="http://www.w3.org/1999/xlink"
	width="16px" height="16px" viewBox="0 0 16 16">
<path fillRule="evenodd" d="M 15.56 16C 15.56 16 8.98 16 8.98 16 8.74 16 8.54 15.8 8.54 15.55 8.54 15.55 8.54 8.85 8.54 8.85 8.54 8.61 8.74 8.41 8.98 8.41 8.98 8.41 15.56 8.41 15.56 8.41 15.8 8.41 16 8.61 16 8.85 16 8.85 16 15.55 16 15.55 16 15.8 15.8 16 15.56 16ZM 11.62 11.1C 11.81 10.88 12.06 10.76 12.36 10.76 12.58 10.76 12.77 10.83 12.92 10.95 12.99 11.01 13.06 11.09 13.11 11.17 13.2 11.33 13.39 11.42 13.57 11.37 13.57 11.37 13.6 11.37 13.6 11.37 13.88 11.3 14.02 10.97 13.86 10.73 13.8 10.62 13.73 10.54 13.65 10.46 13.34 10.16 12.92 10 12.4 10 11.82 10 11.34 10.2 10.98 10.59 10.62 10.98 10.44 11.54 10.44 12.24 10.44 12.91 10.62 13.44 10.98 13.83 11.34 14.21 11.8 14.41 12.35 14.41 12.8 14.41 13.18 14.29 13.47 14.07 13.65 13.93 13.8 13.74 13.92 13.5 14.04 13.26 13.92 12.97 13.67 12.89 13.67 12.89 13.64 12.89 13.64 12.89 13.43 12.82 13.22 12.92 13.13 13.12 13.07 13.25 12.99 13.35 12.9 13.43 12.75 13.57 12.56 13.64 12.34 13.64 12.05 13.64 11.8 13.53 11.62 13.31 11.43 13.09 11.34 12.7 11.34 12.18 11.34 11.68 11.43 11.32 11.62 11.1ZM 11.29 7.58C 11.29 7.58 4.71 7.58 4.71 7.58 4.47 7.58 4.27 7.38 4.27 7.14 4.27 7.14 4.27 0.44 4.27 0.44 4.27 0.2 4.47-0 4.71-0 4.71-0 11.29-0 11.29-0 11.53-0 11.73 0.2 11.73 0.44 11.73 0.44 11.73 7.14 11.73 7.14 11.73 7.38 11.53 7.58 11.29 7.58ZM 8.55 1.92C 8.48 1.75 8.32 1.64 8.14 1.64 8.14 1.64 7.81 1.64 7.81 1.64 7.63 1.64 7.47 1.76 7.41 1.93 7.41 1.93 6.01 5.57 6.01 5.57 5.95 5.75 6.07 5.93 6.25 5.94 6.25 5.94 6.52 5.94 6.52 5.94 6.7 5.94 6.86 5.82 6.93 5.64 6.93 5.64 7.16 4.98 7.16 4.98 7.16 4.98 8.79 4.98 8.79 4.98 8.79 4.98 9.05 5.65 9.05 5.65 9.11 5.82 9.28 5.94 9.46 5.94 9.46 5.94 9.74 5.94 9.74 5.94 9.93 5.94 10.05 5.75 9.98 5.57 9.98 5.57 8.55 1.92 8.55 1.92ZM 7.97 2.74C 7.97 2.74 8.51 4.2 8.51 4.2 8.51 4.2 7.44 4.2 7.44 4.2 7.44 4.2 7.97 2.74 7.97 2.74ZM 7.46 8.85C 7.46 8.85 7.46 15.55 7.46 15.55 7.46 15.8 7.26 16 7.02 16 7.02 16 0.44 16 0.44 16 0.2 16-0 15.8-0 15.55-0 15.55-0 8.85-0 8.85-0 8.61 0.2 8.41 0.44 8.41 0.44 8.41 7.02 8.41 7.02 8.41 7.26 8.41 7.46 8.61 7.46 8.85ZM 5.06 11.84C 5.16 11.67 5.22 11.49 5.22 11.29 5.22 11.11 5.17 10.93 5.09 10.78 5 10.64 4.89 10.51 4.76 10.42 4.63 10.34 4.49 10.28 4.32 10.25 4.16 10.22 3.91 10.21 3.58 10.21 3.58 10.21 2.34 10.21 2.34 10.21 2.1 10.21 1.9 10.4 1.9 10.65 1.9 10.65 1.91 10.65 1.91 10.65 1.91 10.65 1.91 14.02 1.91 14.02 1.91 14.27 2.1 14.47 2.34 14.47 2.34 14.47 3.34 14.47 3.34 14.47 3.87 14.46 4.21 14.46 4.35 14.44 4.58 14.42 4.77 14.35 4.92 14.24 5.08 14.13 5.2 13.98 5.29 13.79 5.38 13.61 5.42 13.42 5.42 13.23 5.42 12.98 5.35 12.76 5.21 12.58 5.08 12.4 4.9 12.28 4.66 12.2 4.83 12.12 4.96 12 5.06 11.84ZM 4.02 13.72C 4.02 13.72 3.54 13.72 3.54 13.72 3.54 13.72 2.78 13.72 2.78 13.72 2.78 13.72 2.78 12.63 2.78 12.63 2.78 12.63 3.44 12.63 3.44 12.63 3.44 12.63 4.02 12.63 4.02 12.63 4.29 12.63 4.52 12.85 4.52 13.13 4.52 13.13 4.52 13.19 4.52 13.19 4.52 13.19 4.52 13.22 4.52 13.22 4.52 13.5 4.29 13.72 4.02 13.72ZM 3.91 11.91C 3.91 11.91 2.78 11.91 2.78 11.91 2.78 11.91 2.78 11.89 2.78 11.89 2.78 11.89 2.78 10.95 2.78 10.95 2.78 10.95 2.78 10.92 2.78 10.92 2.78 10.92 3.91 10.92 3.91 10.92 4.07 10.92 4.21 11.01 4.29 11.14 4.34 11.21 4.36 11.3 4.36 11.41 4.36 11.46 4.36 11.5 4.35 11.54 4.31 11.75 4.13 11.91 3.91 11.91Z" fill="rgb(153,153,153)"/></svg>
