<?xml version="1.0" encoding="utf-8"?>
<svg xmlns="http://www.w3.org/2000/svg"
	xmlns:xlink="http://www.w3.org/1999/xlink"
	width="12px" height="16px" viewBox="0 0 12 16">
<path fillRule="evenodd" d="M 1.9 16C 0.85 16-0 15.15-0 14.1-0 14.1-0 1.89-0 1.89-0 0.85 0.85-0 1.9-0 1.9-0 10.71-0 10.71-0 10.71-0 10.71 13.1 10.71 13.1 10.71 13.1 2.34 13.1 2.34 13.1 1.81 13.1 1.39 13.52 1.39 14.04 1.39 14.57 1.81 14.99 2.34 14.99 2.34 14.99 12 14.99 12 14.99 12 14.99 12 16 12 16 12 16 1.9 16 1.9 16ZM 3.05 4.73C 3.05 4.98 3.25 5.18 3.5 5.18 3.5 5.18 9.06 5.18 9.06 5.18 9.31 5.18 9.51 4.98 9.51 4.73 9.51 4.73 9.51 3.12 9.51 3.12 9.51 2.87 9.31 2.67 9.06 2.67 9.06 2.67 3.5 2.67 3.5 2.67 3.25 2.67 3.05 2.87 3.05 3.12 3.05 3.12 3.05 4.73 3.05 4.73ZM 11.37-0C 11.37-0 12-0 12-0 12-0 12 13.1 12 13.1 12 13.1 11.37 13.1 11.37 13.1 11.37 13.1 11.37-0 11.37-0ZM 10.06 13.45C 10.06 13.45 10.71 13.45 10.71 13.45 10.71 13.45 10.71 14.7 10.71 14.7 10.71 14.7 10.06 14.7 10.06 14.7 10.06 14.7 10.06 13.45 10.06 13.45Z" fill="rgb(153,153,153)"/></svg>
