<?xml version="1.0" encoding="utf-8"?>
<svg xmlns="http://www.w3.org/2000/svg"
	xmlns:xlink="http://www.w3.org/1999/xlink"
	width="12px" height="16px" viewBox="0 0 12 16">
<path fillRule="evenodd" d="M 11.93 4.47C 11.88 4.52 11.82 4.54 11.76 4.54 11.73 4.54 11.7 4.54 11.67 4.52 11.67 4.52 8.75 3.47 8.75 3.47 8.64 3.43 8.55 3.31 8.55 3.19 8.55 3.19 8.54 1.43 8.54 1.43 8.54 1.31 8.62 1.19 8.73 1.15 8.73 1.15 11.62 0.01 11.62 0.01 11.65 0 11.68-0 11.71-0 11.85-0 11.96 0.1 11.96 0.24 11.96 0.24 12 4.29 12 4.29 12 4.36 11.98 4.42 11.93 4.47ZM 8.99 7.82C 8.99 7.82 8.99 15.1 8.99 15.1 8.99 15.81 8.37 16 8.05 16 8.05 16 2.72 16 2.72 16 2.35 16 1.81 15.76 1.81 15.1 1.81 15.1 1.81 7.82 1.81 7.82 1.81 6.34 2.73 5.07 4.04 4.55 4.04 4.55 4.04 3.43 4.04 3.43 4.04 3.43 3.45 3.43 3.45 3.43 3.3 3.43 3.18 3.31 3.18 3.17 3.18 3.17 3.18 2.86 3.18 2.86 3.18 2.86 1.75 2.86 1.75 2.86 1.43 2.86 1.17 3.12 1.17 3.43 1.17 3.43 1.17 10.37 1.17 10.37 1.17 10.69 0.9 10.95 0.58 10.95 0.26 10.95-0 10.69-0 10.37-0 10.37-0 3.43-0 3.43-0 2.49 0.78 1.71 1.75 1.71 1.75 1.71 3.18 1.71 3.18 1.71 3.18 1.71 3.18 1.41 3.18 1.41 3.18 1.26 3.3 1.14 3.45 1.14 3.45 1.14 7.35 1.14 7.35 1.14 7.5 1.14 7.62 1.26 7.62 1.41 7.62 1.41 7.62 3.17 7.62 3.17 7.62 3.31 7.5 3.43 7.35 3.43 7.35 3.43 6.76 3.43 6.76 3.43 6.76 3.43 6.76 4.55 6.76 4.55 8.06 5.07 8.99 6.34 8.99 7.82Z" fill="rgb(153,153,153)"/></svg>
