<?xml version="1.0" encoding="utf-8"?>
<svg xmlns="http://www.w3.org/2000/svg"
	xmlns:xlink="http://www.w3.org/1999/xlink"
	width="14px" height="11px" viewBox="0 0 14 11">
<path fillRule="evenodd" d="M 13.81 10.88C 13.69 10.98 13.54 11.02 13.39 10.98 12.19 10.7 10.08 10.37 8.08 10.88 9.24 9.75 10.87 9.55 11.86 9.55 12.56 9.55 13.14 8.96 13.14 8.24 13.14 8.24 13.14 1.78 13.14 1.78 13.14 1.78 13.5 1.78 13.5 1.78 13.78 1.78 14 2.01 14 2.3 14 2.3 14 10.48 14 10.48 14 10.64 13.93 10.79 13.81 10.88ZM 11.86 8.75C 10.69 8.75 8.74 9.01 7.39 10.46 7.39 10.46 7.39 2.37 7.39 2.37 7.39 2.27 7.41 2.18 7.46 2.11 8.56 0.28 10.69-0 11.86-0 11.86-0 11.86-0 11.86-0 11.99-0 12.12 0.05 12.21 0.15 12.31 0.24 12.36 0.37 12.36 0.51 12.36 0.51 12.36 8.24 12.36 8.24 12.36 8.52 12.13 8.75 11.86 8.75ZM 2.14 8.75C 1.87 8.75 1.64 8.52 1.64 8.24 1.64 8.24 1.64 0.51 1.64 0.51 1.64 0.37 1.69 0.24 1.79 0.15 1.88 0.05 2.01-0 2.14-0 2.14-0 2.14-0 2.14-0 3.31-0 5.44 0.28 6.54 2.11 6.59 2.18 6.61 2.27 6.61 2.37 6.61 2.37 6.61 10.46 6.61 10.46 5.26 9.01 3.31 8.75 2.14 8.75ZM 5.92 10.88C 3.92 10.37 1.81 10.7 0.61 10.98 0.46 11.02 0.31 10.98 0.19 10.88 0.07 10.79-0 10.64-0 10.48-0 10.48-0 2.3-0 2.3-0 2.01 0.22 1.78 0.5 1.78 0.5 1.78 0.86 1.78 0.86 1.78 0.86 1.78 0.86 8.24 0.86 8.24 0.86 8.96 1.44 9.55 2.14 9.55 3.13 9.55 4.76 9.75 5.92 10.88Z" fill="rgb(153,153,153)"/></svg>
