<?xml version="1.0" encoding="utf-8"?>
<svg xmlns="http://www.w3.org/2000/svg"
	xmlns:xlink="http://www.w3.org/1999/xlink"
	width="12px" height="16px" viewBox="0 0 12 16">
<path fillRule="evenodd" d="M 9.36 10.6C 9.2 10.6 9.06 10.62 8.91 10.64 8.91 10.64 7.59 8.59 7.59 8.59 7.59 8.59 9.61 6.26 9.61 6.26 10.78 4.92 11.24 3.07 10.83 1.32 10.83 1.32 10.59 0.29 10.59 0.29 10.55 0.14 10.44 0.03 10.3 0.01 10.15-0.02 10.01 0.05 9.93 0.17 9.93 0.17 6.04 6.2 6.04 6.2 6.04 6.2 2.16 0.17 2.16 0.17 2.08 0.04 1.93-0.02 1.79 0.01 1.65 0.03 1.53 0.14 1.5 0.29 1.5 0.29 1.26 1.32 1.26 1.32 0.85 3.07 1.3 4.92 2.47 6.26 2.47 6.26 4.5 8.59 4.5 8.59 4.5 8.59 3.17 10.66 3.17 10.66 3 10.62 2.82 10.6 2.64 10.6 1.19 10.6 0 11.81 0 13.3 0 14.79 1.19 16 2.64 16 4.1 16 5.29 14.79 5.29 13.3 5.29 12.73 5.11 12.2 4.82 11.77 4.82 11.77 6.04 10.36 6.04 10.36 6.04 10.36 7.22 11.71 7.22 11.71 6.9 12.16 6.71 12.71 6.71 13.3 6.71 14.79 7.9 16 9.36 16 10.81 16 12 14.79 12 13.3 12 11.81 10.81 10.6 9.36 10.6ZM 9.36 14.54C 8.69 14.54 8.15 13.98 8.15 13.3 8.15 12.62 8.69 12.07 9.36 12.07 10.02 12.07 10.57 12.62 10.57 13.3 10.57 13.98 10.02 14.54 9.36 14.54ZM 2.64 14.54C 1.98 14.54 1.43 13.98 1.43 13.3 1.43 12.62 1.98 12.07 2.64 12.07 3.31 12.07 3.85 12.62 3.85 13.3 3.85 13.98 3.31 14.54 2.64 14.54Z" fill="rgb(153,153,153)"/></svg>
