<?xml version="1.0" encoding="utf-8"?>
<svg xmlns="http://www.w3.org/2000/svg"
	xmlns:xlink="http://www.w3.org/1999/xlink"
	width="14px" height="14px" viewBox="0 0 14 14">
<path fillRule="evenodd" d="M 12.96 3.98C 12.88 3.33 12.53 2.63 11.95 2.05 11.37 1.47 10.67 1.12 10.01 1.03 9.72 0.99 9.32 0.83 9.09 0.65 8.56 0.25 7.82-0 7-0 6.18-0 5.44 0.25 4.91 0.65 4.68 0.83 4.28 0.99 3.99 1.03 3.33 1.12 2.63 1.47 2.05 2.05 1.47 2.63 1.12 3.33 1.04 3.98 1 4.28 0.83 4.67 0.65 4.91 0.25 5.43-0 6.17-0 7-0 7.82 0.25 8.56 0.65 9.08 0.83 9.32 1 9.71 1.04 10.01 1.12 10.66 1.47 11.37 2.05 11.95 2.63 12.53 3.33 12.87 3.99 12.96 4.28 13 4.68 13.16 4.91 13.34 5.44 13.75 6.18 14 7 14 7.82 14 8.56 13.75 9.09 13.34 9.32 13.16 9.72 13 10.01 12.96 10.67 12.87 11.37 12.53 11.95 11.95 12.53 11.37 12.88 10.66 12.96 10.01 13 9.71 13.17 9.32 13.35 9.08 13.75 8.56 14 7.82 14 7 14 6.17 13.75 5.43 13.35 4.91 13.17 4.67 13 4.28 12.96 3.98ZM 7.84 10.97C 7.84 11.14 7.7 11.28 7.53 11.28 7.53 11.28 6.52 11.28 6.52 11.28 6.35 11.28 6.21 11.14 6.21 10.97 6.21 10.97 6.21 9.96 6.21 9.96 6.21 9.79 6.35 9.65 6.52 9.65 6.52 9.65 7.53 9.65 7.53 9.65 7.7 9.65 7.84 9.79 7.84 9.96 7.84 9.96 7.84 10.97 7.84 10.97ZM 9.74 6.17C 9.53 6.49 9.1 6.92 8.44 7.47 8.1 7.76 7.88 7.99 7.8 8.16 7.74 8.29 7.7 8.5 7.69 8.78 7.68 8.95 7.55 9.09 7.38 9.09 7.38 9.09 6.52 9.09 6.52 9.09 6.35 9.09 6.21 9.01 6.21 8.9 6.21 8.8 6.21 8.74 6.21 8.71 6.21 8.23 6.29 7.83 6.45 7.53 6.6 7.22 6.92 6.87 7.39 6.48 7.87 6.1 8.15 5.85 8.24 5.73 8.38 5.54 8.46 5.33 8.46 5.1 8.46 4.79 8.33 4.52 8.08 4.29 7.83 4.07 7.49 3.95 7.06 3.95 6.76 3.95 6.5 4.01 6.28 4.13 6.13 4.21 5.91 4.4 5.81 4.53 5.7 4.68 5.6 4.87 5.53 5.08 5.48 5.24 5.31 5.36 5.14 5.34 5.14 5.34 4.27 5.23 4.27 5.23 4.1 5.21 3.97 5.06 4 4.89 4.1 4.33 4.38 3.85 4.84 3.44 5.39 2.96 6.1 2.72 6.99 2.72 7.92 2.72 8.66 2.96 9.21 3.45 9.76 3.94 10.04 4.5 10.04 5.15 10.04 5.51 9.94 5.85 9.74 6.17Z" fill="rgb(153,153,153)"/></svg>
