<?xml version="1.0" encoding="utf-8"?>
<svg xmlns="http://www.w3.org/2000/svg"
	xmlns:xlink="http://www.w3.org/1999/xlink"
	width="14px" height="13px" viewBox="0 0 14 13">
<path fillRule="evenodd" d="M 13.34 1.47C 12.74 0.64 11.8 0.17 10.46 0.02 10.35 0 10.23-0 10.11-0 8.92-0 7.74 0.58 7 1.51 6.26 0.58 5.08-0 3.89-0 3.77-0 3.65 0 3.54 0.02 2.2 0.17 1.26 0.64 0.66 1.47 0.06 2.28-0.13 3.39 0.08 4.76 0.16 5.27 0.38 5.81 0.7 6.36 0.7 6.36 2.68 6.36 2.68 6.36 2.68 6.36 2.89 2.87 2.89 2.87 2.91 2.6 3.11 2.38 3.37 2.34 3.63 2.31 3.88 2.47 3.96 2.73 3.96 2.73 5.53 7.77 5.53 7.77 5.53 7.77 6.41 4.13 6.41 4.13 6.47 3.87 6.69 3.7 6.94 3.69 6.94 3.69 6.94 3.69 6.94 3.69 7.19 3.69 7.41 3.87 7.47 4.12 7.47 4.12 8.03 6.35 8.03 6.35 8.03 6.35 8.53 5.49 8.53 5.49 8.62 5.35 8.76 5.24 8.92 5.22 9.09 5.2 9.25 5.25 9.37 5.37 9.37 5.37 9.95 5.92 9.95 5.92 9.95 5.92 10.98 5.92 10.98 5.92 11.28 5.92 11.53 6.18 11.53 6.49 11.53 6.81 11.28 7.07 10.98 7.07 10.98 7.07 9.74 7.07 9.74 7.07 9.6 7.07 9.47 7.02 9.37 6.92 9.37 6.92 9.12 6.68 9.12 6.68 9.12 6.68 8.29 8.1 8.29 8.1 8.18 8.3 7.96 8.4 7.74 8.37 7.53 8.34 7.35 8.17 7.29 7.95 7.29 7.95 6.95 6.57 6.95 6.57 6.95 6.57 6.13 9.97 6.13 9.97 6.07 10.22 5.87 10.39 5.62 10.4 5.62 10.4 5.61 10.4 5.6 10.4 5.37 10.4 5.16 10.25 5.08 10.01 5.08 10.01 3.8 5.93 3.8 5.93 3.8 5.93 3.74 6.97 3.74 6.97 3.72 7.27 3.49 7.51 3.2 7.51 3.2 7.51 1.47 7.51 1.47 7.51 2.42 8.75 3.7 10.01 4.82 11.11 4.82 11.11 4.87 11.16 4.87 11.16 5.41 11.7 5.89 12.17 6.2 12.52 6.24 12.56 6.62 13 7.03 13 7.44 13 7.81 12.56 7.84 12.52 8.17 12.14 8.71 11.62 9.23 11.09 11.18 9.15 13.61 6.74 13.92 4.76 14.13 3.39 13.94 2.28 13.34 1.47Z" fill="rgb(153,153,153)"/></svg>
