<svg id="SvgjsSvg1008" xmlns="http://www.w3.org/2000/svg" version="1.1" xmlns:xlink="http://www.w3.org/1999/xlink" xmlns:svgjs="http://svgjs.com/svgjs" width="40" height="40" viewBox="0 0 40 40"><title>Rectangle 1</title><desc>Created with Avocode.</desc><defs id="SvgjsDefs1009"></defs><path id="SvgjsPath1010" d="M602 358H638C639.104 358 640 358.895 640 360V396C640 397.105 639.104 398 638 398H602C600.895 398 600 397.105 600 396V360C600 358.895 600.895 358 602 358Z " fill="#0ea46e" fill-opacity="1" transform="matrix(1,0,0,1,-600,-358)"></path><path id="SvgjsPath1011" d="M623.972 384.285H614.67V371.71500000000003H623.972V372.413L625.63 370.712C625.562 370.308 625.22 370 624.807 370H613.835C613.374 370 613 370.384 613 370.857V385.14200000000005C613 385.61600000000004 613.374 386.00000000000006 613.835 386.00000000000006H624.807C625.269 386.00000000000006 625.642 385.61600000000004 625.642 385.14200000000005V378.87700000000007L623.9720000000001 379.3070000000001ZM620.803 374.004C620.515 373.634 619.99 373.574 619.629 373.869L617.73 375.42600000000004L617.155 374.83600000000007C616.829 374.5010000000001 616.3009999999999 374.5010000000001 615.975 374.83600000000007C615.648 375.17100000000005 615.648 375.71400000000006 615.975 376.04800000000006L617.077 377.18000000000006C617.239 377.34700000000004 617.453 377.4320000000001 617.667 377.4320000000001C617.851 377.4320000000001 618.0350000000001 377.37000000000006 618.188 377.2440000000001L620.6709999999999 375.20900000000006C621.031 374.91400000000004 621.0899999999999 374.3740000000001 620.8029999999999 374.0040000000001ZM619.629 379.41L617.73 380.96700000000004L617.155 380.37700000000007C616.829 380.0420000000001 616.3009999999999 380.0420000000001 615.975 380.37700000000007C615.648 380.71200000000005 615.648 381.25500000000005 615.975 381.5900000000001L617.077 382.72100000000006C617.239 382.88800000000003 617.453 382.97300000000007 617.668 382.97300000000007C617.851 382.97300000000007 618.035 382.91100000000006 618.188 382.7850000000001L620.6709999999999 380.75000000000006C621.031 380.45500000000004 621.0909999999999 379.9150000000001 620.8029999999999 379.5450000000001C620.5149999999999 379.17500000000007 619.9899999999999 379.1140000000001 619.6289999999999 379.4100000000001ZM628.41 370.526C628.265 370.526 628.1189999999999 370.581 627.999 370.704L624.025 374.785C623.8299999999999 374.985 623.692 375.235 623.624 375.51000000000005L623.198 377.2540000000001C623.178 377.3350000000001 623.185 377.42300000000006 623.226 377.4960000000001C623.282 377.5970000000001 623.385 377.6540000000001 623.49 377.6540000000001C623.515 377.6540000000001 623.54 377.6510000000001 623.565 377.6440000000001L625.274 377.2040000000001C625.541 377.1350000000001 625.785 376.9930000000001 625.98 376.79200000000014L628.402 374.30600000000015C628.7850000000001 373.9130000000002 629 373.37900000000013 629 372.82300000000015V371.12900000000013C629 370.76600000000013 628.711 370.5260000000001 628.41 370.5260000000001Z " fill="#ffffff" fill-opacity="1" transform="matrix(1,0,0,1,-600,-358)"></path></svg>
