<?xml version="1.0" encoding="utf-8"?>
<svg xmlns="http://www.w3.org/2000/svg"
	xmlns:xlink="http://www.w3.org/1999/xlink"
	width="32px" height="32px" viewBox="0 0 32 32">
<path fillRule="evenodd" d="M-0-0C-0-0 32-0 32-0 32-0 32 32 32 32 32 32-0-0-0-0Z" fill="rgb(247,247,247)"/><path fillRule="evenodd" d="M 20.29 14.84C 21.1 14.44 22.5 13.73 22.5 13.73 22.5 13.73 23.87 14.42 24.75 14.85 24.46 14.71 25.48 15.47 25.39 14.42 25.3 13.41 25.15 11.79 25.15 11.79 25.15 11.79 26.16 10.6 26.78 9.86 26.52 10.17 27.5 9.33 26.59 9.15 25.66 8.96 24.01 8.83 24.01 8.83 24.01 8.83 23.35 7.22 22.86 6.33 23.09 6.74 22.61 5.41 22.12 6.31 21.64 7.2 20.93 8.84 20.93 8.84 20.93 8.84 19.33 8.97 18.4 9.16 18.76 9.09 17.55 9.12 18.17 9.84 18.79 10.58 19.84 11.8 19.84 11.8 19.84 11.8 19.7 13.43 19.61 14.43 19.63 14.17 19.29 15.34 20.29 14.84Z" fill="rgb(203,203,203)"/></svg>
