<?xml version="1.0" encoding="utf-8"?>
<svg xmlns="http://www.w3.org/2000/svg"
	xmlns:xlink="http://www.w3.org/1999/xlink"
	width="8px" height="10px" viewBox="0 0 8 10">
<path fillRule="evenodd" d="M 8 7.86C 8 8.25 7.7 8.57 7.33 8.57 7.33 8.57 5.33 8.57 5.33 8.57 5.33 9.36 4.74 10 4 10 3.26 10 2.67 9.36 2.67 8.57 2.67 8.57 0.67 8.57 0.67 8.57 0.3 8.57-0 8.25-0 7.86-0 7.78 0.02 7.7 0.04 7.63 0.04 7.63 0.03 7.63 0.03 7.63 0.03 7.63 0.67 5.6 0.67 5.6 0.67 5.6 0.67 5 0.67 5 0.67 5 0.67 4.29 0.67 4.29 0.67 4.29 0.67 3.57 0.67 3.57 0.67 1.6 2.16-0 4-0 5.84-0 7.33 1.6 7.33 3.57 7.33 3.57 7.33 4.29 7.33 4.29 7.33 4.29 7.33 5 7.33 5 7.33 5 7.33 5.6 7.33 5.6 7.33 5.6 7.97 7.63 7.97 7.63 7.97 7.63 7.96 7.63 7.96 7.63 7.98 7.7 8 7.78 8 7.86ZM 6.04 5.94C 6.02 5.87 6 5.79 6 5.71 6 5.71 6 5 6 5 6 5 6 4.29 6 4.29 6 4.29 6 3.57 6 3.57 6 2.39 5.1 1.43 4 1.43 2.9 1.43 2 2.39 2 3.57 2 3.57 2 4.29 2 4.29 2 4.29 2 5 2 5 2 5 2 5.71 2 5.71 2 5.79 1.98 5.87 1.96 5.94 1.96 5.94 1.97 5.94 1.97 5.94 1.97 5.94 1.59 7.14 1.59 7.14 1.59 7.14 6.41 7.14 6.41 7.14 6.41 7.14 6.03 5.94 6.03 5.94 6.03 5.94 6.04 5.94 6.04 5.94Z" fill="rgb(203,203,203)"/></svg>
