<?xml version="1.0" encoding="utf-8"?>
<svg xmlns="http://www.w3.org/2000/svg"
	xmlns:xlink="http://www.w3.org/1999/xlink"
	width="24px" height="16px" viewBox="0 0 24 16">
<path fillRule="evenodd" d="M 22.27 2.23C 21.31 2.23 20.53 3.03 20.53 4 20.53 4.64 20.86 5.2 21.35 5.51 20.31 6.98 18.84 8.69 17.33 9.19 15.33 9.84 13.47 5.83 12.56 3.45 13.23 3.21 13.73 2.55 13.73 1.77 13.73 0.79 12.95-0 12-0 11.04-0 10.27 0.79 10.27 1.77 10.27 2.55 10.76 3.21 11.44 3.45 10.53 5.83 8.67 9.84 6.67 9.19 5.16 8.69 3.68 6.98 2.64 5.51 3.13 5.2 3.46 4.64 3.46 4 3.46 3.03 2.69 2.23 1.73 2.23 0.78 2.23-0 3.03-0 4-0 4.99 0.78 5.78 1.73 5.78 1.75 5.78 1.76 5.78 1.78 5.78 1.78 5.78 4.12 16 4.12 16 4.12 16 19.88 16 19.88 16 19.88 16 22.22 5.78 22.22 5.78 22.23 5.78 22.25 5.78 22.27 5.78 23.22 5.78 24 4.99 24 4 24 3.03 23.22 2.23 22.27 2.23Z" fill="rgb(242,171,121)"/></svg>
