<svg xmlns="http://www.w3.org/2000/svg" width="32" height="32" viewBox="0 0 32 32">
  <defs>
    <style>
      .cls-1 {
        fill: #efefef;
        fill-rule: evenodd;
      }
    </style>
  </defs>
  <path id="favourite" class="cls-1" d="M1238,147h32v32Zm20.29,14.839c0.81-.4,2.21-1.108,2.21-1.108s1.37,0.685,2.25,1.12c-0.29-.141.73,0.615,0.64-0.434-0.09-1.008-.24-2.629-0.24-2.629s1.01-1.184,1.63-1.924c-0.26.308,0.72-.535-0.19-0.718-0.93-.184-2.58-0.314-2.58-0.314s-0.66-1.613-1.15-2.5c0.23,0.416-.25-0.917-0.74-0.019s-1.19,2.531-1.19,2.531-1.6.133-2.53,0.32c0.36-.073-0.85-0.039-0.23.682s1.67,1.958,1.67,1.958-0.14,1.628-.23,2.636C1257.63,161.175,1257.29,162.34,1258.29,161.839Z" transform="translate(-1238 -147)"/>
</svg>
