<?xml version="1.0" encoding="utf-8"?>
<svg xmlns="http://www.w3.org/2000/svg"
	xmlns:xlink="http://www.w3.org/1999/xlink"
	width="48px" height="43px" viewBox="0 0 48 43">
<path fillRule="evenodd" d="M 45.4 42.64C 45.4 42.64 2.6 42.64 2.6 42.64 1.17 42.64 0 41.46 0 40 0 40 0 37.56 0 37.56 0 37 0.45 36.54 1 36.54 1 36.54 21.52 36.54 21.52 36.54 22.08 36.54 22.52 37 22.52 37.56 22.52 37.56 22.52 38.18 22.52 38.18 22.52 38.18 25.61 38.04 25.61 38.04 25.61 38.04 25.48 37.56 25.48 37.56 25.48 37 25.93 36.54 26.48 36.54 26.48 36.54 47 36.54 47 36.54 47.55 36.54 48 37 48 37.56 48 37.56 48 40 48 40 48 41.46 46.83 42.64 45.4 42.64ZM 46 38.58C 46 38.58 27.44 38.58 27.44 38.58 27.26 39.43 26.51 40.08 25.61 40.08 25.61 40.08 22.39 40.08 22.39 40.08 21.5 40.08 20.74 39.43 20.56 38.58 20.56 38.58 2 38.58 2 38.58 2 38.58 2 40 2 40 2 40.33 2.27 40.61 2.6 40.61 2.6 40.61 45.4 40.61 45.4 40.61 45.73 40.61 46 40.33 46 40 46 40 46 38.58 46 38.58ZM 43.05 34.45C 42.49 34.45 42.05 34 42.05 33.44 42.05 33.44 42.05 10.48 42.05 10.48 42.05 10.23 41.85 10.03 41.61 10.03 41.61 10.03 28.05 10.03 28.05 10.03 27.5 10.03 27.05 9.58 27.05 9.01 27.05 8.45 27.5 8 28.05 8 28.05 8 41.61 8 41.61 8 42.95 8 44.05 9.11 44.05 10.48 44.05 10.48 44.05 33.44 44.05 33.44 44.05 34 43.6 34.45 43.05 34.45ZM 30.75 20.35C 31.14 20.75 31.14 21.39 30.75 21.79 30.75 21.79 24.71 27.92 24.71 27.92 24.62 28.02 24.51 28.09 24.39 28.14 24.27 28.2 24.13 28.22 24 28.22 23.87 28.22 23.74 28.2 23.62 28.14 23.49 28.09 23.38 28.02 23.29 27.92 23.29 27.92 17.25 21.79 17.25 21.79 16.86 21.39 16.86 20.75 17.25 20.35 17.65 19.96 18.28 19.96 18.67 20.35 18.67 20.35 23 24.75 23 24.75 23 24.75 23 1.72 23 1.72 23 1.16 23.45 0.7 24 0.7 24.55 0.7 25 1.16 25 1.72 25 1.72 25 24.75 25 24.75 25 24.75 29.33 20.35 29.33 20.35 29.72 19.96 30.36 19.96 30.75 20.35ZM 19.99 10.03C 19.99 10.03 6.39 10.03 6.39 10.03 6.15 10.03 5.95 10.23 5.95 10.48 5.95 10.48 5.95 33.44 5.95 33.44 5.95 34 5.51 34.45 4.95 34.45 4.4 34.45 3.95 34 3.95 33.44 3.95 33.44 3.95 10.48 3.95 10.48 3.95 9.11 5.05 8 6.39 8 6.39 8 19.99 8 19.99 8 20.55 8 20.99 8.45 20.99 9.01 20.99 9.58 20.55 10.03 19.99 10.03Z" fill="rgb(203,203,203)"/></svg>
