<?xml version="1.0" encoding="utf-8"?>
<svg xmlns="http://www.w3.org/2000/svg"
	xmlns:xlink="http://www.w3.org/1999/xlink"
	width="48px" height="49px" viewBox="0 0 48 49">
<path fillRule="evenodd" d="M 45.81 42.22C 45.81 42.22 34.06 47.61 34.06 47.61 33.07 48.06 31.16 48.41 28.65 48.41 24.87 48.41 19.73 47.62 14.4 45.22 13.42 44.78 11.39 45.34 10.05 45.71 10.05 45.71 10.02 45.71 10.02 45.71 10.02 45.71 10.02 47.86 10.02 47.86 10.02 48.41 9.57 48.87 9.02 48.87 9.02 48.87 0.99 48.87 0.99 48.87 0.43 48.87-0.02 48.41-0.02 47.86-0.02 47.86-0.02 33.72-0.02 33.72-0.02 33.16 0.43 32.71 0.99 32.71 0.99 32.71 9.02 32.71 9.02 32.71 9.57 32.71 10.02 33.16 10.02 33.72 10.02 33.72 10.02 34.92 10.02 34.92 15.24 34.22 20.34 34.52 22.19 35.07 22.19 35.07 33.3 38.34 33.3 38.34 34.04 38.56 34.6 38.95 35 39.43 35 39.43 42.83 35.84 42.83 35.84 44.05 35.28 45.33 35.37 46.33 36.09 47.38 36.83 47.97 38.15 47.84 39.44 47.73 40.67 46.98 41.68 45.81 42.22ZM 8.01 34.73C 8.01 34.73 1.99 34.73 1.99 34.73 1.99 34.73 1.99 46.85 1.99 46.85 1.99 46.85 8.01 46.85 8.01 46.85 8.01 46.85 8.01 34.73 8.01 34.73ZM 45.17 37.73C 44.74 37.43 44.24 37.41 43.66 37.67 43.66 37.67 35.78 41.29 35.78 41.29 35.82 41.77 35.78 42.26 35.65 42.72 35.39 43.59 34.86 44.32 34.15 44.77 33.62 45.11 33.02 45.28 32.4 45.28 32.04 45.28 31.69 45.22 31.33 45.12 31.33 45.12 19.66 41.67 19.66 41.67 19.13 41.52 18.83 40.95 18.98 40.42 19.14 39.88 19.7 39.58 20.23 39.73 20.23 39.73 31.89 43.18 31.89 43.18 32.35 43.31 32.74 43.28 33.07 43.07 33.37 42.88 33.61 42.54 33.72 42.15 33.81 41.85 33.81 41.5 33.71 41.17 33.7 41.16 33.69 41.15 33.69 41.14 33.67 41.11 33.67 41.07 33.66 41.04 33.51 40.71 33.23 40.43 32.73 40.28 32.73 40.28 21.63 37 21.63 37 20.16 36.57 15.15 36.23 10.02 36.95 10.02 36.95 10.02 43.62 10.02 43.62 11.73 43.16 13.73 42.71 15.22 43.38 24.06 47.36 31.62 46.51 33.23 45.77 33.23 45.77 44.98 40.39 44.98 40.39 45.5 40.14 45.8 39.76 45.85 39.25 45.9 38.68 45.62 38.06 45.17 37.73ZM 31.03 32.2C 26.05 32.2 22 28.13 22 23.11 22 21.55 22.43 20.1 23.12 18.81 19.11 17.84 16.15 14.24 16.15 10 16.15 4.98 20.21 0.91 25.19 0.91 30.17 0.91 34.22 4.98 34.22 10 34.22 11.49 33.85 13 33.18 14.31 37.13 15.29 40.07 18.85 40.07 23.11 40.07 28.13 36.01 32.2 31.03 32.2ZM 25.19 2.93C 21.31 2.93 18.16 6.1 18.16 10 18.16 13.57 20.87 16.55 24.4 16.99 26.05 15.18 28.39 14.03 31.01 14.02 31.77 12.87 32.22 11.44 32.22 10 32.22 6.1 29.06 2.93 25.19 2.93ZM 31.03 16.04C 27.16 16.04 24 19.21 24 23.11 24 27.01 27.16 30.18 31.03 30.18 34.91 30.18 38.06 27.01 38.06 23.11 38.06 19.21 34.91 16.04 31.03 16.04Z" fill="rgb(203,203,203)"/></svg>
