<?xml version="1.0" encoding="utf-8"?>
<svg xmlns="http://www.w3.org/2000/svg"
	xmlns:xlink="http://www.w3.org/1999/xlink"
	width="43px" height="48px" viewBox="0 0 43 48">
<path fillRule="evenodd" d="M 40.02 30.02C 42.1 37.63 36.69 40.93 35.09 41.72 34.23 44.43 32.75 46.29 30.64 47.19 29.59 47.64 28.5 47.81 27.43 47.81 24.92 47.81 22.63 46.86 21.68 46.41 19.74 47.43 17.76 47.98 15.92 47.98 14.93 47.98 13.99 47.83 13.12 47.52 10.99 46.76 9.37 45.09 8.42 42.7 8.4 42.65 8.4 42.61 8.38 42.56 3.98 38.26 2.08 34.23 2.76 30.57 2.83 30.24 2.91 29.92 3.01 29.61 1.3 27.4 0.52 25.12 0.79 22.82 1.18 19.52 3.53 17.22 4.46 16.43 4.96 10.74 8.36 9 9.84 8.51 10.86 4.65 12.62 2.18 15.06 1.18 17.84 0.03 20.58 1.16 21.69 1.73 22.83 1.16 25.75-0.01 28.6 1.24 30.98 2.29 32.64 4.73 33.54 8.52 35.03 9.01 38.42 10.77 38.9 16.46 39.78 17.27 42.04 19.7 42.35 23.1 42.57 25.47 41.76 27.8 40.02 30.02ZM 20.69 3.46C 19.79 3.02 17.73 2.23 15.79 3.04 14.04 3.76 12.73 5.63 11.87 8.59 12.43 8.79 13.08 9.15 13.66 9.8 14.6 10.88 15.02 12.39 14.88 14.3 14.84 14.82 14.41 15.23 13.9 15.23 13.87 15.23 13.85 15.23 13.83 15.22 13.28 15.18 12.87 14.7 12.91 14.15 13.01 12.81 12.76 11.79 12.18 11.14 11.61 10.48 10.86 10.36 10.69 10.34 10.07 10.48 6.72 11.46 6.4 17 6.38 17.3 6.23 17.57 5.99 17.75 5.96 17.77 3.12 19.9 2.75 23.07 2.58 24.56 3.01 26.07 3.98 27.59 5.87 24.68 9.08 23.32 9.26 23.25 9.76 23.04 10.34 23.29 10.54 23.8 10.75 24.31 10.51 24.89 10 25.1 9.96 25.12 5.42 27.05 4.7 30.96 4.25 33.38 5.34 36.12 7.89 39.13 8.05 37.41 8.76 36.28 8.8 36.21 9.1 35.74 9.71 35.62 10.17 35.92 10.63 36.23 10.75 36.85 10.45 37.31 10.41 37.38 9.22 39.34 10.25 41.95 10.99 43.82 12.18 45.06 13.78 45.63 15.73 46.32 18.22 45.98 20.69 44.69 20.69 44.69 20.69 3.46 20.69 3.46ZM 40.39 23.3C 40.09 20.02 37.36 17.74 37.33 17.72 37.11 17.54 36.98 17.28 36.96 17 36.61 10.94 32.62 10.33 32.58 10.32 32.16 10.26 31.83 9.95 31.74 9.53 31.02 6.09 29.7 3.91 27.83 3.08 25.84 2.2 23.62 3.02 22.67 3.47 22.67 3.47 22.67 17.79 22.67 17.79 24.33 17.05 27.09 16.17 29.48 16.99 29.97 15.6 30.69 14.48 31.28 13.73 31.63 13.3 32.25 13.24 32.67 13.58 33.1 13.93 33.16 14.56 32.82 14.99 31.8 16.28 30.23 18.94 31.24 22.21 31.4 22.73 31.11 23.3 30.6 23.46 30.5 23.49 30.4 23.51 30.3 23.51 29.88 23.51 29.49 23.23 29.36 22.81 28.93 21.43 28.88 20.16 29.02 19 26.81 18.07 23.8 19.42 22.67 20.01 22.67 20.01 22.67 44.66 22.67 44.66 23.93 45.23 27.23 46.48 29.88 45.34 31.53 44.63 32.71 43.07 33.37 40.7 34.12 38.03 33.46 36.14 31.56 35.5 29.87 34.93 27.81 35.59 27.34 36.86 27.14 37.38 26.57 37.63 26.06 37.44 25.55 37.24 25.3 36.66 25.49 36.15 26.34 33.88 29.46 32.68 32.18 33.59 34.08 34.23 35.76 36 35.61 39.08 37.14 37.93 39.09 35.62 38.37 31.58 36.57 32.63 34.38 32.22 32.13 30.29 31.71 29.94 31.66 29.31 32.01 28.88 32.36 28.46 32.98 28.4 33.4 28.76 36.38 31.31 37.75 29.69 38.2 29.16 39.83 27.24 40.56 25.26 40.39 23.3ZM 14.84 40.27C 13.62 39.03 13.06 37.67 13.17 36.23 13.37 33.58 15.82 31.73 15.92 31.66 16.36 31.33 16.98 31.42 17.3 31.87 17.62 32.31 17.53 32.94 17.09 33.27 17.07 33.28 15.26 34.67 15.14 36.39 15.08 37.23 15.44 38.04 16.24 38.85 16.62 39.24 16.62 39.88 16.24 40.27 16.05 40.46 15.79 40.56 15.54 40.56 15.29 40.56 15.04 40.46 14.84 40.27ZM 17.1 26.53C 16.58 26.38 16.28 25.82 16.43 25.29 17.58 21.22 12.75 18.86 12.7 18.83 12.21 18.6 12 18 12.23 17.5 12.46 17 13.05 16.79 13.54 17.02 15.76 18.08 19.62 21.29 18.33 25.84 18.2 26.28 17.81 26.57 17.38 26.57 17.29 26.57 17.19 26.56 17.1 26.53Z" fill="rgb(203,203,203)"/></svg>
