<?xml version="1.0" encoding="utf-8"?>
<svg xmlns="http://www.w3.org/2000/svg"
	xmlns:xlink="http://www.w3.org/1999/xlink"
	width="14px" height="14px" viewBox="0 0 14 14">
<path fillRule="evenodd" d="M 14 2.62C 14 2.87 13.9 3.09 13.74 3.24 13.74 3.24 13.74 3.24 13.74 3.24 13.74 3.24 12.61 4.37 12.61 4.37 12.61 4.37 9.62 1.39 9.62 1.39 9.62 1.39 10.76 0.26 10.76 0.26 10.76 0.26 10.76 0.26 10.76 0.26 10.91 0.1 11.13-0 11.37-0 11.62-0 11.84 0.1 11.99 0.26 11.99 0.26 11.99 0.26 11.99 0.26 11.99 0.26 13.74 2.01 13.74 2.01 13.74 2.01 13.74 2.01 13.74 2.01 13.9 2.16 14 2.38 14 2.62ZM 8.39 2.62C 8.39 2.62 11.37 5.61 11.37 5.61 11.37 5.61 3.24 13.74 3.24 13.74 3.24 13.74 3.24 13.74 3.24 13.74 3.09 13.9 2.87 14 2.62 14 2.62 14 0.87 14 0.87 14 0.39 14-0 13.61-0 13.12-0 13.12-0 11.37-0 11.37-0 11.13 0.1 10.91 0.26 10.76 0.26 10.76 0.26 10.76 0.26 10.76 0.26 10.76 8.39 2.62 8.39 2.62Z" fill="rgb(152,152,152)"/></svg>
