<?xml version="1.0" encoding="utf-8"?>
<svg xmlns="http://www.w3.org/2000/svg"
	xmlns:xlink="http://www.w3.org/1999/xlink"
	width="13px" height="14px" viewBox="0 0 13 14">
<path fillRule="evenodd" d="M 12.48 12.03C 12.48 12.03 12.49 12.03 12.49 12.03 12.49 12.03 8.77 13.9 8.77 13.9 8.77 13.9 8.77 13.89 8.77 13.89 8.77 13.89 8.77 13.89 8.77 13.89 8.64 13.96 8.51 14 8.36 14 8.36 14 8.36 14 8.36 14 8.21 14 8.07 13.96 7.95 13.89 7.95 13.89 7.94 13.9 7.94 13.9 7.94 13.9 4.64 12.24 4.64 12.24 4.64 12.24 1.34 13.9 1.34 13.9 1.34 13.9 1.34 13.89 1.34 13.89 1.21 13.96 1.08 14 0.93 14 0.42 14-0 13.58-0 13.07-0 13.07-0 2.8-0 2.8-0 2.43 0.21 2.13 0.52 1.97 0.52 1.97 0.51 1.96 0.51 1.96 0.51 1.96 4.23 0.1 4.23 0.1 4.23 0.1 4.23 0.11 4.23 0.11 4.36 0.04 4.49-0 4.64-0 4.64-0 4.64-0 4.64-0 4.79-0 4.93 0.04 5.05 0.11 5.05 0.11 5.06 0.1 5.06 0.1 5.06 0.1 8.36 1.76 8.36 1.76 8.36 1.76 11.66 0.1 11.66 0.1 11.66 0.1 11.66 0.11 11.66 0.11 11.79 0.04 11.92-0 12.07-0 12.58-0 13 0.42 13 0.93 13 0.93 13 11.2 13 11.2 13 11.56 12.79 11.87 12.48 12.03ZM 3.71 2.44C 3.71 2.44 1.86 3.38 1.86 3.38 1.86 3.38 1.86 11.56 1.86 11.56 1.86 11.56 3.71 10.62 3.71 10.62 3.71 10.62 3.71 2.44 3.71 2.44ZM 5.57 10.62C 5.57 10.62 7.43 11.56 7.43 11.56 7.43 11.56 7.43 3.38 7.43 3.38 7.43 3.38 5.57 2.44 5.57 2.44 5.57 2.44 5.57 10.62 5.57 10.62ZM 11.14 2.44C 11.14 2.44 9.29 3.38 9.29 3.38 9.29 3.38 9.29 11.56 9.29 11.56 9.29 11.56 11.14 10.62 11.14 10.62 11.14 10.62 11.14 2.44 11.14 2.44Z" fill="rgb(153,153,153)"/></svg>
