<?xml version="1.0" encoding="utf-8"?>
<svg xmlns="http://www.w3.org/2000/svg"
	xmlns:xlink="http://www.w3.org/1999/xlink"
	width="14px" height="14px" viewBox="0 0 14 14">
<path fillRule="evenodd" d="M 13.72 7C 13.72 7 13.54 7 13.22 7 13.02 7 12.76 7 12.44 7 12.44 7 12.44 7.22 12.44 7.22 12.67 7.08 12.94 7 13.22 7 13.22 7 12.44 7.78 12.44 7.78 12.44 7.78 12.44 8.56 12.44 8.56 12.44 8.56 12.44 12.44 12.44 12.44 12.44 13.3 11.75 14 10.89 14 10.89 14 10.11 14 10.11 14 9.25 14 8.56 13.3 8.56 12.44 8.56 12.44 8.56 10.11 8.56 10.11 8.56 9.25 7.86 8.56 7 8.56 6.14 8.56 5.44 9.25 5.44 10.11 5.44 10.11 5.44 12.44 5.44 12.44 5.44 13.3 4.75 14 3.89 14 3.89 14 3.11 14 3.11 14 2.25 14 1.56 13.3 1.56 12.44 1.56 12.44 1.56 8.56 1.56 8.56 1.56 8.56 1.56 7.78 1.56 7.78 1.56 7.78 0.78 7 0.78 7 1.06 7 1.33 7.08 1.56 7.22 1.56 7.22 1.56 7 1.56 7 1.25 7 0.98 7 0.78 7 0.46 7 0.28 7 0.28 7-0.13 6.38-0.07 5.58 0.53 5.05 0.53 5.05 5.71 0.47 5.71 0.47 6.42-0.16 7.58-0.16 8.29 0.47 8.29 0.47 13.47 5.05 13.47 5.05 14.07 5.58 14.13 6.38 13.72 7Z" fill="rgb(152,152,152)"/></svg>
