<?xml version="1.0" encoding="utf-8"?>
<svg xmlns="http://www.w3.org/2000/svg"
	xmlns:xlink="http://www.w3.org/1999/xlink"
	width="12px" height="14px" viewBox="0 0 12 14">
<path fillRule="evenodd" d="M 10.29 14C 10.29 14 9.43 14 9.43 14 9.43 14 9.43 14 9.43 14 9.43 14 2.57 14 2.57 14 2.57 14 2.57 14 2.57 14 2.57 14 1.71 14 1.71 14 0.77 14-0 13.22-0 12.25-0 12.25-0 2.62-0 2.62-0 1.66 0.77 0.87 1.71 0.87 1.71 0.87 2.57 0.87 2.57 0.87 2.57 0.87 3.43 0.87 3.43 0.87 3.43 0.76 3.45 0.66 3.49 0.57 3.5 0.54 3.51 0.51 3.53 0.49 3.56 0.42 3.6 0.36 3.65 0.3 3.67 0.28 3.69 0.26 3.71 0.24 3.78 0.17 3.86 0.11 3.95 0.07 4.05 0.02 4.17-0 4.29-0 4.29-0 5.14-0 5.14-0 5.14-0 6.86-0 6.86-0 6.86-0 7.71-0 7.71-0 7.83-0 7.95 0.02 8.05 0.07 8.14 0.11 8.22 0.17 8.29 0.24 8.31 0.26 8.33 0.28 8.35 0.3 8.4 0.36 8.44 0.42 8.47 0.49 8.49 0.51 8.5 0.54 8.51 0.57 8.55 0.66 8.57 0.76 8.57 0.87 8.57 0.87 9.43 0.87 9.43 0.87 9.43 0.87 10.29 0.87 10.29 0.87 11.23 0.87 12 1.66 12 2.62 12 2.62 12 12.25 12 12.25 12 13.22 11.23 14 10.29 14ZM 10.29 10.5C 10.29 10.5 10.29 7 10.29 7 10.29 7 10.29 5.25 10.29 5.25 10.29 5.25 10.29 3.5 10.29 3.5 10.29 3.02 9.9 2.62 9.43 2.62 9.43 2.62 8.57 2.62 8.57 2.62 8.57 3.11 8.19 3.5 7.71 3.5 7.71 3.5 4.29 3.5 4.29 3.5 3.81 3.5 3.43 3.11 3.43 2.62 3.43 2.62 2.57 2.62 2.57 2.62 2.1 2.62 1.71 3.02 1.71 3.5 1.71 3.5 1.71 5.25 1.71 5.25 1.71 5.25 1.71 7 1.71 7 1.71 7 1.71 10.5 1.71 10.5 1.71 10.5 1.71 11.37 1.71 11.37 1.71 11.86 2.1 12.25 2.57 12.25 2.57 12.25 9.43 12.25 9.43 12.25 9.9 12.25 10.29 11.86 10.29 11.37 10.29 11.37 10.29 10.5 10.29 10.5ZM 7.71 10.5C 7.24 10.5 6.86 10.11 6.86 9.62 6.86 9.14 7.24 8.75 7.71 8.75 8.19 8.75 8.57 9.14 8.57 9.62 8.57 10.11 8.19 10.5 7.71 10.5ZM 7.71 7C 7.71 7 4.29 7 4.29 7 3.81 7 3.43 6.61 3.43 6.12 3.43 5.64 3.81 5.25 4.29 5.25 4.29 5.25 7.71 5.25 7.71 5.25 8.19 5.25 8.57 5.64 8.57 6.12 8.57 6.61 8.19 7 7.71 7ZM 4.29 8.75C 4.29 8.75 5.14 8.75 5.14 8.75 5.62 8.75 6 9.14 6 9.62 6 10.11 5.62 10.5 5.14 10.5 5.14 10.5 4.29 10.5 4.29 10.5 3.81 10.5 3.43 10.11 3.43 9.62 3.43 9.14 3.81 8.75 4.29 8.75Z" fill="rgb(152,152,152)"/></svg>
