<?xml version="1.0" encoding="utf-8"?>
<svg xmlns="http://www.w3.org/2000/svg"
	xmlns:xlink="http://www.w3.org/1999/xlink"
	width="10px" height="13px" viewBox="0 0 10 13">
<path fillRule="evenodd" d="M 5 9.75C 2.24 9.75-0 7.57-0 4.87-0 2.18 2.24-0 5-0 7.76-0 10 2.18 10 4.87 10 7.57 7.76 9.75 5 9.75ZM 5 1.62C 3.16 1.62 1.67 3.08 1.67 4.87 1.67 6.67 3.16 8.12 5 8.12 6.84 8.12 8.33 6.67 8.33 4.87 8.33 3.08 6.84 1.62 5 1.62ZM 5 7.31C 3.62 7.31 2.5 6.22 2.5 4.87 2.5 3.53 3.62 2.44 5 2.44 6.38 2.44 7.5 3.53 7.5 4.87 7.5 6.22 6.38 7.31 5 7.31ZM 8.33 9.54C 8.33 9.54 8.33 12.19 8.33 12.19 8.33 12.64 7.96 13 7.5 13 7.27 13 7.06 12.91 6.91 12.76 6.91 12.76 6.91 12.76 6.91 12.76 6.91 12.76 5 10.9 5 10.9 5 10.9 3.09 12.76 3.09 12.76 3.09 12.76 3.09 12.76 3.09 12.76 3.01 12.83 2.92 12.89 2.82 12.94 2.72 12.98 2.61 13 2.5 13 2.27 13 2.06 12.91 1.91 12.76 1.84 12.69 1.77 12.6 1.73 12.5 1.69 12.41 1.67 12.3 1.67 12.19 1.67 12.19 1.67 9.54 1.67 9.54 2.61 10.18 3.76 10.56 5 10.56 6.24 10.56 7.39 10.18 8.33 9.54Z" fill="rgb(153,153,153)"/></svg>
