<?xml version="1.0" encoding="utf-8"?>
<svg xmlns="http://www.w3.org/2000/svg"
	xmlns:xlink="http://www.w3.org/1999/xlink"
	width="12px" height="12px" viewBox="0 0 12 12">
<path fillRule="evenodd" d="M 11 12C 11 12 10 12 10 12 10 12 10 11 10 11 10.41 11 11 10.41 11 10 11 10 12 10 12 10 12 10 12 11 12 11 12 11.83 11.83 12 11 12ZM 11 7C 11 7 12 7 12 7 12 7 12 8 12 8 12 8 11 8 11 8 11 8 11 7 11 7ZM 11 4C 11 4 12 4 12 4 12 4 12 5 12 5 12 5 11 5 11 5 11 5 11 4 11 4ZM 10 1C 10 1 10-0 10-0 10-0 11-0 11-0 11.83-0 12 0.17 12 1 12 1 12 2 12 2 12 2 11 2 11 2 11 1.59 10.41 1 10 1ZM 7 11C 7 11 8 11 8 11 8 11 8 12 8 12 8 12 7 12 7 12 7 12 7 11 7 11ZM 7-0C 7-0 8-0 8-0 8-0 8 1 8 1 8 1 7 1 7 1 7 1 7-0 7-0ZM 8 5C 8.41 5 9 5.59 9 6 9 6.41 8.41 7 8 7 8 7 7 7 7 7 7 7 7 8 7 8 7 8.41 6.41 9 6 9 5.59 9 5 8.41 5 8 5 8 5 7 5 7 5 7 4 7 4 7 3.59 7 3 6.41 3 6 3 5.59 3.59 5 4 5 4 5 5 5 5 5 5 5 5 4 5 4 5 3.59 5.59 3 6 3 6.41 3 7 3.59 7 4 7 4 7 5 7 5 7 5 8 5 8 5ZM 4-0C 4-0 5-0 5-0 5-0 5 1 5 1 5 1 4 1 4 1 4 1 4-0 4-0ZM-0 11C-0 11-0 10-0 10-0 10 1 10 1 10 1 10.41 1.59 11 2 11 2 11 2 12 2 12 2 12 1 12 1 12 0.17 12-0 11.83-0 11ZM 1 2C 1 2-0 2-0 2-0 2-0 1-0 1-0 0.17 0.17-0 1-0 1-0 2-0 2-0 2-0 2 1 2 1 1.59 1 1 1.59 1 2ZM 1 5C 1 5-0 5-0 5-0 5-0 4-0 4-0 4 1 4 1 4 1 4 1 5 1 5ZM 1 8C 1 8-0 8-0 8-0 8-0 7-0 7-0 7 1 7 1 7 1 7 1 8 1 8ZM 5 12C 5 12 4 12 4 12 4 12 4 11 4 11 4 11 5 11 5 11 5 11 5 12 5 12Z" fill="rgb(50,50,50)"/></svg>
