<?xml version="1.0" encoding="utf-8"?>
<svg xmlns="http://www.w3.org/2000/svg"
	xmlns:xlink="http://www.w3.org/1999/xlink"
	width="31px" height="25px" viewBox="0 0 31 25">
<path fillRule="evenodd" d="M 30.5 25C 30.5 25 0.5 25 0.5 25 0.22 25-0 24.77-0 24.5-0 24.5-0 0.49-0 0.49-0 0.22 0.22-0 0.5-0 0.5-0 30.5-0 30.5-0 30.78-0 31 0.22 31 0.49 31 0.49 31 24.5 31 24.5 31 24.77 30.78 25 30.5 25ZM 30 0.99C 30 0.99 1 0.99 1 0.99 1 0.99 1 24 1 24 1 24 30 24 30 24 30 24 30 0.99 30 0.99ZM 23.17 16.69C 23.45 16.69 23.67 16.91 23.67 17.18 23.67 17.46 23.45 17.68 23.17 17.68 23.17 17.68 19.5 17.68 19.5 17.68 19.22 17.68 19 17.46 19 17.18 19 16.91 19.22 16.69 19.5 16.69 19.5 16.69 23.17 16.69 23.17 16.69ZM 18 17.18C 18 18.56 16.88 19.68 15.5 19.68 14.12 19.68 13 18.56 13 17.18 13 15.81 14.12 14.69 15.5 14.69 16.88 14.69 18 15.81 18 17.18ZM 14 17.18C 14 18.01 14.67 18.68 15.5 18.68 16.33 18.68 17 18.01 17 17.18 17 16.36 16.33 15.69 15.5 15.69 14.67 15.69 14 16.36 14 17.18ZM 7.83 16.69C 7.83 16.69 11.5 16.69 11.5 16.69 11.78 16.69 12 16.91 12 17.18 12 17.46 11.78 17.68 11.5 17.68 11.5 17.68 7.83 17.68 7.83 17.68 7.55 17.68 7.33 17.46 7.33 17.18 7.33 16.91 7.55 16.69 7.83 16.69ZM 7.83 12.03C 7.83 12.03 23.17 12.03 23.17 12.03 23.45 12.03 23.67 12.26 23.67 12.53 23.67 12.81 23.45 13.03 23.17 13.03 23.17 13.03 7.83 13.03 7.83 13.03 7.55 13.03 7.33 12.81 7.33 12.53 7.33 12.26 7.55 12.03 7.83 12.03ZM 19.77 8.18C 19.77 8.18 18.61 6.69 18.61 6.69 18.61 6.69 17.45 8.18 17.45 8.18 17.36 8.3 17.21 8.38 17.06 8.38 16.9 8.38 16.76 8.3 16.66 8.18 16.66 8.18 15.5 6.69 15.5 6.69 15.5 6.69 14.34 8.18 14.34 8.18 14.24 8.3 14.1 8.38 13.94 8.38 13.79 8.38 13.64 8.3 13.55 8.18 13.55 8.18 12.39 6.69 12.39 6.69 12.39 6.69 11.23 8.18 11.23 8.18 11.13 8.31 10.98 8.38 10.83 8.38 10.73 8.38 10.62 8.34 10.53 8.27 10.31 8.1 10.27 7.79 10.44 7.57 10.44 7.57 11.99 5.58 11.99 5.58 12.09 5.46 12.23 5.38 12.39 5.38 12.54 5.38 12.69 5.46 12.78 5.58 12.78 5.58 13.94 7.06 13.94 7.06 13.94 7.06 15.11 5.58 15.11 5.58 15.2 5.46 15.35 5.38 15.5 5.38 15.65 5.38 15.8 5.46 15.89 5.58 15.89 5.58 17.06 7.06 17.06 7.06 17.06 7.06 18.22 5.58 18.22 5.58 18.31 5.46 18.46 5.38 18.61 5.38 18.77 5.38 18.91 5.46 19.01 5.58 19.01 5.58 20.56 7.57 20.56 7.57 20.73 7.79 20.69 8.1 20.47 8.27 20.26 8.44 19.94 8.4 19.77 8.18ZM 25.67 10.54C 25.67 10.81 25.45 11.03 25.17 11.03 25.17 11.03 5.83 11.03 5.83 11.03 5.55 11.03 5.33 10.81 5.33 10.54 5.33 10.26 5.55 10.04 5.83 10.04 5.83 10.04 25.17 10.04 25.17 10.04 25.45 10.04 25.67 10.26 25.67 10.54ZM 2.5 4.47C 3.59 4.47 4.48 3.58 4.48 2.49 4.48 2.21 4.71 1.99 4.98 1.99 4.98 1.99 21.17 1.99 21.17 1.99 21.45 1.99 21.67 2.21 21.67 2.49 21.67 2.76 21.45 2.99 21.17 2.99 21.17 2.99 5.44 2.99 5.44 2.99 5.23 4.23 4.24 5.21 3 5.42 3 5.42 3 19.57 3 19.57 4.24 19.78 5.23 20.76 5.44 22 5.44 22 25.56 22 25.56 22 25.77 20.76 26.75 19.78 28 19.57 28 19.57 28 5.42 28 5.42 26.75 5.21 25.77 4.23 25.56 2.99 25.56 2.99 23.17 2.99 23.17 2.99 22.9 2.99 22.67 2.76 22.67 2.49 22.67 2.21 22.9 1.99 23.17 1.99 23.17 1.99 26.02 1.99 26.02 1.99 26.29 1.99 26.52 2.21 26.52 2.49 26.52 3.58 27.41 4.47 28.5 4.47 28.78 4.47 29 4.69 29 4.97 29 4.97 29 20.03 29 20.03 29 20.3 28.78 20.52 28.5 20.52 27.41 20.52 26.52 21.41 26.52 22.5 26.52 22.78 26.29 23 26.02 23 26.02 23 4.98 23 4.98 23 4.71 23 4.48 22.78 4.48 22.5 4.48 21.41 3.59 20.52 2.5 20.52 2.22 20.52 2 20.3 2 20.03 2 20.03 2 4.97 2 4.97 2 4.69 2.22 4.47 2.5 4.47Z" fill="rgb(63,178,53)"/></svg>
