<?xml version="1.0" encoding="utf-8"?>
<svg xmlns="http://www.w3.org/2000/svg"
	xmlns:xlink="http://www.w3.org/1999/xlink"
	width="31px" height="32px" viewBox="0 0 31 32">
<path fillRule="evenodd" d="M 30.67 6.34C 30.67 6.34 26.39 8.47 26.39 8.47 26.34 8.53 26.29 8.53 26.18 8.53 26.18 8.53 23.4 8.53 23.4 8.53 23.46 8.69 23.51 8.85 23.51 9.06 23.51 9.06 23.51 10.13 23.51 10.13 23.51 12.58 22.23 14.45 21.21 15.46 21.21 15.46 22.44 15.46 22.44 15.46 22.76 15.46 22.98 15.67 22.98 15.99 22.98 15.99 22.98 19.2 22.98 19.2 22.98 19.51 22.76 19.73 22.44 19.73 22.44 19.73 21.91 19.73 21.91 19.73 21.91 19.73 21.91 32 21.91 32 21.91 32 20.84 32 20.84 32 20.84 32 20.84 19.73 20.84 19.73 20.84 19.73 9.63 19.73 9.63 19.73 9.63 19.73 9.63 32 9.63 32 9.63 32 8.56 32 8.56 32 8.56 32 8.56 19.73 8.56 19.73 8.56 19.73 7.49 19.73 7.49 19.73 7.17 19.73 6.96 19.51 6.96 19.2 6.96 19.2 6.96 15.99 6.96 15.99 6.96 15.67 7.17 15.46 7.49 15.46 7.49 15.46 8.02 15.46 8.02 15.46 8.02 15.46 8.02 8.53 8.02 8.53 8.02 8.53 0.55 8.53 0.55 8.53 0.23 8.53 0.01 8.31 0.01 7.99 0.01 7.99 0.01 3.73 0.01 3.73 0.01 3.41 0.23 3.19 0.55 3.19 0.55 3.19 8.02 3.19 8.02 3.19 8.02 3.19 8.02 1.59 8.02 1.59 8.02 0.69 8.72-0.01 9.63-0.01 9.63-0.01 10.69-0.01 10.69-0.01 11.12-0.01 11.49 0.1 11.76 0.37 12.03 0.16 12.4-0.01 12.83-0.01 12.83-0.01 13.9-0.01 13.9-0.01 14.32-0.01 14.7 0.1 14.97 0.37 15.23 0.16 15.61-0.01 16.03-0.01 16.03-0.01 17.1-0.01 17.1-0.01 17.53-0.01 17.9 0.1 18.17 0.37 18.44 0.16 18.81-0.01 19.24-0.01 19.24-0.01 20.31-0.01 20.31-0.01 21.21-0.01 21.91 0.69 21.91 1.59 21.91 1.59 21.91 3.19 21.91 3.19 21.91 3.19 26.18 3.19 26.18 3.19 26.29 3.19 26.34 3.19 26.39 3.25 26.39 3.25 30.67 5.38 30.67 5.38 30.83 5.49 30.99 5.65 30.99 5.86 30.99 6.07 30.88 6.24 30.67 6.34ZM 3.75 4.26C 3.75 4.26 1.08 4.26 1.08 4.26 1.08 4.26 1.08 7.46 1.08 7.46 1.08 7.46 3.75 7.46 3.75 7.46 3.75 7.46 3.75 4.26 3.75 4.26ZM 8.02 4.26C 8.02 4.26 4.82 4.26 4.82 4.26 4.82 4.26 4.82 5.33 4.82 5.33 4.82 5.33 8.02 5.33 8.02 5.33 8.02 5.33 8.02 4.26 8.02 4.26ZM 8.02 6.4C 8.02 6.4 4.82 6.4 4.82 6.4 4.82 6.4 4.82 7.46 4.82 7.46 4.82 7.46 8.02 7.46 8.02 7.46 8.02 7.46 8.02 6.4 8.02 6.4ZM 8.02 16.53C 8.02 16.53 8.02 18.66 8.02 18.66 8.02 18.66 9.09 18.66 9.09 18.66 9.09 18.66 21.37 18.66 21.37 18.66 21.37 18.66 21.91 18.66 21.91 18.66 21.91 18.66 21.91 16.53 21.91 16.53 21.91 16.53 19.77 16.53 19.77 16.53 19.77 16.53 8.56 16.53 8.56 16.53 8.56 16.53 8.02 16.53 8.02 16.53ZM 11.23 1.59C 11.23 1.27 11.01 1.06 10.69 1.06 10.69 1.06 9.63 1.06 9.63 1.06 9.31 1.06 9.09 1.27 9.09 1.59 9.09 1.59 9.09 8.53 9.09 8.53 9.09 8.85 9.31 9.06 9.63 9.06 9.63 9.06 10.69 9.06 10.69 9.06 11.01 9.06 11.23 8.85 11.23 8.53 11.23 8.53 11.23 1.59 11.23 1.59ZM 10.69 10.13C 10.69 10.13 9.63 10.13 9.63 10.13 9.41 10.13 9.25 10.08 9.09 10.02 9.09 10.02 9.09 15.46 9.09 15.46 9.09 15.46 19.61 15.46 19.61 15.46 20.09 15.14 21.64 13.81 22.23 11.68 22.12 11.73 22.01 11.73 21.91 11.73 21.91 11.73 14.97 11.73 14.97 11.73 14.06 11.73 13.36 11.03 13.36 10.13 13.36 10.13 12.83 10.13 12.83 10.13 12.4 10.13 12.03 10.02 11.76 9.75 11.49 9.97 11.12 10.13 10.69 10.13ZM 14.43 6.4C 14.43 6.4 14.43 1.59 14.43 1.59 14.43 1.27 14.22 1.06 13.9 1.06 13.9 1.06 12.83 1.06 12.83 1.06 12.51 1.06 12.3 1.27 12.3 1.59 12.3 1.59 12.3 8.53 12.3 8.53 12.3 8.85 12.51 9.06 12.83 9.06 12.83 9.06 13.36 9.06 13.36 9.06 13.36 8.37 13.79 7.78 14.43 7.57 14.43 7.57 14.43 6.4 14.43 6.4ZM 17.64 6.4C 17.64 6.4 17.64 1.59 17.64 1.59 17.64 1.27 17.42 1.06 17.1 1.06 17.1 1.06 16.03 1.06 16.03 1.06 15.71 1.06 15.5 1.27 15.5 1.59 15.5 1.59 15.5 6.4 15.5 6.4 15.5 6.4 15.5 7.46 15.5 7.46 15.5 7.46 17.64 7.46 17.64 7.46 17.64 7.46 17.64 6.4 17.64 6.4ZM 20.84 1.59C 20.84 1.27 20.63 1.06 20.31 1.06 20.31 1.06 19.24 1.06 19.24 1.06 18.92 1.06 18.7 1.27 18.7 1.59 18.7 1.59 18.7 6.4 18.7 6.4 18.7 6.4 18.7 7.46 18.7 7.46 18.7 7.46 20.84 7.46 20.84 7.46 20.84 7.46 20.84 1.59 20.84 1.59ZM 21.37 8.53C 21.37 8.53 20.84 8.53 20.84 8.53 20.84 8.53 14.97 8.53 14.97 8.53 14.65 8.53 14.43 8.74 14.43 9.06 14.43 9.06 14.43 10.13 14.43 10.13 14.43 10.45 14.65 10.66 14.97 10.66 14.97 10.66 21.91 10.66 21.91 10.66 22.23 10.66 22.44 10.45 22.44 10.13 22.44 10.13 22.44 9.06 22.44 9.06 22.44 8.74 22.23 8.53 21.91 8.53 21.91 8.53 21.37 8.53 21.37 8.53ZM 26.71 4.58C 26.71 4.58 26.71 6.4 26.71 6.4 26.71 6.4 25.65 6.4 25.65 6.4 25.65 6.4 25.65 4.26 25.65 4.26 25.65 4.26 21.91 4.26 21.91 4.26 21.91 4.26 21.91 5.33 21.91 5.33 21.91 5.33 24.58 5.33 24.58 5.33 24.58 5.33 24.58 6.4 24.58 6.4 24.58 6.4 21.91 6.4 21.91 6.4 21.91 6.4 21.91 7.46 21.91 7.46 21.91 7.46 26.07 7.46 26.07 7.46 26.07 7.46 29.28 5.86 29.28 5.86 29.28 5.86 26.71 4.58 26.71 4.58ZM 12.3 22.39C 12.3 22.39 11.23 22.39 11.23 22.39 11.23 22.39 11.23 20.79 11.23 20.79 11.23 20.79 12.3 20.79 12.3 20.79 12.3 20.79 12.3 22.39 12.3 22.39ZM 12.3 25.06C 12.3 25.06 11.23 25.06 11.23 25.06 11.23 25.06 11.23 23.46 11.23 23.46 11.23 23.46 12.3 23.46 12.3 23.46 12.3 23.46 12.3 25.06 12.3 25.06Z" fill="rgb(153,153,153)"/></svg>
