<?xml version="1.0" encoding="utf-8"?>
<svg xmlns="http://www.w3.org/2000/svg"
	xmlns:xlink="http://www.w3.org/1999/xlink"
	width="28px" height="31px" viewBox="0 0 28 31">
<path fillRule="evenodd" d="M 27.49 14.93C 27.49 14.93 26.92 14.93 26.92 14.93 26.92 14.93 26.92 28.89 26.92 28.89 26.92 30.05 25.97 30.99 24.79 30.99 24.79 30.99 3.2 30.99 3.2 30.99 2.03 30.99 1.08 30.05 1.08 28.89 1.08 28.89 1.08 14.93 1.08 14.93 1.08 14.93 0.51 14.93 0.51 14.93 0.23 14.93-0 14.7-0 14.42-0 14.42-0 10.67-0 10.67-0 9.51 0.95 8.57 2.13 8.57 2.13 8.57 11.65 8.57 11.65 8.57 9.52 7.59 6.52 6.14 5.8 5.42 4.55 4.18 4.55 2.17 5.8 0.93 6.4 0.33 7.21-0 8.06-0 8.92-0 9.72 0.33 10.33 0.93 11.19 1.79 13.1 5.85 14 7.83 14.9 5.85 16.81 1.79 17.67 0.93 18.28 0.33 19.08-0 19.94-0 20.79-0 21.6 0.33 22.2 0.93 23.45 2.17 23.45 4.18 22.2 5.42 21.48 6.14 18.48 7.59 16.35 8.57 16.35 8.57 25.87 8.57 25.87 8.57 27.05 8.57 28 9.51 28 10.67 28 10.67 28 14.42 28 14.42 28 14.7 27.77 14.93 27.49 14.93ZM 11.33 12.95C 11.01 13.01 10.69 13.04 10.37 13.04 9.69 13.04 9.03 12.91 8.47 12.77 8.2 12.69 8.04 12.42 8.11 12.15 8.19 11.88 8.46 11.73 8.73 11.8 9.73 12.06 10.61 12.1 11.33 11.92 11.33 11.92 11.33 9.57 11.33 9.57 11.33 9.57 2.13 9.57 2.13 9.57 1.51 9.57 1.01 10.07 1.01 10.67 1.01 10.67 1.01 13.92 1.01 13.92 1.01 13.92 11.33 13.92 11.33 13.92 11.33 13.92 11.33 12.95 11.33 12.95ZM 9.61 1.64C 9.2 1.22 8.65 1 8.06 1 7.48 1 6.93 1.22 6.51 1.64 5.66 2.49 5.66 3.86 6.51 4.71 6.87 5.07 8.89 6.25 13 8.08 11.82 5.48 10.24 2.25 9.61 1.64ZM 12.35 9.57C 12.35 9.57 12.35 11.45 12.35 11.45 12.35 11.44 12.36 11.44 12.36 11.43 13.02 10.94 13.34 10.21 13.45 9.57 13.45 9.57 12.35 9.57 12.35 9.57ZM 14 11.03C 13.76 11.47 13.43 11.89 12.98 12.23 12.78 12.39 12.56 12.51 12.35 12.62 12.35 12.62 12.35 13.92 12.35 13.92 12.35 13.92 15.65 13.92 15.65 13.92 15.65 13.92 15.65 12.62 15.65 12.62 15.43 12.51 15.22 12.39 15.02 12.23 14.57 11.89 14.24 11.47 14 11.03ZM 15.64 11.43C 15.64 11.44 15.65 11.44 15.65 11.45 15.65 11.45 15.65 9.57 15.65 9.57 15.65 9.57 14.55 9.57 14.55 9.57 14.66 10.21 14.98 10.94 15.64 11.43ZM 21.49 4.71C 22.34 3.86 22.34 2.49 21.49 1.64 21.07 1.22 20.52 1 19.94 1 19.35 1 18.8 1.22 18.39 1.64 18.02 2 16.84 4 15 8.08 17.61 6.9 20.86 5.33 21.49 4.71ZM 2.09 14.93C 2.09 14.93 2.09 28.89 2.09 28.89 2.09 29.49 2.59 29.99 3.2 29.99 3.2 29.99 11.33 29.99 11.33 29.99 11.33 29.99 11.33 19.78 11.33 19.78 11.33 19.5 11.56 19.28 11.84 19.28 12.12 19.28 12.35 19.5 12.35 19.78 12.35 19.78 12.35 29.99 12.35 29.99 12.35 29.99 15.65 29.99 15.65 29.99 15.65 29.99 15.65 19.78 15.65 19.78 15.65 19.5 15.88 19.28 16.16 19.28 16.44 19.28 16.66 19.5 16.66 19.78 16.66 19.78 16.66 29.99 16.66 29.99 16.66 29.99 24.79 29.99 24.79 29.99 25.41 29.99 25.91 29.49 25.91 28.89 25.91 28.89 25.91 14.93 25.91 14.93 25.91 14.93 2.09 14.93 2.09 14.93ZM 26.99 10.67C 26.99 10.07 26.49 9.57 25.87 9.57 25.87 9.57 16.66 9.57 16.66 9.57 16.66 9.57 16.66 11.92 16.66 11.92 17.39 12.1 18.27 12.06 19.27 11.8 19.54 11.73 19.81 11.88 19.89 12.15 19.96 12.42 19.8 12.69 19.53 12.77 18.97 12.91 18.31 13.04 17.63 13.04 17.31 13.04 16.98 13.01 16.66 12.95 16.66 12.95 16.66 13.92 16.66 13.92 16.66 13.92 26.99 13.92 26.99 13.92 26.99 13.92 26.99 10.67 26.99 10.67ZM 16.16 18.14C 15.88 18.14 15.65 17.92 15.65 17.64 15.65 17.64 15.65 16.57 15.65 16.57 15.65 16.29 15.88 16.06 16.16 16.06 16.44 16.06 16.66 16.29 16.66 16.57 16.66 16.57 16.66 17.64 16.66 17.64 16.66 17.92 16.44 18.14 16.16 18.14ZM 11.84 18.14C 11.56 18.14 11.33 17.92 11.33 17.64 11.33 17.64 11.33 16.57 11.33 16.57 11.33 16.29 11.56 16.06 11.84 16.06 12.12 16.06 12.35 16.29 12.35 16.57 12.35 16.57 12.35 17.64 12.35 17.64 12.35 17.92 12.12 18.14 11.84 18.14Z" fill="rgb(153,153,153)"/></svg>
