<?xml version="1.0" encoding="utf-8"?>
<svg xmlns="http://www.w3.org/2000/svg"
	xmlns:xlink="http://www.w3.org/1999/xlink"
	width="9px" height="9px" viewBox="0 0 9 9">
<path fillRule="evenodd" d="M 4.11 0.19C 4.11 0.19 0.2 4 0.2 4-0.07 4.27-0.07 4.7 0.2 4.97 0.2 4.97 4.11 8.78 4.11 8.78 4.55 9.21 5.31 8.91 5.31 8.3 5.31 8.3 5.31 6.59 5.31 6.59 5.31 6.21 5.62 5.9 6.01 5.9 6.01 5.9 7.96 5.9 7.96 5.9 8.53 5.9 8.99 5.45 8.99 4.89 8.99 4.89 8.99 4.08 8.99 4.08 8.99 3.52 8.53 3.07 7.96 3.07 7.96 3.07 6.01 3.07 6.01 3.07 5.62 3.07 5.31 2.76 5.31 2.38 5.31 2.38 5.31 0.67 5.31 0.67 5.31 0.06 4.55-0.24 4.11 0.19Z" fill="rgb(153,153,153)"/></svg>
