<?xml version="1.0" encoding="utf-8"?>
<svg xmlns="http://www.w3.org/2000/svg"
	xmlns:xlink="http://www.w3.org/1999/xlink"
	width="14px" height="16px" viewBox="0 0 14 16">
<path fillRule="evenodd" d="M 13.15 11.15C 12.19 10.31 11.5 8.1 11.5 5.5 11.5 3.53 10.23 1.86 8.47 1.25 8.36 0.54 7.74-0 7-0 6.26-0 5.64 0.54 5.52 1.25 3.77 1.86 2.5 3.53 2.5 5.5 2.5 8.1 1.81 10.31 0.85 11.15 0.31 11.61-0 12.29-0 13-0 13.83 0.67 14.5 1.5 14.5 1.5 14.5 5.5 14.5 5.5 14.5 5.5 15.33 6.17 16 7 16 7.83 16 8.5 15.33 8.5 14.5 8.5 14.5 12.5 14.5 12.5 14.5 13.33 14.5 14 13.83 14 13 14 12.29 13.69 11.61 13.15 11.15ZM 1.5 13C 1.5 12.72 1.62 12.46 1.83 12.28 3.17 11.12 4 8.52 4 5.5 4 3.84 5.35 2.5 7 2.5 8.65 2.5 10 3.84 10 5.5 10 8.52 10.83 11.12 12.17 12.28 12.38 12.46 12.5 12.72 12.5 13 12.5 13 1.5 13 1.5 13Z" fill="rgb(50,50,50)"/></svg>
