<?xml version="1.0" encoding="utf-8"?>
<svg xmlns="http://www.w3.org/2000/svg"
	xmlns:xlink="http://www.w3.org/1999/xlink"
	width="14px" height="14px" viewBox="0 0 14 14">
<path fillRule="evenodd" d="M 13 4C 13 4 12 4 12 4 12 4 12 13 12 13 12 13.48 11.48 14 11 14 11 14 3 14 3 14 2.52 14 2 13.48 2 13 2 13 2 4 2 4 2 4 1 4 1 4 0.52 4-0 3.48-0 3-0 2.52 0.52 2 1 2 1 2 4 2 4 2 4 2 4 1 4 1 4 0.52 4.52-0 5-0 5-0 9-0 9-0 9.48-0 10 0.52 10 1 10 1 10 2 10 2 10 2 13 2 13 2 13.48 2 14 2.52 14 3 14 3.48 13.48 4 13 4ZM 8 2C 8 2 6 2 6 2 6 2 6 3 6 3 6 3 8 3 8 3 8 3 8 2 8 2ZM 10 6C 10 5.52 9.48 5 9 5 9 5 5 5 5 5 4.52 5 4 5.52 4 6 4 6 4 11 4 11 4 11 4 11 4 11 4 11.48 4.52 12 5 12 5 12 9 12 9 12 9.48 12 10 11.48 10 11 10 11 10 6 10 6ZM 8 11C 8 11 6 11 6 11 5.52 11 5 10.48 5 10 5 9.52 5.52 9 6 9 6 9 8 9 8 9 8.48 9 9 9.52 9 10 9 10.48 8.48 11 8 11ZM 8 8C 8 8 6 8 6 8 5.52 8 5 7.48 5 7 5 6.52 5.52 6 6 6 6 6 8 6 8 6 8.48 6 9 6.52 9 7 9 7.48 8.48 8 8 8Z" fill="rgb(203,203,203)"/></svg>
