<?xml version="1.0" encoding="utf-8"?>
<svg xmlns="http://www.w3.org/2000/svg"
	xmlns:xlink="http://www.w3.org/1999/xlink"
	width="10px" height="10px" viewBox="0 0 10 10">
<path fillRule="evenodd" d="M 8.54 8.53C 6.58 10.49 3.42 10.49 1.46 8.53-0.49 6.58-0.49 3.42 1.46 1.46 3.42-0.49 6.58-0.49 8.54 1.46 10.49 3.42 10.49 6.58 8.54 8.53ZM 7.65 2.35C 6.19 0.88 3.81 0.88 2.35 2.35 0.88 3.81 0.88 6.19 2.35 7.65 3.81 9.12 6.19 9.12 7.65 7.65 9.12 6.19 9.12 3.81 7.65 2.35ZM 6.25 6.87C 6.08 6.87 5.92 6.8 5.81 6.69 5.81 6.69 5.81 6.69 5.81 6.69 5.81 6.69 5 5.88 5 5.88 5 5.88 4.19 6.69 4.19 6.69 4.19 6.69 4.19 6.69 4.19 6.69 4.08 6.8 3.92 6.87 3.75 6.87 3.4 6.87 3.12 6.59 3.12 6.25 3.12 6.08 3.19 5.92 3.31 5.81 3.31 5.81 3.31 5.81 3.31 5.81 3.31 5.81 4.12 5 4.12 5 4.12 5 3.31 4.19 3.31 4.19 3.31 4.19 3.31 4.19 3.31 4.19 3.19 4.08 3.12 3.92 3.12 3.75 3.12 3.4 3.4 3.12 3.75 3.12 3.92 3.12 4.08 3.19 4.19 3.31 4.19 3.31 4.19 3.31 4.19 3.31 4.19 3.31 5 4.12 5 4.12 5 4.12 5.81 3.31 5.81 3.31 5.81 3.31 5.81 3.31 5.81 3.31 5.92 3.19 6.08 3.12 6.25 3.12 6.59 3.12 6.87 3.4 6.87 3.75 6.87 3.92 6.8 4.08 6.69 4.19 6.69 4.19 6.69 4.19 6.69 4.19 6.69 4.19 5.88 5 5.88 5 5.88 5 6.69 5.81 6.69 5.81 6.69 5.81 6.69 5.81 6.69 5.81 6.8 5.92 6.87 6.08 6.87 6.25 6.87 6.59 6.59 6.87 6.25 6.87Z" fill="rgb(203,203,203)"/></svg>
