<?xml version="1.0" encoding="utf-8"?>
<svg xmlns="http://www.w3.org/2000/svg"
	xmlns:xlink="http://www.w3.org/1999/xlink"
	width="9px" height="8px" viewBox="0 0 9 8">
<path fillRule="evenodd" d="M 4.67 7.68C 4.45 7.89 4.16 8 3.87 8 3.59 8 3.3 7.89 3.08 7.68 3.08 7.68 0.33 5.04 0.33 5.04 0.1 4.82-0 4.52 0.01 4.23 0.02 3.96 0.12 3.7 0.33 3.5 0.54 3.3 0.81 3.2 1.08 3.19 1.38 3.18 1.69 3.28 1.92 3.5 1.92 3.5 3.87 5.37 3.87 5.37 3.87 5.37 7.08 0.32 7.08 0.32 7.31 0.09 7.62-0 7.92 0.01 8.19 0.02 8.46 0.12 8.67 0.32 8.88 0.52 8.98 0.78 8.99 1.05 9 1.34 8.9 1.64 8.67 1.86 8.67 1.86 4.67 7.68 4.67 7.68Z" fill="rgb(63,178,53)"/></svg>
