<?xml version="1.0" encoding="utf-8"?>
<svg xmlns="http://www.w3.org/2000/svg"
	xmlns:xlink="http://www.w3.org/1999/xlink"
	width="14px" height="10px" viewBox="0 0 14 10">
<path fillRule="evenodd" d="M 13.06 5.6C 13.06 5.6 12.83 7.56 12.83 7.56 12.58 8.39 11.36 8.41 11.36 8.41 11.36 8.41 2.63 8.41 2.63 8.41 2.63 8.41 1.41 8.39 1.17 7.56 1.17 7.56 0.93 5.6 0.93 5.6 0.4 5.46 0.01 4.98 0.01 4.42 0.01 3.74 0.57 3.19 1.27 3.19 1.84 3.19 2.32 3.56 2.47 4.07 2.47 4.07 3.04 5.3 3.04 5.3 3.09 5.27 4.97 4.71 7.03 4.71 9.1 4.71 10.91 5.27 10.95 5.3 10.95 5.3 11.55 3.99 11.55 3.99 11.73 3.52 12.19 3.19 12.73 3.19 13.43 3.19 13.99 3.74 13.99 4.42 13.99 4.98 13.6 5.45 13.06 5.6ZM 12.73 2.55C 11.94 2.55 11.23 3.03 10.95 3.75 10.95 3.75 10.63 4.43 10.63 4.43 10.11 4.24 8.21 4.08 7.03 4.08 5.82 4.08 3.9 4.26 3.36 4.45 3.36 4.45 3.09 3.85 3.09 3.85 2.83 3.08 2.09 2.55 1.27 2.55 1.21 2.55 1.16 2.56 1.1 2.57 1.1 2.56 1.1 2.56 1.1 2.56 1.1 1.14 2.27-0 3.72-0 3.91-0 10.09-0 10.27-0 11.72-0 12.9 1.14 12.9 2.56 12.9 2.56 12.9 2.56 12.9 2.57 12.84 2.56 12.79 2.55 12.73 2.55ZM 2.63 8.94C 2.63 8.94 3.18 8.94 3.18 8.94 3.18 8.94 3.18 9.47 3.18 9.47 3.18 9.76 2.93 10 2.63 10 2.63 10 2.09 10 2.09 10 1.79 10 1.54 9.76 1.54 9.47 1.54 9.47 1.54 8.65 1.54 8.65 1.54 8.65 1.76 8.94 2.63 8.94ZM 12.46 8.65C 12.46 8.65 12.46 9.47 12.46 9.47 12.46 9.76 12.21 10 11.91 10 11.91 10 11.36 10 11.36 10 11.06 10 10.82 9.76 10.82 9.47 10.82 9.47 10.82 8.94 10.82 8.94 10.82 8.94 11.36 8.94 11.36 8.94 12.23 8.94 12.46 8.65 12.46 8.65Z" fill="rgb(152,152,152)"/></svg>
