<?xml version="1.0" encoding="utf-8"?>
<svg xmlns="http://www.w3.org/2000/svg"
	xmlns:xlink="http://www.w3.org/1999/xlink"
	width="12px" height="9px" viewBox="0 0 12 9">
<path fillRule="evenodd" d="M 11.13 1.25C 10.66 1.25 10.27 1.7 10.27 2.25 10.27 2.61 10.43 2.92 10.68 3.1 10.16 3.93 9.42 4.89 8.66 5.17 7.67 5.54 6.74 3.28 6.28 1.94 6.62 1.81 6.86 1.44 6.86 1 6.86 0.45 6.48-0 6-0 5.52-0 5.13 0.45 5.13 1 5.13 1.44 5.38 1.8 5.72 1.94 5.26 3.28 4.33 5.54 3.34 5.17 2.58 4.89 1.84 3.93 1.32 3.1 1.57 2.92 1.73 2.61 1.73 2.25 1.73 1.7 1.34 1.25 0.86 1.25 0.39 1.25-0 1.7-0 2.25-0 2.81 0.39 3.25 0.86 3.25 0.87 3.25 0.88 3.25 0.89 3.25 0.89 3.25 2.06 9 2.06 9 2.06 9 9.94 9 9.94 9 9.94 9 11.11 3.25 11.11 3.25 11.12 3.25 11.13 3.25 11.14 3.25 11.61 3.25 12 2.81 12 2.25 12 1.7 11.61 1.25 11.13 1.25Z" fill="rgb(255,217,63)"/></svg>
