<?xml version="1.0" encoding="utf-8"?>
<svg xmlns="http://www.w3.org/2000/svg"
	xmlns:xlink="http://www.w3.org/1999/xlink"
	width="10px" height="8px" viewBox="0 0 10 8">
<path fillRule="evenodd" d="M 8.75 8C 8.75 8 1.25 8 1.25 8 0.56 8-0 7.4-0 6.67-0 6.67-0 1.33-0 1.33-0 0.6 0.56-0 1.25-0 1.25-0 8.75-0 8.75-0 9.44-0 10 0.6 10 1.33 10 1.33 10 6.67 10 6.67 10 7.4 9.44 8 8.75 8ZM 9 2C 9 1.63 8.34 1 8 1 8 1 2 1 2 1 1.65 1 1 1.63 1 2 1 2 1 3 1 3 1 3 9 3 9 3 9 3 9 2 9 2ZM 9 4C 9 4 1 4 1 4 1 4 1 6 1 6 1 6.37 1.65 7 2 7 2 7 8 7 8 7 8.34 7 9 6.37 9 6 9 6 9 4 9 4ZM 3.75 6C 3.75 6 2.5 6 2.5 6 2.15 6 1.87 5.7 1.87 5.33 1.87 4.96 2.15 4.67 2.5 4.67 2.5 4.67 3.75 4.67 3.75 4.67 4.09 4.67 4.37 4.96 4.37 5.33 4.37 5.7 4.09 6 3.75 6Z" fill="rgb(203,203,203)"/></svg>
