<?xml version="1.0" encoding="utf-8"?>
<svg xmlns="http://www.w3.org/2000/svg"
	xmlns:xlink="http://www.w3.org/1999/xlink"
	width="8px" height="10px" viewBox="0 0 8 10">
<path fillRule="evenodd" d="M 7.79 8.32C 5.69 10.55 2.29 10.55 0.19 8.32-0.07 8.04-0.07 7.59 0.19 7.31 0.45 7.03 0.88 7.03 1.14 7.31 2.71 8.99 5.27 8.99 6.84 7.31 7.1 7.03 7.53 7.03 7.79 7.31 8.05 7.59 8.05 8.04 7.79 8.32ZM 5.81 5.5C 5.81 5.5 5.81 5.5 5.81 5.5 5.81 5.5 4.46 6.93 4.46 6.93 4.46 6.93 4.46 6.93 4.46 6.93 4.34 7.06 4.17 7.14 3.99 7.14 3.8 7.14 3.64 7.06 3.51 6.93 3.51 6.93 3.51 6.93 3.51 6.93 3.51 6.93 2.17 5.5 2.17 5.5 2.17 5.5 2.17 5.5 2.17 5.5 2.05 5.37 1.97 5.19 1.97 5 1.97 4.6 2.27 4.28 2.64 4.28 2.83 4.28 3 4.36 3.12 4.49 3.12 4.49 3.12 4.49 3.12 4.49 3.12 4.49 3.32 4.7 3.32 4.7 3.32 4.7 3.32 0.71 3.32 0.71 3.32 0.32 3.62-0 3.99-0 4.36-0 4.66 0.32 4.66 0.71 4.66 0.71 4.66 4.7 4.66 4.7 4.66 4.7 4.86 4.49 4.86 4.49 4.86 4.49 4.86 4.49 4.86 4.49 4.98 4.36 5.15 4.28 5.33 4.28 5.7 4.28 6 4.6 6 5 6 5.19 5.93 5.37 5.81 5.5Z" fill="rgb(203,203,203)"/></svg>
