<svg xmlns="http://www.w3.org/2000/svg" width="14" height="12" viewBox="0 0 14 12">
  <defs>
    <style>
      .cls-1 {
        fill: #666;
        fill-rule: evenodd;
      }
    </style>
  </defs>
  <path id="eye_disabled" data-name="eye disabled" class="cls-1" d="M1073.87,385.463l-10.5,10.285h0a0.887,0.887,0,0,1-.62.252,0.873,0.873,0,0,1-.88-0.857,0.844,0.844,0,0,1,.26-0.607h0l10.5-10.286h0a0.89,0.89,0,0,1,.62-0.25,0.863,0.863,0,0,1,.87.857,0.834,0.834,0,0,1-.25.606h0Zm-5.87,1.108a3.467,3.467,0,0,0-3.5,3.428,3.185,3.185,0,0,0,.13.877l-1.6,1.57A5.057,5.057,0,0,1,1061,390c0-.857,3.13-4.285,7-4.285a6.956,6.956,0,0,1,1.68.218l-0.79.766A3.49,3.49,0,0,0,1068,386.571Zm0,6.857a3.467,3.467,0,0,0,3.5-3.429,3.178,3.178,0,0,0-.13-0.876l1.6-1.57A5.124,5.124,0,0,1,1075,390c0,0.858-3.13,4.286-7,4.286a6.956,6.956,0,0,1-1.68-.218l0.78-.766A3.588,3.588,0,0,0,1068,393.428Z" transform="translate(-1061 -384)"/>
</svg>
