<?xml version="1.0" encoding="utf-8"?>
<svg xmlns="http://www.w3.org/2000/svg"
	xmlns:xlink="http://www.w3.org/1999/xlink"
	width="14px" height="13px" viewBox="0 0 14 13">
<path fillRule="evenodd" d="M 13.76 2.4C 13.61 2.24 13.42 2.16 13.19 2.16 13.19 2.16 10.77 2.16 10.77 2.16 10.77 2.16 10.77 1.35 10.77 1.35 10.77 0.98 10.64 0.66 10.37 0.4 10.11 0.13 9.79-0 9.42-0 9.42-0 4.58-0 4.58-0 4.21-0 3.89 0.13 3.63 0.4 3.36 0.66 3.23 0.98 3.23 1.35 3.23 1.35 3.23 2.16 3.23 2.16 3.23 2.16 0.81 2.16 0.81 2.16 0.58 2.16 0.39 2.24 0.24 2.4 0.08 2.56-0 2.75-0 2.98-0 2.98-0 4.06-0 4.06-0 4.46 0.12 4.86 0.35 5.27 0.58 5.68 0.9 6.04 1.29 6.37 1.69 6.7 2.17 6.97 2.75 7.2 3.32 7.42 3.93 7.54 4.56 7.57 4.8 7.88 5.06 8.14 5.36 8.38 5.57 8.57 5.72 8.77 5.8 8.99 5.88 9.21 5.92 9.46 5.92 9.75 5.92 10.05 5.84 10.31 5.67 10.52 5.5 10.73 5.22 10.83 4.85 10.83 4.43 10.83 4.05 10.96 3.72 11.22 3.39 11.47 3.23 11.79 3.23 12.18 3.23 12.18 3.23 12.73 3.23 12.73 3.23 12.8 3.26 12.87 3.31 12.92 3.36 12.97 3.42 13 3.5 13 3.5 13 10.5 13 10.5 13 10.58 13 10.64 12.97 10.69 12.92 10.74 12.87 10.77 12.8 10.77 12.73 10.77 12.73 10.77 12.18 10.77 12.18 10.77 11.79 10.6 11.47 10.28 11.22 9.95 10.96 9.57 10.83 9.15 10.83 8.78 10.83 8.5 10.73 8.33 10.52 8.16 10.31 8.08 10.05 8.08 9.75 8.08 9.46 8.12 9.21 8.2 8.99 8.28 8.77 8.43 8.57 8.64 8.38 8.94 8.14 9.2 7.88 9.44 7.57 10.07 7.54 10.68 7.42 11.25 7.2 11.83 6.97 12.31 6.7 12.71 6.37 13.1 6.04 13.42 5.68 13.65 5.27 13.88 4.86 14 4.46 14 4.06 14 4.06 14 2.98 14 2.98 14 2.75 13.92 2.56 13.76 2.4ZM 1.87 5.43C 1.34 4.96 1.08 4.5 1.08 4.06 1.08 4.06 1.08 3.25 1.08 3.25 1.08 3.25 3.23 3.25 3.23 3.25 3.23 4.43 3.44 5.47 3.85 6.39 3.06 6.22 2.4 5.9 1.87 5.43ZM 12.92 4.06C 12.92 4.5 12.66 4.96 12.13 5.43 11.6 5.9 10.94 6.22 10.15 6.39 10.56 5.47 10.77 4.43 10.77 3.25 10.77 3.25 12.92 3.25 12.92 3.25 12.92 3.25 12.92 4.06 12.92 4.06 12.92 4.06 12.92 4.06 12.92 4.06Z" fill="rgb(152,152,152)"/></svg>
