<?xml version="1.0" encoding="utf-8"?>
<svg xmlns="http://www.w3.org/2000/svg"
	xmlns:xlink="http://www.w3.org/1999/xlink"
	width="14px" height="14px" viewBox="0 0 14 14">
<path fillRule="evenodd" d="M 6.91-0C 3.04 0.05-0.05 3.22-0 7.09 0.05 10.95 3.23 14.05 7.09 14 10.96 13.94 14.05 10.77 14 6.9 13.95 3.04 10.77-0.06 6.91-0ZM 6.89 11.26C 6.89 11.26 6.85 11.26 6.85 11.26 6.25 11.24 5.83 10.8 5.85 10.21 5.86 9.64 6.29 9.22 6.87 9.22 6.87 9.22 6.91 9.22 6.91 9.22 7.52 9.24 7.93 9.67 7.91 10.28 7.9 10.85 7.47 11.26 6.89 11.26ZM 9.39 6.29C 9.25 6.48 8.94 6.73 8.55 7.03 8.55 7.03 8.13 7.33 8.13 7.33 7.89 7.51 7.75 7.68 7.7 7.85 7.66 7.99 7.63 8.02 7.63 8.29 7.63 8.29 7.63 8.36 7.63 8.36 7.63 8.36 6 8.36 6 8.36 6 8.36 6 8.22 6 8.22 6.02 7.65 6.04 7.32 6.27 7.05 6.64 6.61 7.46 6.09 7.49 6.07 7.61 5.98 7.71 5.88 7.78 5.77 7.95 5.53 8.03 5.35 8.03 5.17 8.03 4.91 7.95 4.68 7.8 4.47 7.66 4.27 7.39 4.17 6.99 4.17 6.61 4.17 6.34 4.29 6.18 4.54 6.01 4.8 5.93 5.08 5.93 5.36 5.93 5.36 5.93 5.43 5.93 5.43 5.93 5.43 4.25 5.43 4.25 5.43 4.25 5.43 4.25 5.35 4.25 5.35 4.3 4.32 4.66 3.58 5.35 3.15 5.77 2.87 6.31 2.73 6.93 2.73 7.74 2.73 8.43 2.93 8.97 3.32 9.52 3.72 9.8 4.31 9.8 5.08 9.8 5.51 9.66 5.92 9.39 6.29Z" fill="rgb(152,152,152)"/></svg>
