<?xml version="1.0" encoding="utf-8"?>
<svg xmlns="http://www.w3.org/2000/svg"
	xmlns:xlink="http://www.w3.org/1999/xlink" viewBox="0 0 25 32">
<path fillRule="evenodd" d="M 24.18 13.03C 24.18 13.03 18.92 13.03 18.92 13.03 18.47 13.03 18.11 12.67 18.11 12.24 18.11 11.8 18.47 11.45 18.92 11.45 18.92 11.45 24.18 11.45 24.18 11.45 24.63 11.45 25 11.8 25 12.24 25 12.67 24.63 13.03 24.18 13.03ZM 21.39 4.86C 21.17 4.86 20.96 4.78 20.81 4.63 20.66 4.49 20.57 4.29 20.57 4.07 20.57 3.86 20.66 3.66 20.81 3.52 20.96 3.37 21.17 3.29 21.39 3.29 21.6 3.29 21.82 3.37 21.96 3.52 22.11 3.66 22.2 3.86 22.2 4.07 22.2 4.29 22.11 4.49 21.96 4.63 21.82 4.78 21.6 4.86 21.39 4.86ZM 19.53 6.67C 19.32 6.67 19.11 6.59 18.95 6.44 18.63 6.13 18.63 5.63 18.95 5.33 19.27 5.02 19.79 5.02 20.1 5.33 20.42 5.63 20.42 6.13 20.1 6.44 19.94 6.59 19.74 6.67 19.53 6.67ZM 17.67 8.47C 17.45 8.47 17.24 8.39 17.09 8.24 16.94 8.1 16.85 7.89 16.85 7.68 16.85 7.47 16.94 7.27 17.09 7.13 17.24 6.98 17.45 6.9 17.67 6.9 17.88 6.9 18.09 6.98 18.24 7.13 18.39 7.27 18.48 7.47 18.48 7.68 18.48 7.89 18.39 8.1 18.24 8.24 18.09 8.39 17.88 8.47 17.67 8.47ZM 24.85 19.82C 24.85 19.94 24.84 20.06 24.82 20.19 24.82 20.19 23.45 28.61 23.45 28.61 23.3 29.78 22.75 30.72 21.86 31.3 21.16 31.75 20.24 31.99 19.21 31.99 19.21 31.99 8.79 31.99 8.79 31.99 7.87 31.99 7.02 31.66 6.38 31.1 6.16 31.27 5.89 31.38 5.59 31.38 5.59 31.38 1.22 31.38 1.22 31.38 0.55 31.38-0 30.85-0 30.2-0 30.2-0 18.65-0 18.65-0 18.01 0.54 17.48 1.22 17.48 1.22 17.48 5.59 17.48 5.59 17.48 6.02 17.48 6.39 17.69 6.61 18.01 6.9 17.92 7.73 17.62 8.53 17.06 9.78 16.19 10.41 15.11 10.41 13.84 10.41 13.84 10.41 9.72 10.41 9.72 10.41 9.37 10.64 9.07 10.98 8.97 11.07 8.93 13.17 8.31 14.72 9.41 15.7 10.11 16.2 11.29 16.2 12.9 16.2 12.9 16.2 16.38 16.2 16.38 16.2 16.38 21.26 16.38 21.26 16.38 23.16 16.38 24.78 17.93 24.85 19.82ZM 5.17 19.06C 5.17 19.06 1.62 19.06 1.62 19.06 1.62 19.06 1.62 29.81 1.62 29.81 1.62 29.81 5.17 29.81 5.17 29.81 5.17 29.81 5.17 19.06 5.17 19.06ZM 15.39 17.95C 14.94 17.95 14.57 17.6 14.57 17.16 14.57 17.16 14.57 12.9 14.57 12.9 14.57 11.81 14.29 11.06 13.76 10.68 13.24 10.31 12.53 10.31 12.04 10.36 12.04 10.36 12.04 13.84 12.04 13.84 12.04 15.64 11.14 17.21 9.44 18.37 8.22 19.22 6.99 19.56 6.94 19.57 6.9 19.58 6.85 19.59 6.81 19.59 6.81 19.59 6.81 28.75 6.81 28.75 6.82 28.79 6.84 28.82 6.84 28.86 7.02 29.77 7.84 30.42 8.79 30.42 8.79 30.42 19.21 30.42 19.21 30.42 21.58 30.42 21.77 28.91 21.84 28.41 21.84 28.4 21.84 28.39 21.84 28.38 21.84 28.38 23.21 19.95 23.21 19.95 23.22 19.92 23.22 19.9 23.22 19.89 23.18 18.84 22.28 17.95 21.26 17.95 21.26 17.95 15.39 17.95 15.39 17.95ZM 13.25 6.67C 12.8 6.67 12.43 6.32 12.43 5.88 12.43 5.88 12.43 0.78 12.43 0.78 12.43 0.35 12.8-0.01 13.25-0.01 13.69-0.01 14.06 0.35 14.06 0.78 14.06 0.78 14.06 5.88 14.06 5.88 14.06 6.32 13.69 6.67 13.25 6.67ZM 8.27 8.1C 8.05 8.1 7.84 8.02 7.69 7.87 7.54 7.73 7.45 7.53 7.45 7.32 7.45 7.11 7.54 6.9 7.69 6.76 7.84 6.61 8.05 6.53 8.27 6.53 8.49 6.53 8.7 6.61 8.85 6.76 9 6.9 9.08 7.11 9.08 7.32 9.08 7.53 9 7.73 8.85 7.87 8.7 8.02 8.49 8.1 8.27 8.1ZM 6.41 6.3C 6.2 6.3 5.99 6.22 5.83 6.07 5.51 5.76 5.51 5.26 5.83 4.95 6.15 4.64 6.67 4.64 6.99 4.95 7.31 5.26 7.31 5.76 6.99 6.07 6.82 6.22 6.62 6.3 6.41 6.3ZM 4.55 4.5C 4.33 4.5 4.12 4.42 3.97 4.27 3.82 4.12 3.73 3.92 3.73 3.71 3.73 3.5 3.82 3.29 3.97 3.15 4.12 3 4.33 2.92 4.55 2.92 4.77 2.92 4.98 3 5.13 3.15 5.28 3.29 5.36 3.5 5.36 3.71 5.36 3.92 5.28 4.12 5.13 4.27 4.98 4.41 4.77 4.5 4.55 4.5ZM 8.38 12.24C 8.38 12.67 8.01 13.03 7.56 13.03 7.56 13.03 2.3 13.03 2.3 13.03 1.85 13.03 1.49 12.67 1.49 12.24 1.49 11.8 1.85 11.45 2.3 11.45 2.3 11.45 7.56 11.45 7.56 11.45 8.01 11.45 8.38 11.8 8.38 12.24Z" fill="rgb(63,178,53)"/></svg>
