<?xml version="1.0" encoding="utf-8"?>
<svg xmlns="http://www.w3.org/2000/svg"
	xmlns:xlink="http://www.w3.org/1999/xlink"
	width="31px" height="32px" viewBox="0 0 31 32">
<path fillRule="evenodd" d="M 30.68 6.34C 30.68 6.34 26.4 8.47 26.4 8.47 26.35 8.53 26.3 8.53 26.19 8.53 26.19 8.53 23.41 8.53 23.41 8.53 23.46 8.69 23.52 8.85 23.52 9.06 23.52 9.06 23.52 10.13 23.52 10.13 23.52 12.58 22.23 14.45 21.22 15.46 21.22 15.46 22.45 15.46 22.45 15.46 22.77 15.46 22.98 15.67 22.98 15.99 22.98 15.99 22.98 19.19 22.98 19.19 22.98 19.51 22.77 19.73 22.45 19.73 22.45 19.73 21.91 19.73 21.91 19.73 21.91 19.73 21.91 31.99 21.91 31.99 21.91 31.99 20.84 31.99 20.84 31.99 20.84 31.99 20.84 19.73 20.84 19.73 20.84 19.73 9.62 19.73 9.62 19.73 9.62 19.73 9.62 31.99 9.62 31.99 9.62 31.99 8.55 31.99 8.55 31.99 8.55 31.99 8.55 19.73 8.55 19.73 8.55 19.73 7.48 19.73 7.48 19.73 7.16 19.73 6.95 19.51 6.95 19.19 6.95 19.19 6.95 15.99 6.95 15.99 6.95 15.67 7.16 15.46 7.48 15.46 7.48 15.46 8.02 15.46 8.02 15.46 8.02 15.46 8.02 8.53 8.02 8.53 8.02 8.53 0.53 8.53 0.53 8.53 0.21 8.53-0 8.31-0 7.99-0 7.99-0 3.73-0 3.73-0 3.41 0.21 3.19 0.53 3.19 0.53 3.19 8.02 3.19 8.02 3.19 8.02 3.19 8.02 1.59 8.02 1.59 8.02 0.69 8.71-0.01 9.62-0.01 9.62-0.01 10.69-0.01 10.69-0.01 11.12-0.01 11.49 0.1 11.76 0.36 12.03 0.15 12.4-0.01 12.83-0.01 12.83-0.01 13.9-0.01 13.9-0.01 14.32-0.01 14.7 0.1 14.97 0.36 15.23 0.15 15.61-0.01 16.03-0.01 16.03-0.01 17.1-0.01 17.1-0.01 17.53-0.01 17.91 0.1 18.17 0.36 18.44 0.15 18.81-0.01 19.24-0.01 19.24-0.01 20.31-0.01 20.31-0.01 21.22-0.01 21.91 0.69 21.91 1.59 21.91 1.59 21.91 3.19 21.91 3.19 21.91 3.19 26.19 3.19 26.19 3.19 26.3 3.19 26.35 3.19 26.4 3.25 26.4 3.25 30.68 5.38 30.68 5.38 30.84 5.49 31 5.65 31 5.86 31 6.07 30.89 6.23 30.68 6.34ZM 3.74 4.26C 3.74 4.26 1.07 4.26 1.07 4.26 1.07 4.26 1.07 7.46 1.07 7.46 1.07 7.46 3.74 7.46 3.74 7.46 3.74 7.46 3.74 4.26 3.74 4.26ZM 8.02 4.26C 8.02 4.26 4.81 4.26 4.81 4.26 4.81 4.26 4.81 5.33 4.81 5.33 4.81 5.33 8.02 5.33 8.02 5.33 8.02 5.33 8.02 4.26 8.02 4.26ZM 8.02 6.39C 8.02 6.39 4.81 6.39 4.81 6.39 4.81 6.39 4.81 7.46 4.81 7.46 4.81 7.46 8.02 7.46 8.02 7.46 8.02 7.46 8.02 6.39 8.02 6.39ZM 8.02 16.52C 8.02 16.52 8.02 18.66 8.02 18.66 8.02 18.66 9.09 18.66 9.09 18.66 9.09 18.66 21.38 18.66 21.38 18.66 21.38 18.66 21.91 18.66 21.91 18.66 21.91 18.66 21.91 16.52 21.91 16.52 21.91 16.52 19.78 16.52 19.78 16.52 19.78 16.52 8.55 16.52 8.55 16.52 8.55 16.52 8.02 16.52 8.02 16.52ZM 11.22 1.59C 11.22 1.27 11.01 1.06 10.69 1.06 10.69 1.06 9.62 1.06 9.62 1.06 9.3 1.06 9.09 1.27 9.09 1.59 9.09 1.59 9.09 8.53 9.09 8.53 9.09 8.85 9.3 9.06 9.62 9.06 9.62 9.06 10.69 9.06 10.69 9.06 11.01 9.06 11.22 8.85 11.22 8.53 11.22 8.53 11.22 1.59 11.22 1.59ZM 10.69 10.13C 10.69 10.13 9.62 10.13 9.62 10.13 9.41 10.13 9.25 10.07 9.09 10.02 9.09 10.02 9.09 15.46 9.09 15.46 9.09 15.46 19.62 15.46 19.62 15.46 20.1 15.14 21.65 13.81 22.23 11.67 22.13 11.72 22.02 11.72 21.91 11.72 21.91 11.72 14.97 11.72 14.97 11.72 14.06 11.72 13.36 11.03 13.36 10.13 13.36 10.13 12.83 10.13 12.83 10.13 12.4 10.13 12.03 10.02 11.76 9.75 11.49 9.97 11.12 10.13 10.69 10.13ZM 14.43 6.39C 14.43 6.39 14.43 1.59 14.43 1.59 14.43 1.27 14.22 1.06 13.9 1.06 13.9 1.06 12.83 1.06 12.83 1.06 12.51 1.06 12.29 1.27 12.29 1.59 12.29 1.59 12.29 8.53 12.29 8.53 12.29 8.85 12.51 9.06 12.83 9.06 12.83 9.06 13.36 9.06 13.36 9.06 13.36 8.37 13.79 7.78 14.43 7.57 14.43 7.57 14.43 6.39 14.43 6.39ZM 17.64 6.39C 17.64 6.39 17.64 1.59 17.64 1.59 17.64 1.27 17.42 1.06 17.1 1.06 17.1 1.06 16.03 1.06 16.03 1.06 15.71 1.06 15.5 1.27 15.5 1.59 15.5 1.59 15.5 6.39 15.5 6.39 15.5 6.39 15.5 7.46 15.5 7.46 15.5 7.46 17.64 7.46 17.64 7.46 17.64 7.46 17.64 6.39 17.64 6.39ZM 20.84 1.59C 20.84 1.27 20.63 1.06 20.31 1.06 20.31 1.06 19.24 1.06 19.24 1.06 18.92 1.06 18.71 1.27 18.71 1.59 18.71 1.59 18.71 6.39 18.71 6.39 18.71 6.39 18.71 7.46 18.71 7.46 18.71 7.46 20.84 7.46 20.84 7.46 20.84 7.46 20.84 1.59 20.84 1.59ZM 21.38 8.53C 21.38 8.53 20.84 8.53 20.84 8.53 20.84 8.53 14.97 8.53 14.97 8.53 14.64 8.53 14.43 8.74 14.43 9.06 14.43 9.06 14.43 10.13 14.43 10.13 14.43 10.45 14.64 10.66 14.97 10.66 14.97 10.66 21.91 10.66 21.91 10.66 22.23 10.66 22.45 10.45 22.45 10.13 22.45 10.13 22.45 9.06 22.45 9.06 22.45 8.74 22.23 8.53 21.91 8.53 21.91 8.53 21.38 8.53 21.38 8.53ZM 26.72 4.58C 26.72 4.58 26.72 6.39 26.72 6.39 26.72 6.39 25.66 6.39 25.66 6.39 25.66 6.39 25.66 4.26 25.66 4.26 25.66 4.26 21.91 4.26 21.91 4.26 21.91 4.26 21.91 5.33 21.91 5.33 21.91 5.33 24.59 5.33 24.59 5.33 24.59 5.33 24.59 6.39 24.59 6.39 24.59 6.39 21.91 6.39 21.91 6.39 21.91 6.39 21.91 7.46 21.91 7.46 21.91 7.46 26.08 7.46 26.08 7.46 26.08 7.46 29.29 5.86 29.29 5.86 29.29 5.86 26.72 4.58 26.72 4.58ZM 12.29 22.39C 12.29 22.39 11.22 22.39 11.22 22.39 11.22 22.39 11.22 20.79 11.22 20.79 11.22 20.79 12.29 20.79 12.29 20.79 12.29 20.79 12.29 22.39 12.29 22.39ZM 12.29 25.06C 12.29 25.06 11.22 25.06 11.22 25.06 11.22 25.06 11.22 23.46 11.22 23.46 11.22 23.46 12.29 23.46 12.29 23.46 12.29 23.46 12.29 25.06 12.29 25.06Z" fill="rgb(63,178,53)"/></svg>
