<?xml version="1.0" encoding="utf-8"?>
<svg xmlns="http://www.w3.org/2000/svg"
	xmlns:xlink="http://www.w3.org/1999/xlink"
	width="18px" height="21px" viewBox="0 0 18 21">
<path fillRule="evenodd" d="M 17.29 11.54C 17.29 11.54 16.65 11.54 16.65 11.54 16.65 11.54 16.65 20.28 16.65 20.28 16.65 20.68 16.34 21 15.95 21 15.95 21 10.66 21 10.66 21 10.66 21 7.38 21 7.38 21 7.38 21 2.05 21 2.05 21 1.66 21 1.34 20.68 1.34 20.28 1.34 20.28 1.34 11.54 1.34 11.54 1.34 11.54 0.71 11.54 0.71 11.54 0.32 11.54-0 11.22-0 10.82-0 10.82-0 6.63-0 6.63-0 6.23 0.32 5.91 0.71 5.91 0.71 5.91 5.91 5.91 5.91 5.91 4.59 5.1 3.29 4.01 3.1 2.77 3.02 2.21 3.13 1.37 4.11 0.58 5.02-0.15 5.82-0.07 6.33 0.12 7.59 0.6 8.44 2.33 8.98 3.89 9.43 2.64 10.12 1.36 11.12 0.93 11.59 0.73 12.33 0.63 13.2 1.25 14.01 1.83 14.13 2.51 14.09 2.98 13.99 4.06 12.85 5.11 11.69 5.91 11.69 5.91 17.29 5.91 17.29 5.91 17.68 5.91 18 6.23 18 6.63 18 6.63 18 10.82 18 10.82 18 11.22 17.68 11.54 17.29 11.54ZM 11.37 19.55C 11.37 19.55 15.24 19.55 15.24 19.55 15.24 19.55 15.24 11.54 15.24 11.54 15.24 11.54 11.37 11.54 11.37 11.54 11.37 11.54 11.37 19.55 11.37 19.55ZM 9.95 19.55C 9.95 19.55 9.95 7.36 9.95 7.36 9.95 7.36 8.08 7.36 8.08 7.36 8.08 7.36 8.08 19.55 8.08 19.55 8.08 19.55 9.95 19.55 9.95 19.55ZM 2.76 19.55C 2.76 19.55 6.67 19.55 6.67 19.55 6.67 19.55 6.67 11.54 6.67 11.54 6.67 11.54 2.76 11.54 2.76 11.54 2.76 11.54 2.76 19.55 2.76 19.55ZM 1.41 7.36C 1.41 7.36 1.41 10.1 1.41 10.1 1.41 10.1 6.67 10.1 6.67 10.1 6.67 10.1 6.67 7.36 6.67 7.36 6.67 7.36 1.41 7.36 1.41 7.36ZM 5.84 1.48C 5.8 1.46 5.73 1.44 5.63 1.44 5.48 1.44 5.27 1.49 4.98 1.72 4.44 2.16 4.49 2.45 4.5 2.55 4.63 3.44 6.33 4.58 7.96 5.39 7.47 3.66 6.67 1.79 5.84 1.48ZM 12.68 2.85C 12.68 2.8 12.69 2.66 12.39 2.44 12.15 2.27 11.98 2.23 11.86 2.23 11.77 2.23 11.71 2.25 11.67 2.27 11.01 2.55 10.42 3.91 10.03 5.26 11.43 4.43 12.62 3.44 12.68 2.85ZM 16.58 7.36C 16.58 7.36 11.37 7.36 11.37 7.36 11.37 7.36 11.37 10.1 11.37 10.1 11.37 10.1 16.58 10.1 16.58 10.1 16.58 10.1 16.58 7.36 16.58 7.36Z" fill="rgb(216,216,216)"/></svg>
