<?xml version="1.0" encoding="utf-8"?>
<svg xmlns="http://www.w3.org/2000/svg"
	xmlns:xlink="http://www.w3.org/1999/xlink"
	width="10px" height="14px" viewBox="0 0 10 14">
<path fillRule="evenodd" d="M 5.01 12.39C 5.01 12.39 5.01 12.87 5.01 12.87 5.01 12.87 5.89 12.87 5.89 12.87 6.31 12.87 6.66 13.22 6.66 13.66 6.66 13.66 6.66 14 6.66 14 6.66 14 2.27 14 2.27 14 2.27 14 2.27 13.65 2.27 13.65 2.27 13.22 2.61 12.87 3.04 12.87 3.04 12.87 3.92 12.87 3.92 12.87 3.92 12.87 3.92 12.44 3.92 12.44 2.45 12.37 1.14 11.74 0.15 10.77 0.05 10.67-0 10.53 0 10.39 0.01 10.25 0.07 10.12 0.18 10.03 0.21 10 0.24 9.98 0.27 9.95 0.46 9.79 0.74 9.8 0.92 9.97 1.77 10.81 2.92 11.33 4.19 11.33 6.8 11.33 8.92 9.16 8.92 6.5 8.92 3.93 6.94 1.82 4.46 1.68 4.46 1.68 4.41 1.68 4.41 1.68 4.14 1.68 3.92 1.45 3.92 1.18 3.92 1.18 3.92 0.52 3.92 0.52 3.92 0.24 4.16 0 4.46 0 4.77 0 5.01 0.24 5.01 0.52 5.01 0.52 5.01 0.61 5.01 0.61 7.83 1.02 10.01 3.51 10.01 6.5 10.01 9.49 7.83 11.98 5.01 12.39ZM 8.25 6.5C 8.25 8.79 6.43 10.65 4.19 10.65 1.95 10.65 0.13 8.79 0.13 6.5 0.13 4.21 1.95 2.35 4.19 2.35 6.43 2.35 8.25 4.21 8.25 6.5ZM 3.77 8.92C 3.84 8.95 4.09 8.84 4.16 8.79 4.24 8.74 4.4 8.36 4.24 8.39 4.1 8.43 3.96 8.45 3.9 8.56 3.84 8.68 3.7 8.89 3.77 8.92ZM 4.03 3.36C 3.97 3.28 3.87 3.24 3.81 3.23 3.75 3.22 3.56 3.25 3.52 3.31 3.48 3.37 3.36 3.38 3.23 3.4 3.1 3.41 2.83 3.51 2.82 3.59 2.81 3.68 2.87 3.76 2.98 3.77 3.08 3.78 3.24 3.7 3.34 3.72 3.44 3.75 3.55 3.68 3.63 3.77 3.71 3.85 3.74 3.97 3.78 4.07 3.81 4.17 3.82 4.26 3.84 4.34 3.87 4.42 3.85 4.5 3.91 4.5 3.98 4.5 3.99 4.43 4.03 4.42 4.22 4.41 4.36 4.57 4.33 4.75 4.31 4.81 4.19 4.96 3.99 4.98 3.99 4.98 3.64 4.93 3.47 4.66 3.27 4.33 2.96 4.13 2.96 4.13 2.96 4.13 2.74 3.92 2.52 3.9 2.45 3.9 2.19 4.04 2.19 4.04 2.19 4.04 1.69 4.48 1.65 4.56 1.62 4.64 1.42 5.04 1.45 5.19 1.48 5.34 1.51 5.66 1.76 5.71 2 5.77 2.07 5.97 2.13 6 2.19 6.03 2.3 6.1 2.35 6.1 2.4 6.09 2.57 6.31 2.48 6.32 2.4 6.32 2.21 6.24 2.17 6.32 2.13 6.39 2.06 6.7 2.07 6.88 2.08 7.07 1.95 7.39 1.93 7.59 1.91 7.79 1.95 8.84 2.24 8.91 2.53 8.98 3.35 8.69 3.52 8.55 3.68 8.42 3.88 8.11 3.96 7.94 4.05 7.77 4.3 7.36 4.53 7.24 4.77 7.12 4.99 6.99 5.05 6.93 5.1 6.86 5.26 6.76 5.1 6.71 4.95 6.66 4.8 6.59 4.8 6.49 4.8 6.38 4.77 6.24 4.7 6.13 4.63 6.02 4.48 5.71 4.46 5.61 4.45 5.51 4.56 5.27 4.59 5.37 4.62 5.46 4.77 5.83 4.83 5.94 4.88 6.04 5 6.28 5.17 6.24 5.34 6.21 5.74 6.1 5.78 6.06 5.82 6.02 5.31 5.62 5.48 5.55 5.64 5.49 6.18 6.02 6.28 6.1 6.37 6.18 6.54 6.34 6.54 6.46 6.54 6.58 6.53 7.5 6.57 7.46 6.62 7.42 7.12 6.71 7.16 6.82 7.2 6.92 7.41 7.24 7.44 7.29 7.5 7.03 7.53 6.77 7.53 6.5 7.53 4.68 6.13 3.19 4.38 3.09 4.35 3.1 4.33 3.11 4.31 3.14 4.23 3.28 4.35 3.36 4.43 3.41 4.58 3.5 4.38 3.61 4.31 3.62 4.12 3.65 4.11 3.47 4.03 3.36Z" fill="rgb(255,255,255)"/></svg>
