<?xml version="1.0" encoding="utf-8"?>
<svg xmlns="http://www.w3.org/2000/svg"
	xmlns:xlink="http://www.w3.org/1999/xlink"
	width="14px" height="14px" viewBox="0 0 14 14">
<path fillRule="evenodd" d="M 13.32 7.03C 13.32 7.03 9.2 7.03 7.83 7.03 7.58 7.03 7.58 6.86 7.58 6.86 7.58 6.86 7.58 3.87 7.58 3.87 7.58 3.87 7.58 3.68 7.79 3.68 9.17 3.68 13.32 3.68 13.32 3.68 13.69 3.68 14 3.98 14 4.34 14 4.34 14 6.38 14 6.38 14 6.74 13.69 7.03 13.32 7.03ZM 10.76 3.13C 10.51 3.17 10.22 3.2 9.91 3.2 9.91 3.2 9.91 3.2 9.91 3.2 9.39 3.2 8.82 3.13 8.37 3.01 7.69 2.83 7.33 2.57 7.25 2.19 7.2 1.94 7.25 1.52 8.29 0.85 8.91 0.45 9.6 0.16 10.13 0.06 10.34 0.02 10.54-0 10.72-0 11.58-0 12.14 0.44 12.3 1.24 12.4 1.7 12.33 2.1 12.09 2.42 11.83 2.77 11.39 3.01 10.76 3.13ZM 11.23 1.44C 11.17 1.14 11.06 1.05 10.72 1.05 10.61 1.05 10.48 1.06 10.34 1.09 9.73 1.2 9.01 1.61 8.61 1.93 8.57 1.95 8.59 1.98 8.61 1.98 8.91 2.07 9.38 2.15 9.91 2.15 10.15 2.15 10.37 2.13 10.55 2.09 10.88 2.03 11.11 1.93 11.2 1.81 11.22 1.78 11.28 1.69 11.23 1.44ZM 5.65 3.01C 5.19 3.13 4.63 3.2 4.11 3.2 3.79 3.2 3.51 3.17 3.26 3.13 2.62 3.01 2.19 2.77 1.92 2.42 1.69 2.1 1.62 1.7 1.71 1.24 1.87 0.44 2.44-0 3.29-0 3.47-0 3.67 0.02 3.88 0.06 4.42 0.16 5.11 0.45 5.72 0.85 6.76 1.52 6.81 1.94 6.76 2.19 6.69 2.57 6.32 2.83 5.65 3.01ZM 5.42 1.93C 5.02 1.62 4.28 1.2 3.67 1.09 3.53 1.06 3.4 1.05 3.29 1.05 2.96 1.05 2.85 1.14 2.78 1.44 2.73 1.69 2.8 1.78 2.82 1.81 2.91 1.93 3.14 2.03 3.47 2.09 3.65 2.13 3.87 2.15 4.11 2.15 4.63 2.15 5.09 2.07 5.4 1.99 5.42 1.98 5.45 1.96 5.42 1.93ZM 6.42 3.9C 6.42 3.9 6.42 6.86 6.42 6.86 6.42 6.86 6.42 7.03 6.21 7.03 4.85 7.03 0.68 7.03 0.68 7.03 0.31 7.03-0 6.74-0 6.38-0 6.38-0 4.34-0 4.34-0 3.98 0.31 3.68 0.68 3.68 0.68 3.68 4.83 3.68 6.2 3.68 6.42 3.68 6.42 3.9 6.42 3.9ZM 1.45 7.77C 1.45 7.77 4.98 7.77 6.18 7.77 6.42 7.77 6.42 7.99 6.42 7.99 6.42 7.99 6.42 13.83 6.42 13.83 6.42 13.83 6.42 14 6.26 14 5.06 14 1.45 14 1.45 14 1.08 14 0.77 13.7 0.77 13.34 0.77 13.34 0.77 8.42 0.77 8.42 0.77 8.07 1.08 7.77 1.45 7.77ZM 7.82 7.77C 9 7.77 12.55 7.77 12.55 7.77 12.92 7.77 13.23 8.07 13.23 8.42 13.23 8.42 13.23 13.34 13.23 13.34 13.23 13.7 12.92 14 12.55 14 12.55 14 8.95 14 7.75 14 7.57 14 7.58 13.84 7.58 13.84 7.58 13.84 7.58 8.06 7.58 8.06 7.58 8.06 7.53 7.77 7.82 7.77Z" fill="rgb(152,152,152)"/></svg>
