<?xml version="1.0" encoding="utf-8"?>
<svg xmlns="http://www.w3.org/2000/svg"
	xmlns:xlink="http://www.w3.org/1999/xlink"
	width="14px" height="14px" viewBox="0 0 14 14">
<path fillRule="evenodd" d="M 13.91 0.77C 13.91 0.77 10.41 5.74 10.41 5.74 10.6 5.81 10.73 5.99 10.73 6.19 10.73 6.47 10.5 6.69 10.22 6.69 10.22 6.69 9.63 6.69 9.63 6.69 8.89 6.16 7.98 5.85 7 5.85 6.02 5.85 5.11 6.16 4.37 6.69 4.37 6.69 3.78 6.69 3.78 6.69 3.5 6.69 3.27 6.47 3.27 6.19 3.27 5.99 3.4 5.81 3.59 5.74 3.59 5.74 0.09 0.77 0.09 0.77-0.02 0.62-0.03 0.42 0.06 0.26 0.14 0.1 0.31-0 0.5-0 0.5-0 4.52-0 4.52-0 4.68-0 4.84 0.08 4.93 0.21 4.93 0.21 6.57 2.54 6.57 2.54 6.57 2.54 4.37 5.7 4.37 5.7 4.37 5.7 5.2 5.7 5.2 5.7 5.2 5.7 9.07 0.21 9.07 0.21 9.16 0.08 9.32-0 9.48-0 9.48-0 13.5-0 13.5-0 13.69-0 13.86 0.1 13.94 0.26 14.03 0.42 14.02 0.62 13.91 0.77ZM 7 6.54C 9.09 6.54 10.78 8.21 10.78 10.27 10.78 12.32 9.09 14 7 14 4.91 14 3.22 12.32 3.22 10.27 3.22 8.21 4.91 6.54 7 6.54ZM 5.79 9.31C 5.91 9.46 6.13 9.49 6.28 9.37 6.28 9.37 6.77 8.99 6.77 8.99 6.77 8.99 6.77 11.69 6.77 11.69 6.77 11.69 6.29 11.69 6.29 11.69 6.1 11.69 5.94 11.84 5.94 12.03 5.94 12.23 6.1 12.38 6.29 12.38 6.29 12.38 7.94 12.38 7.94 12.38 8.14 12.38 8.29 12.23 8.29 12.03 8.29 11.84 8.14 11.69 7.94 11.69 7.94 11.69 7.47 11.69 7.47 11.69 7.47 11.69 7.47 8.28 7.47 8.28 7.47 8.15 7.39 8.03 7.27 7.97 7.15 7.91 7.01 7.93 6.9 8.01 6.9 8.01 5.85 8.82 5.85 8.82 5.7 8.94 5.67 9.16 5.79 9.31Z" fill="rgb(152,152,152)"/></svg>
