<?xml version="1.0" encoding="utf-8"?>
<svg xmlns="http://www.w3.org/2000/svg"
	xmlns:xlink="http://www.w3.org/1999/xlink"
	width="10px" height="10px" viewBox="0 0 10 10">
<path fillRule="evenodd" d="M 9.07 5.06C 8.04 6.03 6.48 6.18 5.28 5.51 5.28 5.51 2.99 7.68 2.99 7.68 2.99 7.68 4.09 8.73 4.09 8.73 4.4 9.02 4.4 9.49 4.09 9.78 3.79 10.07 3.29 10.07 2.99 9.78 2.99 9.78 1.88 8.73 1.88 8.73 1.88 8.73 1.33 9.26 1.33 9.26 1.02 9.55 0.52 9.55 0.22 9.26-0.09 8.97-0.09 8.5 0.22 8.21 0.22 8.21 4.17 4.46 4.17 4.46 3.46 3.32 3.61 1.83 4.64 0.86 5.87-0.3 7.85-0.3 9.07 0.86 10.29 2.02 10.29 3.9 9.07 5.06ZM 5.75 1.91C 5.14 2.49 5.14 3.43 5.75 4.01 6.36 4.59 7.35 4.59 7.96 4.01 8.58 3.43 8.58 2.49 7.96 1.91 7.35 1.33 6.36 1.33 5.75 1.91Z" fill="rgb(255,255,255)"/></svg>
