<?xml version="1.0" encoding="utf-8"?>
<svg xmlns="http://www.w3.org/2000/svg"
	xmlns:xlink="http://www.w3.org/1999/xlink"
	width="16px" height="16px" viewBox="0 0 16 16">
<path fillRule="evenodd" d="M 15.5 1C 15.5 1 6.5 1 6.5 1 6.22 1 6 0.78 6 0.5 6 0.22 6.22-0 6.5-0 6.5-0 15.5-0 15.5-0 15.78-0 16 0.22 16 0.5 16 0.78 15.78 1 15.5 1ZM 3 13C 3 13 1 13 1 13 0.45 13-0 12.55-0 12-0 12-0 10-0 10-0 9.45 0.45 9 1 9 1 9 3 9 3 9 3.55 9 4 9.45 4 10 4 10 4 12 4 12 4 12.55 3.55 13 3 13ZM 3 4C 3 4 1 4 1 4 0.45 4-0 3.55-0 3-0 3-0 1-0 1-0 0.45 0.45-0 1-0 1-0 3-0 3-0 3.55-0 4 0.45 4 1 4 1 4 3 4 3 4 3.55 3.55 4 3 4ZM 6.5 2C 6.5 2 13.5 2 13.5 2 13.78 2 14 2.22 14 2.5 14 2.78 13.78 3 13.5 3 13.5 3 6.5 3 6.5 3 6.22 3 6 2.78 6 2.5 6 2.22 6.22 2 6.5 2ZM 6.5 4C 6.5 4 12.5 4 12.5 4 12.78 4 13 4.22 13 4.5 13 4.78 12.78 5 12.5 5 12.5 5 6.5 5 6.5 5 6.22 5 6 4.78 6 4.5 6 4.22 6.22 4 6.5 4ZM 6.5 6C 6.5 6 10.5 6 10.5 6 10.78 6 11 6.22 11 6.5 11 6.78 10.78 7 10.5 7 10.5 7 6.5 7 6.5 7 6.22 7 6 6.78 6 6.5 6 6.22 6.22 6 6.5 6ZM 6.5 9C 6.5 9 15.5 9 15.5 9 15.78 9 16 9.22 16 9.5 16 9.78 15.78 10 15.5 10 15.5 10 6.5 10 6.5 10 6.22 10 6 9.78 6 9.5 6 9.22 6.22 9 6.5 9ZM 6.5 11C 6.5 11 13.5 11 13.5 11 13.78 11 14 11.22 14 11.5 14 11.78 13.78 12 13.5 12 13.5 12 6.5 12 6.5 12 6.22 12 6 11.78 6 11.5 6 11.22 6.22 11 6.5 11ZM 6.5 13C 6.5 13 12.5 13 12.5 13 12.78 13 13 13.22 13 13.5 13 13.78 12.78 14 12.5 14 12.5 14 6.5 14 6.5 14 6.22 14 6 13.78 6 13.5 6 13.22 6.22 13 6.5 13ZM 6.5 15C 6.5 15 10.5 15 10.5 15 10.78 15 11 15.22 11 15.5 11 15.78 10.78 16 10.5 16 10.5 16 6.5 16 6.5 16 6.22 16 6 15.78 6 15.5 6 15.22 6.22 15 6.5 15Z" fill="rgb(50,50,50)"/></svg>
