<?xml version="1.0" encoding="utf-8"?>
<svg xmlns="http://www.w3.org/2000/svg"
	xmlns:xlink="http://www.w3.org/1999/xlink"
	width="16px" height="16px" viewBox="0 0 16 16">
<path fillRule="evenodd" d="M 15.5 7C 15.5 7 6.5 7 6.5 7 6.22 7 6 6.78 6 6.5 6 6.22 6.22 6 6.5 6 6.5 6 15.5 6 15.5 6 15.78 6 16 6.22 16 6.5 16 6.78 15.78 7 15.5 7ZM 6.5 2C 6.5 2 10.5 2 10.5 2 10.78 2 11 2.22 11 2.5 11 2.78 10.78 3 10.5 3 10.5 3 6.5 3 6.5 3 6.22 3 6 2.78 6 2.5 6 2.22 6.22 2 6.5 2ZM 15.5 1C 15.5 1 6.5 1 6.5 1 6.22 1 6 0.78 6 0.5 6 0.22 6.22-0 6.5-0 6.5-0 15.5-0 15.5-0 15.78-0 16 0.22 16 0.5 16 0.78 15.78 1 15.5 1ZM 3 16C 3 16 1 16 1 16 0.45 16-0 15.55-0 15-0 15-0 13-0 13-0 12.45 0.45 12 1 12 1 12 3 12 3 12 3.55 12 4 12.45 4 13 4 13 4 15 4 15 4 15.55 3.55 16 3 16ZM 3 10C 3 10 1 10 1 10 0.45 10-0 9.55-0 9-0 9-0 7-0 7-0 6.45 0.45 6 1 6 1 6 3 6 3 6 3.55 6 4 6.45 4 7 4 7 4 9 4 9 4 9.55 3.55 10 3 10ZM 3 4C 3 4 1 4 1 4 0.45 4-0 3.55-0 3-0 3-0 1-0 1-0 0.45 0.45-0 1-0 1-0 3-0 3-0 3.55-0 4 0.45 4 1 4 1 4 3 4 3 4 3.55 3.55 4 3 4ZM 6.5 8C 6.5 8 10.5 8 10.5 8 10.78 8 11 8.22 11 8.5 11 8.78 10.78 9 10.5 9 10.5 9 6.5 9 6.5 9 6.22 9 6 8.78 6 8.5 6 8.22 6.22 8 6.5 8ZM 6.5 12C 6.5 12 15.5 12 15.5 12 15.78 12 16 12.22 16 12.5 16 12.78 15.78 13 15.5 13 15.5 13 6.5 13 6.5 13 6.22 13 6 12.78 6 12.5 6 12.22 6.22 12 6.5 12ZM 6.5 14C 6.5 14 10.5 14 10.5 14 10.78 14 11 14.22 11 14.5 11 14.78 10.78 15 10.5 15 10.5 15 6.5 15 6.5 15 6.22 15 6 14.78 6 14.5 6 14.22 6.22 14 6.5 14Z" fill="rgb(203,203,203)"/></svg>
