<?xml version="1.0" encoding="utf-8"?>
<svg xmlns="http://www.w3.org/2000/svg"
	xmlns:xlink="http://www.w3.org/1999/xlink"
	width="16px" height="14px" viewBox="0 0 16 14">
<path fillRule="evenodd" d="M 1-0C 0.45-0-0 0.48-0 1.08-0 1.08-0 12.92-0 12.92-0 13.52 0.45 14 1 14 1 14 15 14 15 14 15.55 14 16 13.52 16 12.92 16 12.92 16 1.08 16 1.08 16 0.48 15.55-0 15-0 15-0 1-0 1-0ZM 14.5 1.61C 14.5 1.61 14.5 2.04 14.5 2.04 14.5 2.04 8 7.91 8 7.91 8 7.91 1.5 2.04 1.5 2.04 1.5 2.04 1.5 1.61 1.5 1.61 1.5 1.61 14.5 1.61 14.5 1.61ZM 1.5 12.38C 1.5 12.38 1.5 4.15 1.5 4.15 1.5 4.15 7.36 9.44 7.36 9.44 7.54 9.61 7.77 9.69 8 9.69 8.23 9.69 8.46 9.61 8.64 9.44 8.64 9.44 14.5 4.15 14.5 4.15 14.5 4.15 14.5 12.38 14.5 12.38 14.5 12.38 1.5 12.38 1.5 12.38Z" fill="rgb(153,153,153)"/></svg>
