<?xml version="1.0" encoding="utf-8"?>
<svg xmlns="http://www.w3.org/2000/svg"
	xmlns:xlink="http://www.w3.org/1999/xlink"
	width="31px" height="31px" viewBox="0 0 31 31">
<path fillRule="evenodd" d="M 30.85 16.88C 30.85 16.92 30.84 16.95 30.83 16.98 30.65 18.19 30.32 19.39 29.84 20.56 29.83 20.58 29.82 20.6 29.81 20.62 29 22.59 27.76 24.47 26.12 26.11 25.75 26.49 25.35 26.85 24.95 27.18 24.95 27.18 24.95 27.18 24.95 27.18 24.95 27.18 24.95 27.18 24.95 27.18 24.24 27.78 23.49 28.3 22.71 28.76 22.66 28.79 22.62 28.82 22.57 28.84 21.76 29.31 20.93 29.7 20.09 30.01 20.07 30.02 20.05 30.03 20.02 30.04 18.81 30.49 17.56 30.78 16.31 30.91 16.29 30.91 16.27 30.92 16.24 30.92 16.24 30.92 16.23 30.92 16.22 30.92 15.74 30.97 15.25 30.99 14.77 30.99 13.96 30.99 13.17 30.92 12.39 30.78 12.38 30.78 12.38 30.79 12.38 30.79 12.37 30.79 12.36 30.78 12.35 30.78 12.3 30.77 12.26 30.76 12.21 30.75 12.2 30.75 12.19 30.75 12.18 30.74 9.8 30.29 7.58 29.19 5.81 27.42 5.44 27.05 5.1 26.65 4.76 26.2 4.35 25.89 3.95 25.55 3.57 25.18-1.67 19.94-1.08 10.83 4.88 4.87 10.84-1.08 19.95-1.67 25.19 3.57 25.57 3.95 25.92 4.35 26.24 4.77 26.67 5.1 27.07 5.44 27.43 5.81 29.44 7.82 30.59 10.4 30.91 13.16 30.92 13.2 30.93 13.24 30.92 13.28 31.05 14.46 31.02 15.67 30.85 16.88ZM 28.71 20.5C 28.71 20.5 27.28 19.07 27.28 19.07 27.25 19.12 27.22 19.18 27.2 19.23 27.17 19.29 27.14 19.36 27.1 19.42 26.96 19.71 26.8 20 26.64 20.29 26.63 20.31 26.61 20.33 26.6 20.36 26.57 20.41 26.53 20.47 26.5 20.53 26.5 20.53 27.96 21.99 27.96 21.99 28.24 21.5 28.49 21.01 28.71 20.5ZM 26.44 24.19C 26.78 23.77 27.09 23.34 27.39 22.91 27.39 22.91 25.92 21.44 25.92 21.44 25.75 21.68 25.58 21.92 25.4 22.15 25.39 22.16 25.38 22.18 25.37 22.19 25.23 22.36 25.1 22.54 24.95 22.71 24.95 22.71 26.44 24.19 26.44 24.19ZM 25.38 25.37C 25.5 25.24 25.62 25.11 25.74 24.98 25.74 24.98 24.25 23.5 24.25 23.5 24.13 23.62 24.01 23.75 23.89 23.88 23.64 24.12 23.39 24.36 23.13 24.59 23.13 24.59 23.12 24.59 23.12 24.6 23.12 24.6 24.6 26.09 24.6 26.09 24.87 25.85 25.13 25.62 25.38 25.37ZM 23.78 26.75C 23.78 26.75 22.3 25.27 22.3 25.27 22.3 25.28 22.3 25.28 22.3 25.28 22.23 25.33 22.17 25.39 22.1 25.43 21.83 25.64 21.55 25.84 21.27 26.03 21.25 26.04 21.23 26.05 21.2 26.07 21.14 26.11 21.06 26.16 20.99 26.2 20.99 26.2 22.47 27.68 22.47 27.68 22.92 27.4 23.35 27.08 23.78 26.75ZM 21.52 28.22C 21.52 28.22 20.06 26.76 20.06 26.76 19.87 26.87 19.67 26.97 19.47 27.07 19.42 27.1 19.36 27.13 19.3 27.16 19.06 27.28 18.81 27.39 18.56 27.5 18.56 27.5 19.99 28.92 19.99 28.92 20.5 28.72 21.02 28.48 21.52 28.22ZM 16.42 29.83C 17.25 29.73 18.07 29.56 18.88 29.31 18.88 29.31 17.48 27.91 17.48 27.91 17.4 27.94 17.31 27.97 17.22 28 16.99 28.07 16.77 28.14 16.55 28.2 16.46 28.22 16.38 28.25 16.29 28.27 16.01 28.34 15.73 28.41 15.45 28.46 15.34 28.49 15.23 28.51 15.12 28.52 15.12 28.52 16.42 29.83 16.42 29.83ZM 12.62 29.75C 13.41 29.89 14.22 29.95 15.03 29.93 15.03 29.93 13.8 28.7 13.8 28.7 13.74 28.7 13.69 28.71 13.63 28.71 13.38 28.73 13.14 28.74 12.89 28.75 12.77 28.75 12.65 28.76 12.53 28.76 12.52 28.76 12.5 28.76 12.48 28.76 12.18 28.76 11.88 28.74 11.59 28.72 11.59 28.72 12.62 29.75 12.62 29.75ZM 10.59 29.22C 10.59 29.22 9.87 28.49 9.87 28.49 9.57 28.44 9.28 28.37 8.99 28.29 8.89 28.26 8.79 28.23 8.69 28.2 8.56 28.16 8.43 28.13 8.3 28.09 9.02 28.56 9.79 28.93 10.59 29.22ZM 27.71 12.07C 27.7 11.96 27.7 11.84 27.69 11.72 27.67 11.44 27.65 11.15 27.61 10.87 27.6 10.77 27.58 10.67 27.56 10.57 27.52 10.27 27.47 9.97 27.4 9.69 27.38 9.61 27.36 9.54 27.34 9.47 27.26 9.16 27.18 8.86 27.07 8.56 27.06 8.53 27.05 8.5 27.04 8.47 26.93 8.13 26.79 7.8 26.64 7.48 26.64 7.46 26.63 7.45 26.62 7.43 26.46 7.09 26.29 6.76 26.1 6.44 26.09 6.43 26.09 6.42 26.08 6.42 25.89 6.09 25.67 5.77 25.44 5.46 25.43 5.45 25.42 5.44 25.41 5.42 25.41 5.42 25.27 5.24 25.27 5.24 25.02 4.92 24.74 4.61 24.45 4.32 22.25 2.12 19.31 1.04 16.23 1.04 12.54 1.04 8.65 2.59 5.62 5.62 0.08 11.17-0.51 19.61 4.32 24.43 4.62 24.73 4.93 25.01 5.25 25.26 5.25 25.26 5.43 25.4 5.43 25.4 5.44 25.41 5.46 25.42 5.47 25.43 5.78 25.66 6.1 25.88 6.42 26.07 6.43 26.08 6.44 26.08 6.44 26.08 6.77 26.28 7.1 26.45 7.44 26.61 7.45 26.62 7.46 26.62 7.48 26.63 7.81 26.78 8.14 26.92 8.48 27.04 8.51 27.04 8.53 27.05 8.55 27.06 8.86 27.16 9.17 27.25 9.49 27.33 9.55 27.35 9.62 27.37 9.68 27.38 9.98 27.45 10.28 27.51 10.58 27.55 10.68 27.57 10.77 27.58 10.87 27.6 11.16 27.64 11.45 27.66 11.74 27.68 11.85 27.69 11.96 27.69 12.07 27.7 12.36 27.71 12.65 27.71 12.94 27.7 13.05 27.69 13.16 27.69 13.27 27.68 13.57 27.67 13.86 27.64 14.16 27.6 14.26 27.59 14.35 27.58 14.45 27.57 14.76 27.52 15.08 27.47 15.4 27.4 15.46 27.39 15.52 27.37 15.59 27.36 15.91 27.28 16.24 27.2 16.56 27.1 16.59 27.09 16.62 27.09 16.66 27.08 17.01 26.97 17.36 26.84 17.71 26.7 17.75 26.69 17.8 26.67 17.84 26.65 18.18 26.52 18.52 26.36 18.86 26.2 18.9 26.18 18.95 26.16 19 26.13 19.33 25.96 19.66 25.78 19.98 25.59 20.03 25.56 20.07 25.54 20.12 25.51 20.44 25.31 20.76 25.1 21.08 24.88 21.12 24.85 21.16 24.82 21.2 24.79 21.52 24.56 21.83 24.31 22.13 24.06 22.16 24.03 22.19 24.01 22.22 23.98 22.53 23.71 22.84 23.43 23.14 23.13 23.44 22.83 23.72 22.52 23.99 22.21 24.02 22.18 24.04 22.15 24.07 22.12 24.33 21.82 24.57 21.51 24.8 21.19 24.83 21.15 24.86 21.11 24.89 21.06 25.11 20.75 25.32 20.44 25.52 20.12 25.55 20.07 25.58 20.02 25.6 19.97 25.8 19.65 25.97 19.32 26.14 18.99 26.17 18.94 26.19 18.89 26.22 18.84 26.38 18.51 26.53 18.17 26.66 17.84 26.68 17.79 26.7 17.74 26.72 17.69 26.85 17.35 26.97 17.01 27.08 16.67 27.09 16.62 27.11 16.58 27.12 16.53 27.21 16.22 27.29 15.91 27.36 15.6 27.38 15.53 27.4 15.45 27.42 15.38 27.48 15.07 27.53 14.76 27.58 14.45 27.59 14.35 27.61 14.25 27.62 14.15 27.65 13.85 27.68 13.56 27.69 13.27 27.7 13.16 27.71 13.04 27.71 12.92 27.72 12.64 27.72 12.35 27.71 12.07ZM 27.93 17.45C 27.86 17.64 27.79 17.83 27.72 18.02 27.72 18.02 29.13 19.43 29.13 19.43 29.41 18.65 29.61 17.86 29.75 17.07 29.75 17.07 28.41 15.73 28.41 15.73 28.37 15.91 28.33 16.09 28.29 16.26 28.27 16.35 28.24 16.44 28.22 16.52 28.15 16.75 28.09 16.97 28.01 17.2 27.99 17.28 27.96 17.37 27.93 17.45ZM 28.1 8.3C 28.12 8.36 28.14 8.42 28.16 8.48 28.21 8.67 28.27 8.85 28.32 9.04 28.35 9.15 28.38 9.26 28.4 9.37 28.46 9.61 28.51 9.86 28.56 10.1 28.58 10.24 28.6 10.38 28.62 10.51 28.63 10.59 28.65 10.68 28.66 10.76 28.66 10.76 29.56 11.66 29.56 11.66 29.25 10.47 28.78 9.33 28.1 8.3ZM 29.89 13.48C 29.89 13.48 28.77 12.36 28.77 12.36 28.77 12.42 28.77 12.48 28.77 12.55 28.77 12.69 28.76 12.84 28.76 12.98 28.75 13.13 28.75 13.27 28.74 13.42 28.73 13.67 28.7 13.92 28.68 14.17 28.66 14.27 28.65 14.37 28.64 14.47 28.64 14.47 29.92 15.74 29.92 15.74 29.97 14.98 29.96 14.23 29.89 13.48ZM 22.4 22.39C 21.74 23.04 21.03 23.63 20.28 24.15 20.28 24.15 20.3 24.16 20.3 24.16 20.3 24.16 19.65 24.56 19.65 24.56 19.65 24.56 19.65 24.57 19.64 24.57 19.4 24.72 19.14 24.86 18.89 25 18.82 25.04 18.75 25.07 18.67 25.11 18.48 25.21 18.29 25.3 18.1 25.39 18.02 25.43 17.94 25.46 17.87 25.5 17.62 25.61 17.37 25.71 17.12 25.81 17.04 25.84 16.96 25.86 16.88 25.89 16.7 25.96 16.52 26.02 16.33 26.07 16.23 26.1 16.12 26.13 16.02 26.16 15.84 26.22 15.65 26.26 15.47 26.31 15.39 26.33 15.3 26.35 15.22 26.37 14.96 26.42 14.71 26.47 14.45 26.51 14.36 26.52 14.28 26.53 14.19 26.54 14 26.57 13.8 26.59 13.6 26.61 13.52 26.62 13.44 26.62 13.35 26.63 13.08 26.65 12.81 26.66 12.54 26.66 9.63 26.66 6.98 25.6 5.07 23.69 2.92 21.54 1.88 18.55 2.14 15.26 2.39 12 3.9 8.84 6.37 6.36 9.09 3.65 12.68 2.09 16.23 2.09 19.13 2.09 21.79 3.15 23.7 5.06 25.85 7.21 26.89 10.2 26.63 13.5 26.37 16.76 24.87 19.91 22.4 22.39ZM 5.81 22.95C 7.53 24.66 9.91 25.6 12.54 25.6 12.77 25.6 13 25.6 13.23 25.58 13.3 25.58 13.38 25.57 13.46 25.56 13.61 25.55 13.76 25.54 13.91 25.52 14.01 25.5 14.1 25.49 14.19 25.48 14.33 25.46 14.47 25.44 14.6 25.41 14.7 25.39 14.8 25.38 14.89 25.36 15.04 25.33 15.18 25.29 15.33 25.26 15.41 25.24 15.49 25.22 15.58 25.2 15.79 25.14 16.01 25.07 16.22 25 16.3 24.98 16.38 24.95 16.45 24.92 16.61 24.87 16.76 24.82 16.9 24.76 16.99 24.73 17.07 24.69 17.15 24.66 17.3 24.6 17.45 24.53 17.6 24.46 17.67 24.43 17.74 24.4 17.81 24.37 17.99 24.28 18.17 24.19 18.35 24.09 18.38 24.08 18.4 24.07 18.43 24.05 18.43 24.05 15.46 21.76 15.46 21.76 15.08 21.46 14.88 21 14.94 20.55 14.94 20.55 15.14 19.14 15.14 19.14 15.14 19.14 15.52 19.07 15.52 19.07 17.22 18.77 18.48 17.75 19.25 16.03 19.25 16.03 19.37 15.76 19.37 15.76 19.37 15.76 19.67 15.73 19.67 15.73 20.35 15.65 20.86 15.23 20.91 14.7 20.91 14.7 20.99 13.82 20.99 13.82 21.03 13.4 20.76 12.98 20.27 12.73 20.27 12.73 20 12.59 20 12.59 20 12.59 19.99 12.29 19.99 12.29 19.88 9.77 18.14 8.54 14.66 8.54 14.51 8.54 14.38 8.54 14.25 8.55 12.97 8.63 11.89 8.4 11.11 7.87 11.06 7.83 11.01 7.8 10.97 7.77 10.97 8.59 10.88 8.79 10.48 9.35 10.39 9.48 10.28 9.64 10.14 9.86 9.81 10.37 9.54 10.95 9.34 11.58 9.34 11.58 9.27 11.82 9.27 11.82 9.27 11.82 9.04 11.91 9.04 11.91 8.71 12.05 8.46 12.33 8.39 12.65 8.39 12.65 8.24 13.33 8.24 13.33 8.17 13.68 8.32 14.03 8.64 14.18 8.64 14.18 8.92 14.32 8.92 14.32 8.92 14.32 8.93 14.63 8.93 14.63 9.01 16.15 9.59 17.27 10.7 18.05 10.7 18.05 10.98 18.25 10.98 18.25 10.98 18.25 10.75 19.5 10.75 19.5 10.67 19.93 10.34 20.29 9.91 20.39 9.91 20.39 6.77 21.16 6.77 21.16 6.17 21.33 5.69 21.89 5.51 22.61 5.61 22.72 5.71 22.84 5.81 22.95ZM 22.96 5.81C 21.24 4.09 18.85 3.15 16.23 3.15 12.96 3.15 9.63 4.59 7.11 7.11 4.82 9.41 3.42 12.33 3.19 15.34 3 17.7 3.56 19.88 4.75 21.64 5.12 20.91 5.74 20.36 6.49 20.14 6.49 20.14 9.66 19.37 9.66 19.37 9.69 19.36 9.7 19.34 9.71 19.31 9.71 19.31 9.82 18.71 9.82 18.71 8.69 17.8 8.05 16.55 7.9 14.96 7.33 14.55 7.05 13.84 7.21 13.1 7.21 13.1 7.36 12.43 7.36 12.43 7.48 11.85 7.88 11.34 8.41 11.05 8.63 10.41 8.92 9.82 9.26 9.29 9.4 9.06 9.53 8.89 9.62 8.75 9.92 8.33 9.92 8.33 9.91 7.67 9.91 7.4 9.92 7.13 9.94 6.86 9.96 6.58 10.17 6.34 10.45 6.26 10.73 6.19 11.01 6.29 11.16 6.51 11.23 6.62 11.38 6.78 11.7 7 12.28 7.39 13.14 7.57 14.18 7.5 14.34 7.49 14.5 7.48 14.66 7.48 19.55 7.49 20.84 9.85 21.02 11.95 21.73 12.42 22.12 13.15 22.04 13.92 22.04 13.92 21.96 14.8 21.96 14.8 21.87 15.74 21.12 16.5 20.09 16.72 19.22 18.47 17.85 19.61 16.08 20.03 16.08 20.03 15.99 20.7 15.99 20.7 15.98 20.75 16.01 20.85 16.11 20.93 16.11 20.93 19.4 23.47 19.4 23.47 20.2 22.94 20.96 22.34 21.65 21.64 23.95 19.35 25.34 16.42 25.58 13.41 25.81 10.43 24.88 7.73 22.96 5.81ZM 29.73 3.9C 29.44 3.9 29.21 3.66 29.21 3.37 29.21 2.21 28.5 1.26 27.62 1.26 27.33 1.26 27.1 1.03 27.1 0.74 27.1 0.45 27.33 0.21 27.62 0.21 29.08 0.21 30.26 1.63 30.26 3.37 30.26 3.66 30.02 3.9 29.73 3.9ZM 1.27 27.09C 1.56 27.09 1.8 27.32 1.8 27.61 1.8 28.49 2.51 29.2 3.38 29.2 3.67 29.2 3.9 29.43 3.9 29.72 3.9 30.01 3.67 30.25 3.38 30.25 1.92 30.25 0.74 29.07 0.74 27.61 0.74 27.32 0.98 27.09 1.27 27.09ZM 24.46 28.67C 27.08 28.67 29.21 26.54 29.21 23.92 29.21 23.63 29.44 23.4 29.73 23.4 30.02 23.4 30.26 23.63 30.26 23.92 30.26 27.12 27.66 29.72 24.46 29.72 24.17 29.72 23.93 29.48 23.93 29.2 23.93 28.9 24.17 28.67 24.46 28.67ZM 28.15 29.72C 29.01 29.72 29.73 29.24 29.73 28.67 29.73 28.38 29.97 28.14 30.26 28.14 30.55 28.14 30.79 28.38 30.79 28.67 30.79 29.83 29.6 30.78 28.15 30.78 27.86 30.78 27.62 30.54 27.62 30.25 27.62 29.96 27.86 29.72 28.15 29.72Z" fill="rgb(63,178,53)"/></svg>
