<?xml version="1.0" encoding="utf-8"?>
<svg xmlns="http://www.w3.org/2000/svg"
	xmlns:xlink="http://www.w3.org/1999/xlink"
	width="8px" height="8px" viewBox="0 0 8 8">
<path fillRule="evenodd" d="M 8 1.5C 8 1.64 7.94 1.76 7.85 1.85 7.85 1.85 7.85 1.85 7.85 1.85 7.85 1.85 7.21 2.5 7.21 2.5 7.21 2.5 5.5 0.79 5.5 0.79 5.5 0.79 6.15 0.15 6.15 0.15 6.15 0.15 6.15 0.15 6.15 0.15 6.24 0.06 6.36-0 6.5-0 6.64-0 6.76 0.06 6.85 0.15 6.85 0.15 6.85 0.15 6.85 0.15 6.85 0.15 7.85 1.15 7.85 1.15 7.85 1.15 7.85 1.15 7.85 1.15 7.94 1.24 8 1.36 8 1.5ZM 4.79 1.5C 4.79 1.5 6.5 3.21 6.5 3.21 6.5 3.21 1.85 7.85 1.85 7.85 1.85 7.85 1.85 7.85 1.85 7.85 1.76 7.94 1.64 8 1.5 8 1.5 8 0.5 8 0.5 8 0.22 8-0 7.78-0 7.5-0 7.5-0 6.5-0 6.5-0 6.36 0.06 6.24 0.15 6.15 0.15 6.15 0.15 6.15 0.15 6.15 0.15 6.15 4.79 1.5 4.79 1.5Z" fill="rgb(203,203,203)"/></svg>
