<?xml version="1.0" encoding="utf-8"?>
<svg xmlns="http://www.w3.org/2000/svg"
	xmlns:xlink="http://www.w3.org/1999/xlink"
	width="84px" height="84px" viewBox="0 0 84 84">
<path fillRule="evenodd" d="M 2-0C 2-0 84-0 84-0 84-0 84 84 84 84 84 84 2 84 2 84 0.9 84-0 83.1-0 82-0 82-0 2-0 2-0 0.9 0.9-0 2-0Z" fill="rgb(255,217,63)"/><path fillRule="evenodd" d="M 52.27 36.23C 51.31 36.23 50.53 37.03 50.53 38 50.53 38.64 50.86 39.2 51.35 39.51 50.31 40.98 48.84 42.69 47.33 43.19 45.33 43.84 43.47 39.83 42.56 37.45 43.23 37.21 43.73 36.55 43.73 35.77 43.73 34.79 42.95 34 42 34 41.04 34 40.27 34.79 40.27 35.77 40.27 36.55 40.76 37.21 41.44 37.45 40.53 39.83 38.67 43.84 36.67 43.19 35.16 42.69 33.68 40.98 32.64 39.51 33.13 39.2 33.46 38.64 33.46 38 33.46 37.03 32.69 36.23 31.73 36.23 30.78 36.23 30 37.03 30 38 30 38.99 30.78 39.78 31.73 39.78 31.75 39.78 31.76 39.78 31.78 39.78 31.78 39.78 34.12 50 34.12 50 34.12 50 49.88 50 49.88 50 49.88 50 52.22 39.78 52.22 39.78 52.23 39.78 52.25 39.78 52.27 39.78 53.22 39.78 54 38.99 54 38 54 37.03 53.22 36.23 52.27 36.23Z" fill="rgb(255,255,255)"/></svg>
