<?xml version="1.0" encoding="utf-8"?>
<svg xmlns="http://www.w3.org/2000/svg"
	xmlns:xlink="http://www.w3.org/1999/xlink"
	width="10px" height="10px" viewBox="0 0 10 10">
<path fillRule="evenodd" d="M 10.01 0.87C 10.01 0.87 10.01 0.87 10.01 0.87 10.01 0.87 10.01 3.23 10.01 3.23 10.01 3.23 10.01 3.23 10.01 3.23 10.01 3.44 9.93 3.66 9.76 3.82 9.6 3.98 9.38 4.06 9.17 4.06 9.17 4.06 9.17 4.06 9.17 4.06 9.17 4.06 6.79 4.06 6.79 4.06 6.79 4.06 6.79 4.06 6.79 4.06 6.57 4.06 6.36 3.98 6.19 3.82 5.86 3.5 5.86 2.97 6.19 2.64 6.36 2.48 6.57 2.4 6.79 2.4 6.79 2.4 6.79 2.4 6.79 2.4 6.79 2.4 7.08 2.4 7.08 2.4 6.51 1.95 5.79 1.67 5 1.67 4.07 1.67 3.23 2.04 2.62 2.64 2.62 2.64 2.62 2.64 2.62 2.64 2.29 2.97 1.76 2.97 1.43 2.64 1.1 2.32 1.1 1.79 1.43 1.46 1.43 1.46 1.43 1.46 1.43 1.46 2.34 0.56 3.6-0 5-0 6.28-0 7.44 0.49 8.33 1.26 8.33 1.26 8.33 0.87 8.33 0.87 8.33 0.87 8.33 0.87 8.33 0.87 8.33 0.66 8.41 0.45 8.57 0.29 8.9-0.04 9.43-0.04 9.76 0.29 9.93 0.45 10.01 0.66 10.01 0.87ZM 3.81 7.36C 3.64 7.52 3.43 7.6 3.21 7.6 3.21 7.6 3.21 7.6 3.21 7.6 3.21 7.6 2.92 7.6 2.92 7.6 3.49 8.05 4.21 8.33 5 8.33 5.93 8.33 6.77 7.96 7.38 7.36 7.38 7.36 7.38 7.36 7.38 7.36 7.71 7.03 8.24 7.03 8.57 7.36 8.9 7.68 8.9 8.21 8.57 8.54 8.57 8.54 8.57 8.54 8.57 8.54 7.66 9.44 6.4 10 5 10 3.72 10 2.56 9.51 1.67 8.74 1.67 8.74 1.67 9.12 1.67 9.12 1.67 9.12 1.67 9.12 1.67 9.12 1.67 9.34 1.59 9.55 1.43 9.71 1.1 10.04 0.57 10.04 0.24 9.71 0.07 9.55-0.01 9.34-0.01 9.12-0.01 9.12-0.01 9.12-0.01 9.12-0.01 9.12-0.01 6.77-0.01 6.77-0.01 6.77-0.01 6.77-0.01 6.77-0.01 6.55 0.07 6.34 0.24 6.18 0.4 6.02 0.62 5.93 0.83 5.93 0.83 5.93 0.83 5.93 0.83 5.93 0.83 5.93 3.21 5.93 3.21 5.93 3.21 5.93 3.21 5.93 3.21 5.93 3.43 5.93 3.64 6.02 3.81 6.18 4.14 6.5 4.14 7.03 3.81 7.36Z" fill="rgb(203,203,203)"/></svg>
