<?xml version="1.0" encoding="utf-8"?>
<svg xmlns="http://www.w3.org/2000/svg"
	xmlns:xlink="http://www.w3.org/1999/xlink"
	width="10px" height="14px" viewBox="0 0 10 14">
<path fillRule="evenodd" d="M 9.43 14C 9.43 14 0.78 14 0.78 14 0.46 14 0.21 13.74 0.21 13.42 0.21 13.09 0.46 12.83 0.78 12.83 0.78 12.83 1.21 12.83 1.21 12.83 1.21 12.83 1.21 9.93 1.21 9.93 1.21 9.93 0.57 9.93 0.57 9.93 0.25 9.93-0 9.67-0 9.34-0 9.02 0.25 8.76 0.57 8.76 0.57 8.76 3 8.76 3 8.76 3.32 8.76 3.57 9.02 3.57 9.34 3.57 9.67 3.32 9.93 3 9.93 3 9.93 2.36 9.93 2.36 9.93 2.36 9.93 2.36 12.83 2.36 12.83 2.36 12.83 6.08 12.83 6.08 12.83 6.08 12.81 6.08 11.88 6.08 11.88 5.66 12.01 5.21 12.08 4.75 12.08 4.44 12.08 4.18 11.82 4.18 11.5 4.18 11.18 4.44 10.92 4.75 10.92 6.53 10.92 7.97 9.56 7.97 7.89 7.97 7.14 7.67 6.42 7.15 5.88 7.15 5.88 7.97 5.06 7.97 5.06 8.68 5.82 9.11 6.83 9.11 7.89 9.11 9.32 8.36 10.59 7.21 11.35 7.21 11.35 7.21 12.81 7.21 12.83 7.21 12.83 9.43 12.83 9.43 12.83 9.74 12.83 10 13.09 10 13.42 10 13.74 9.74 14 9.43 14ZM 8.31 1.7C 8.31 1.7 7.56 1.02 7.56 1.02 7.32 0.8 7.3 0.44 7.51 0.19 7.72-0.05 8.08-0.07 8.31 0.15 8.31 0.15 9.07 0.83 9.07 0.83 9.31 1.04 9.33 1.41 9.12 1.65 9.01 1.78 8.7 1.99 8.31 1.7ZM 7.76 3.64C 7.76 3.64 4.6 6.8 4.6 6.8 4.38 7.02 4.1 7.12 3.82 7.12 3.59 7.12 3.36 7.05 3.17 6.9 3.17 6.9 2.57 7.5 2.57 7.5 2.44 7.64 2.07 7.8 1.77 7.49 1.54 7.26 1.55 6.89 1.77 6.67 1.77 6.67 2.32 6.12 2.32 6.12 2.17 5.94 2.09 5.72 2.08 5.48 2.08 5.2 2.19 4.91 2.4 4.7 2.4 4.7 5.56 1.54 5.56 1.54 5.98 1.13 6.64 1.11 7.07 1.5 7.07 1.5 7.72 2.09 7.72 2.09 8.36 2.74 7.97 3.43 7.76 3.64Z" fill="rgb(255,255,255)"/></svg>
