<?xml version="1.0" encoding="utf-8"?>
<svg xmlns="http://www.w3.org/2000/svg"
	xmlns:xlink="http://www.w3.org/1999/xlink"
	width="11px" height="15px" viewBox="0 0 11 15">
<path fillRule="evenodd" d="M 3.02 11.46C 3.02 11.46 10.02 11.46 10.02 11.46 10.51 11.46 10.9 11.07 10.9 10.58 10.9 10.58 10.9 1.71 10.9 1.71 10.9 1.22 10.51 0.82 10.02 0.82 10.02 0.82 8.27 0.82 8.27 0.82 8.27 0.82 8.27 4.37 8.27 4.37 8.27 4.37 6.96 3.48 6.96 3.48 6.96 3.48 5.65 4.37 5.65 4.37 5.65 4.37 5.65 0.82 5.65 0.82 5.65 0.82 2.15 0.82 2.15 0.82 1.18 0.82 0.4 1.62 0.4 2.6 0.4 2.6 0.4 12.35 0.4 12.35 0.4 13.82 1.58 15.01 3.02 15.01 3.02 15.01 10.02 15.01 10.02 15.01 10.51 15.01 10.9 14.61 10.9 14.12 10.9 13.63 10.51 13.24 10.02 13.24 10.02 13.24 3.02 13.24 3.02 13.24 2.54 13.24 2.15 12.84 2.15 12.35 2.15 11.86 2.54 11.46 3.02 11.46 3.02 11.46 3.02 11.46 3.02 11.46Z" fill="rgb(255,255,255)"/></svg>
