<?xml version="1.0" encoding="utf-8"?>
<svg xmlns="http://www.w3.org/2000/svg"
	xmlns:xlink="http://www.w3.org/1999/xlink"
	width="50px" height="42px" viewBox="0 0 50 42">
<path fillRule="evenodd" d="M 48.11 34.85C 48.11 34.85 45.35 34.85 45.35 34.85 44.95 34.85 44.62 34.52 44.62 34.11 44.62 33.69 44.95 33.36 45.35 33.36 45.35 33.36 48.11 33.36 48.11 33.36 48.35 33.36 48.53 33.21 48.53 33.08 48.53 33.08 48.53 31.09 48.53 31.09 48.53 29.97 47.86 28.65 46.57 28.26 46.57 28.26 42.57 27.65 42.57 27.65 42.56 27.65 42.54 27.64 42.52 27.64 42.51 27.64 42.51 27.64 42.5 27.63 42.47 27.63 42.45 27.62 42.42 27.61 42.41 27.61 42.41 27.6 42.4 27.6 42.38 27.59 42.36 27.58 42.34 27.57 42.34 27.57 42.33 27.57 42.33 27.57 42.32 27.56 42.32 27.56 42.31 27.56 42.3 27.55 42.3 27.55 42.29 27.55 41.4 27.03 41.1 26.1 40.99 25.19 40.02 25.77 38.9 26.11 37.71 26.11 36.71 26.11 35.75 25.88 34.85 25.43 34.49 25.24 34.34 24.8 34.52 24.43 34.7 24.06 35.14 23.91 35.5 24.09 36.2 24.44 36.94 24.62 37.71 24.62 40.66 24.62 43.05 21.96 43.05 18.68 43.05 18.68 43.05 15.51 43.05 15.51 43.05 14.78 42.47 14.19 41.76 14.19 41.76 14.19 39.87 14.19 39.87 14.19 39.47 14.19 39.14 13.86 39.14 13.45 39.14 13.04 39.47 12.7 39.87 12.7 39.87 12.7 41.76 12.7 41.76 12.7 43.28 12.7 44.52 13.96 44.52 15.51 44.52 15.51 44.52 15.9 44.52 15.9 44.58 15.63 44.62 15.36 44.62 15.08 44.62 15.08 44.62 11.07 44.62 11.07 44.62 9.73 43.54 8.63 42.22 8.63 42.22 8.63 39.87 8.63 39.87 8.63 39.47 8.63 39.14 8.3 39.14 7.89 39.14 7.48 39.47 7.14 39.87 7.14 39.87 7.14 42.22 7.14 42.22 7.14 44.35 7.14 46.09 8.9 46.09 11.07 46.09 11.07 46.09 15.08 46.09 15.08 46.09 16.46 45.52 17.76 44.52 18.68 44.52 18.68 44.52 18.68 44.52 18.68 44.52 20.79 43.71 22.7 42.4 24.06 42.41 25 42.48 25.85 42.94 26.2 42.94 26.2 46.83 26.79 46.83 26.79 46.86 26.8 46.89 26.8 46.92 26.81 48.94 27.39 50 29.4 50 31.09 50 31.09 50 33.08 50 33.08 50 34.06 49.15 34.85 48.11 34.85ZM 35.13 17.42C 35.13 20.56 33.92 23.4 32 25.42 32 27.16 32.09 28.77 33.08 29.42 33.08 29.42 39.18 30.35 39.18 30.35 39.21 30.35 39.24 30.36 39.27 30.37 40.62 30.75 41.76 31.6 42.58 32.81 43.33 33.92 43.74 35.26 43.74 36.59 43.74 36.59 43.74 39.67 43.74 39.67 43.74 40.95 42.61 41.99 41.22 41.99 41.22 41.99 8.78 41.99 8.78 41.99 7.39 41.99 6.26 40.95 6.26 39.67 6.26 39.67 6.26 36.59 6.26 36.59 6.26 35.26 6.67 33.92 7.42 32.81 8.24 31.6 9.38 30.75 10.73 30.37 10.76 30.36 10.78 30.35 10.81 30.35 10.81 30.35 16.92 29.42 16.92 29.42 17.91 28.77 18 27.16 18 25.42 16.08 23.4 14.87 20.56 14.87 17.42 14.87 17.42 14.87 17.17 14.87 17.17 13.38 15.82 12.52 13.91 12.52 11.86 12.52 11.86 12.52 7.89 12.52 7.89 12.52 5.07 14.61 2.75 17.3 2.42 17.62 1.03 18.84-0.01 20.3-0.01 20.3-0.01 30.48-0.01 30.48-0.01 34.34-0.01 37.48 3.18 37.48 7.09 37.48 7.09 37.48 11.86 37.48 11.86 37.48 13.91 36.62 15.82 35.13 17.17 35.13 17.17 35.13 17.42 35.13 17.42ZM 16.62 30.97C 16.62 30.97 11.08 31.81 11.08 31.81 8.88 32.46 7.73 34.7 7.73 36.59 7.73 36.59 7.73 39.67 7.73 39.67 7.73 40.12 8.21 40.5 8.78 40.5 8.78 40.5 41.22 40.5 41.22 40.5 41.79 40.5 42.27 40.12 42.27 39.67 42.27 39.67 42.27 36.59 42.27 36.59 42.27 34.7 41.12 32.46 38.92 31.81 38.92 31.81 33.38 30.97 33.38 30.97 32.56 34.59 29.09 37.23 25 37.23 20.91 37.23 17.44 34.59 16.62 30.97ZM 31.99 30.45C 30.9 29.55 30.62 28.03 30.55 26.68 28.96 27.82 27.05 28.5 25 28.5 22.95 28.5 21.04 27.82 19.45 26.68 19.38 28.03 19.1 29.55 18.01 30.45 18.6 33.5 21.53 35.74 25 35.74 28.47 35.74 31.4 33.5 31.99 30.45ZM 36.01 11.86C 36.01 11.86 36.01 7.09 36.01 7.09 36.01 4 33.53 1.48 30.48 1.48 30.48 1.48 20.3 1.48 20.3 1.48 19.41 1.48 18.69 2.22 18.69 3.12 18.69 3.53 18.36 3.87 17.95 3.87 15.77 3.87 13.99 5.67 13.99 7.89 13.99 7.89 13.99 11.86 13.99 11.86 13.99 12.96 14.3 14.01 14.87 14.9 14.87 14.9 14.87 12.65 14.87 12.65 14.87 10.49 16.61 8.73 18.74 8.73 18.74 8.73 32.04 8.73 32.04 8.73 32.45 8.73 32.78 9.07 32.78 9.48 32.78 9.89 32.45 10.22 32.04 10.22 32.04 10.22 18.74 10.22 18.74 10.22 17.42 10.22 16.34 11.31 16.34 12.65 16.34 12.65 16.34 16.76 16.34 16.76 16.34 16.81 16.34 16.85 16.34 16.9 16.34 16.9 16.34 17.42 16.34 17.42 16.34 22.71 20.23 27.01 25 27.01 29.77 27.01 33.66 22.71 33.66 17.42 33.66 17.42 33.66 11.86 33.66 11.86 33.66 11.45 33.99 11.12 34.39 11.12 34.8 11.12 35.13 11.45 35.13 11.86 35.13 11.86 35.13 14.9 35.13 14.9 35.7 14.01 36.01 12.96 36.01 11.86ZM 12.29 24.62C 13.06 24.62 13.8 24.44 14.5 24.09 14.86 23.91 15.3 24.06 15.48 24.43 15.66 24.8 15.51 25.24 15.15 25.43 14.25 25.88 13.29 26.11 12.29 26.11 11.1 26.11 9.98 25.77 9.01 25.19 8.9 26.1 8.59 27.03 7.71 27.55 7.7 27.55 7.7 27.55 7.69 27.56 7.68 27.56 7.68 27.56 7.67 27.57 7.67 27.57 7.66 27.57 7.66 27.57 7.64 27.58 7.62 27.59 7.6 27.6 7.59 27.6 7.59 27.61 7.58 27.61 7.55 27.62 7.53 27.63 7.5 27.63 7.49 27.64 7.48 27.64 7.48 27.64 7.46 27.64 7.44 27.65 7.43 27.65 7.43 27.65 3.43 28.26 3.43 28.26 2.14 28.65 1.47 29.97 1.47 31.09 1.47 31.09 1.47 33.08 1.47 33.08 1.47 33.21 1.65 33.36 1.89 33.36 1.89 33.36 4.65 33.36 4.65 33.36 5.05 33.36 5.38 33.69 5.38 34.11 5.38 34.52 5.05 34.85 4.65 34.85 4.65 34.85 1.89 34.85 1.89 34.85 0.85 34.85-0 34.06-0 33.08-0 33.08-0 31.09-0 31.09-0 29.4 1.06 27.39 3.08 26.81 3.11 26.8 3.14 26.8 3.17 26.79 3.17 26.79 7.06 26.2 7.06 26.2 7.52 25.85 7.59 25 7.6 24.06 6.29 22.7 5.48 20.79 5.48 18.68 5.48 18.68 5.48 18.68 5.48 18.68 4.48 17.76 3.91 16.46 3.91 15.08 3.91 15.08 3.91 12.51 3.91 12.51 3.91 10.62 5.28 9.04 7.06 8.74 7.35 7.82 8.2 7.14 9.21 7.14 9.21 7.14 10.13 7.14 10.13 7.14 10.53 7.14 10.86 7.48 10.86 7.89 10.86 8.3 10.53 8.63 10.13 8.63 10.13 8.63 9.21 8.63 9.21 8.63 8.77 8.63 8.42 8.99 8.42 9.43 8.42 9.84 8.09 10.18 7.69 10.18 6.42 10.18 5.38 11.23 5.38 12.51 5.38 12.51 5.38 15.08 5.38 15.08 5.38 15.36 5.42 15.63 5.48 15.9 5.48 15.9 5.48 15.51 5.48 15.51 5.48 13.96 6.72 12.7 8.24 12.7 8.24 12.7 10.13 12.7 10.13 12.7 10.53 12.7 10.86 13.04 10.86 13.45 10.86 13.86 10.53 14.19 10.13 14.19 10.13 14.19 8.24 14.19 8.24 14.19 7.53 14.19 6.95 14.78 6.95 15.51 6.95 15.51 6.95 18.68 6.95 18.68 6.95 21.96 9.34 24.62 12.29 24.62Z" fill="rgb(63,178,53)"/></svg>
