<?xml version="1.0" encoding="utf-8"?>
<svg xmlns="http://www.w3.org/2000/svg"
	xmlns:xlink="http://www.w3.org/1999/xlink"
	width="40px" height="42px" viewBox="0 0 40 42">
<path fillRule="evenodd" d="M 39.38 28.79C 39.38 28.79 28.39 39.88 28.39 39.88 28.39 39.88 22.83 41.41 22.83 41.41 22.83 41.41 22.46 41.79 22.46 41.79 22.32 41.93 22.14 42 21.95 42 21.77 42 21.59 41.93 21.45 41.79 21.45 41.79 21.44 41.79 21.44 41.79 21.44 41.79 21.44 41.78 21.44 41.78 21.17 41.5 21.17 41.05 21.45 40.77 21.45 40.77 21.82 40.39 21.82 40.39 21.82 40.39 23.33 34.78 23.33 34.78 23.33 34.78 34.33 23.69 34.33 23.69 35.13 22.88 36.54 22.88 37.34 23.69 37.34 23.69 39.38 25.74 39.38 25.74 40.21 26.58 40.21 27.95 39.38 28.79ZM 23.48 39.74C 23.48 39.74 26.64 38.87 26.64 38.87 26.64 38.87 24.34 36.55 24.34 36.55 24.34 36.55 23.48 39.74 23.48 39.74ZM 24.98 35.16C 24.98 35.16 28.01 38.22 28.01 38.22 28.01 38.22 35.33 30.83 35.33 30.83 35.33 30.83 32.3 27.77 32.3 27.77 32.3 27.77 24.98 35.16 24.98 35.16ZM 38.37 26.76C 38.37 26.76 36.33 24.71 36.33 24.71 36.07 24.44 35.6 24.44 35.34 24.71 35.34 24.71 33.31 26.75 33.31 26.75 33.31 26.75 36.34 29.81 36.34 29.81 36.34 29.81 38.37 27.77 38.37 27.77 38.64 27.49 38.64 27.04 38.37 26.76ZM 30 22.34C 29.61 22.34 29.29 22.02 29.29 21.62 29.29 21.62 29.29 5.76 29.29 5.76 29.29 5.76 24.29 5.76 24.29 5.76 24.29 5.76 24.29 7.2 24.29 7.2 24.29 7.6 23.97 7.92 23.57 7.92 23.57 7.92 7.14 7.92 7.14 7.92 6.75 7.92 6.43 7.6 6.43 7.2 6.43 7.2 6.43 5.76 6.43 5.76 6.43 5.76 1.43 5.76 1.43 5.76 1.43 5.76 1.43 40.36 1.43 40.36 1.43 40.36 17.86 40.36 17.86 40.36 18.25 40.36 18.57 40.68 18.57 41.08 18.57 41.48 18.25 41.8 17.86 41.8 17.86 41.8 0.72 41.8 0.72 41.8 0.32 41.8 0 41.48 0 41.08 0 41.08 0 5.04 0 5.04 0 4.64 0.32 4.32 0.72 4.32 0.72 4.32 6.43 4.32 6.43 4.32 6.43 4.32 6.43 2.87 6.43 2.87 6.43 2.48 6.75 2.15 7.14 2.15 7.14 2.15 11.43 2.15 11.43 2.15 11.43 2.15 11.43 0.71 11.43 0.71 11.43 0.31 11.75-0.01 12.14-0.01 12.14-0.01 18.57-0.01 18.57-0.01 18.97-0.01 19.29 0.31 19.29 0.71 19.29 0.71 19.29 2.15 19.29 2.15 19.29 2.15 23.57 2.15 23.57 2.15 23.97 2.15 24.29 2.48 24.29 2.87 24.29 2.87 24.29 4.32 24.29 4.32 24.29 4.32 30 4.32 30 4.32 30.4 4.32 30.72 4.64 30.72 5.04 30.72 5.04 30.72 21.62 30.72 21.62 30.72 22.02 30.4 22.34 30 22.34ZM 17.86 2.87C 17.86 2.87 17.86 1.43 17.86 1.43 17.86 1.43 12.86 1.43 12.86 1.43 12.86 1.43 12.86 2.87 12.86 2.87 12.86 2.87 12.86 4.32 12.86 4.32 12.86 4.32 17.86 4.32 17.86 4.32 17.86 4.32 17.86 2.87 17.86 2.87ZM 22.86 5.04C 22.86 5.04 22.86 3.6 22.86 3.6 22.86 3.6 19.29 3.6 19.29 3.6 19.29 3.6 19.29 5.04 19.29 5.04 19.29 5.44 18.97 5.76 18.57 5.76 18.57 5.76 12.14 5.76 12.14 5.76 11.75 5.76 11.43 5.44 11.43 5.04 11.43 5.04 11.43 3.6 11.43 3.6 11.43 3.6 7.86 3.6 7.86 3.6 7.86 3.6 7.86 5.04 7.86 5.04 7.86 5.04 7.86 6.48 7.86 6.48 7.86 6.48 22.86 6.48 22.86 6.48 22.86 6.48 22.86 5.04 22.86 5.04ZM 5 33.15C 5 33.15 14.29 33.15 14.29 33.15 14.68 33.15 15 33.47 15 33.87 15 34.27 14.68 34.59 14.29 34.59 14.29 34.59 5 34.59 5 34.59 4.61 34.59 4.29 34.27 4.29 33.87 4.29 33.47 4.61 33.15 5 33.15ZM 23.57 25.94C 23.57 25.94 5 25.94 5 25.94 4.61 25.94 4.29 25.62 4.29 25.22 4.29 24.82 4.61 24.5 5 24.5 5 24.5 23.57 24.5 23.57 24.5 23.97 24.5 24.29 24.82 24.29 25.22 24.29 25.62 23.97 25.94 23.57 25.94ZM 25.72 21.62C 25.72 21.62 20.72 21.62 20.72 21.62 20.32 21.62 20 21.29 20 20.9 20 20.5 20.32 20.17 20.72 20.17 20.72 20.17 25.72 20.17 25.72 20.17 26.11 20.17 26.43 20.5 26.43 20.9 26.43 21.29 26.11 21.62 25.72 21.62ZM 18.37 20.38C 18.49 20.52 18.57 20.71 18.57 20.9 18.57 21.08 18.49 21.27 18.37 21.41 18.23 21.54 18.04 21.62 17.86 21.62 17.67 21.62 17.49 21.54 17.35 21.41 17.22 21.27 17.14 21.09 17.14 20.9 17.14 20.71 17.22 20.52 17.35 20.38 17.62 20.12 18.09 20.12 18.37 20.38ZM 5 20.17C 5 20.17 15 20.17 15 20.17 15.4 20.17 15.72 20.5 15.72 20.9 15.72 21.29 15.4 21.62 15 21.62 15 21.62 5 21.62 5 21.62 4.61 21.62 4.29 21.29 4.29 20.9 4.29 20.5 4.61 20.17 5 20.17ZM 5 12.97C 4.61 12.97 4.29 12.64 4.29 12.25 4.29 11.85 4.61 11.52 5 11.52 5 11.52 14.29 11.52 14.29 11.52 14.68 11.52 15 11.85 15 12.25 15 12.64 14.68 12.97 14.29 12.97 14.29 12.97 5 12.97 5 12.97ZM 26.43 16.57C 26.43 16.97 26.11 17.29 25.72 17.29 25.72 17.29 5 17.29 5 17.29 4.61 17.29 4.29 16.97 4.29 16.57 4.29 16.17 4.61 15.85 5 15.85 5 15.85 25.72 15.85 25.72 15.85 26.11 15.85 26.43 16.17 26.43 16.57ZM 4.29 29.55C 4.29 29.15 4.61 28.83 5 28.83 5 28.83 20.72 28.83 20.72 28.83 21.11 28.83 21.43 29.15 21.43 29.55 21.43 29.95 21.11 30.27 20.72 30.27 20.72 30.27 5 30.27 5 30.27 4.61 30.27 4.29 29.95 4.29 29.55Z" fill="rgb(63,178,53)"/></svg>
