<?xml version="1.0" encoding="utf-8"?>
<svg xmlns="http://www.w3.org/2000/svg"
	xmlns:xlink="http://www.w3.org/1999/xlink"
	width="32px" height="42px" viewBox="0 0 32 42">
<path fillRule="evenodd" d="M 26.19 5.7C 26.19 5.7 32 5.7 32 5.7 32 5.7 29.52 18.06 29.52 18.06 29.52 18.06 25.8 18.06 25.8 18.06 24.79 21.68 21.89 24.49 18.26 25.33 18.26 25.33 18.26 32.43 18.26 32.43 18.26 32.43 21.76 32.43 21.76 32.43 21.76 32.43 21.76 37.96 21.76 37.96 21.76 37.96 23.27 37.96 23.27 37.96 23.27 37.96 23.27 41.99 23.27 41.99 23.27 41.99 8.73 41.99 8.73 41.99 8.73 41.99 8.73 37.96 8.73 37.96 8.73 37.96 10.24 37.96 10.24 37.96 10.24 37.96 10.24 32.43 10.24 32.43 10.24 32.43 13.74 32.43 13.74 32.43 13.74 32.43 13.74 25.33 13.74 25.33 10.11 24.49 7.21 21.68 6.2 18.06 6.2 18.06 2.48 18.06 2.48 18.06 2.48 18.06-0 5.7-0 5.7-0 5.7 5.81 5.7 5.81 5.7 5.81 5.7 5.81 4.02 5.81 4.02 5.81 4.02 4.05 4.02 4.05 4.02 4.05 4.02 4.05-0.01 4.05-0.01 4.05-0.01 27.95-0.01 27.95-0.01 27.95-0.01 27.95 4.02 27.95 4.02 27.95 4.02 26.19 4.02 26.19 4.02 26.19 4.02 26.19 5.7 26.19 5.7ZM 28.39 16.66C 28.39 16.66 30.31 7.11 30.31 7.11 30.31 7.11 26.19 7.11 26.19 7.11 26.19 7.11 26.19 15.24 26.19 15.24 26.19 15.72 26.16 16.19 26.09 16.66 26.09 16.66 28.39 16.66 28.39 16.66ZM 10.12 39.37C 10.12 39.37 10.12 40.59 10.12 40.59 10.12 40.59 21.88 40.59 21.88 40.59 21.88 40.59 21.88 39.37 21.88 39.37 21.88 39.37 21.76 39.37 21.76 39.37 21.76 39.37 10.24 39.37 10.24 39.37 10.24 39.37 10.12 39.37 10.12 39.37ZM 11.62 33.83C 11.62 33.83 11.62 37.96 11.62 37.96 11.62 37.96 20.38 37.96 20.38 37.96 20.38 37.96 20.38 33.83 20.38 33.83 20.38 33.83 11.62 33.83 11.62 33.83ZM 16.87 32.43C 16.87 32.43 16.87 25.55 16.87 25.55 16.58 25.57 16.29 25.58 16 25.58 15.71 25.58 15.42 25.57 15.13 25.55 15.13 25.55 15.13 32.43 15.13 32.43 15.13 32.43 16.87 32.43 16.87 32.43ZM 7.2 15.24C 7.2 20.17 11.15 24.18 16 24.18 20.85 24.18 24.8 20.17 24.8 15.24 24.8 15.24 24.8 4.02 24.8 4.02 24.8 4.02 7.2 4.02 7.2 4.02 7.2 4.02 7.2 15.24 7.2 15.24ZM 5.81 15.24C 5.81 15.24 5.81 7.11 5.81 7.11 5.81 7.11 1.69 7.11 1.69 7.11 1.69 7.11 3.61 16.66 3.61 16.66 3.61 16.66 5.91 16.66 5.91 16.66 5.84 16.19 5.81 15.72 5.81 15.24ZM 26.57 2.62C 26.57 2.62 26.57 1.4 26.57 1.4 26.57 1.4 5.43 1.4 5.43 1.4 5.43 1.4 5.43 2.62 5.43 2.62 5.43 2.62 26.57 2.62 26.57 2.62ZM 10.24 8.8C 10.24 8.8 21.76 8.8 21.76 8.8 21.76 8.8 21.76 15.75 21.76 15.75 21.76 15.75 10.24 15.75 10.24 15.75 10.24 15.75 10.24 8.8 10.24 8.8ZM 11.62 14.34C 11.62 14.34 20.38 14.34 20.38 14.34 20.38 14.34 20.38 10.21 20.38 10.21 20.38 10.21 11.62 10.21 11.62 10.21 11.62 10.21 11.62 14.34 11.62 14.34Z" fill="rgb(63,178,53)"/></svg>
