<svg id="SvgjsSvg1000" xmlns="http://www.w3.org/2000/svg" version="1.1" xmlns:xlink="http://www.w3.org/1999/xlink" xmlns:svgjs="http://svgjs.com/svgjs" width="10" height="10" viewBox="0 0 10 10"><title>star</title><desc>Created with Avocode.</desc><defs id="SvgjsDefs1001"></defs><path id="SvgjsPath1007" d="M754.292 433.839C755.096 433.435 756.496 432.73 756.496 432.73C756.496 432.73 757.871 433.415 758.747 433.851C758.463 433.71 759.478 434.466 759.385 433.416C759.295 432.407 759.15 430.786 759.15 430.786C759.15 430.786 760.154 429.6 760.78 428.86C760.519 429.16900000000004 761.5 428.324 760.587 428.142C759.663 427.957 758.006 427.827 758.006 427.827C758.006 427.827 757.348 426.213 756.862 425.321C757.088 425.73600000000005 756.605 424.403 756.12 425.30100000000004C755.638 426.194 754.931 427.83400000000006 754.931 427.83400000000006C754.931 427.83400000000006 753.325 427.96700000000004 752.4000000000001 428.1550000000001C752.7630000000001 428.0810000000001 751.5540000000001 428.1160000000001 752.1680000000001 428.8370000000001C752.7940000000001 429.5720000000001 753.8370000000001 430.7970000000001 753.8370000000001 430.7970000000001C753.8370000000001 430.7970000000001 753.6970000000001 432.42500000000007 753.6110000000001 433.4340000000001C753.6330000000002 433.1740000000001 753.2940000000001 434.3400000000001 754.2920000000001 433.83900000000006Z " fill="#ffd940" fill-opacity="1" transform="matrix(1,0,0,1,-751,-424)"></path></svg>
