<?xml version="1.0" encoding="utf-8"?>
<svg xmlns="http://www.w3.org/2000/svg"
	xmlns:xlink="http://www.w3.org/1999/xlink"
	width="14px" height="14px" viewBox="0 0 14 14">
<path fillRule="evenodd" d="M 13.69 6.34C 13.97 6.06 14.07 5.65 13.95 5.27 13.83 4.88 13.52 4.61 13.14 4.55 13.14 4.55 9.75 4.04 9.75 4.04 9.6 4.02 9.48 3.92 9.42 3.79 9.42 3.79 7.9 0.58 7.9 0.58 7.73 0.22 7.39-0.01 7-0.01 6.62-0.01 6.27 0.22 6.1 0.58 6.1 0.58 4.59 3.79 4.59 3.79 4.52 3.92 4.4 4.02 4.25 4.04 4.25 4.04 0.87 4.55 0.87 4.55 0.49 4.61 0.17 4.88 0.06 5.27-0.06 5.65 0.03 6.06 0.31 6.34 0.31 6.34 2.76 8.84 2.76 8.84 2.86 8.94 2.91 9.1 2.89 9.25 2.89 9.25 2.31 12.77 2.31 12.77 2.26 13.08 2.34 13.38 2.53 13.62 2.83 13.99 3.35 14.11 3.77 13.88 3.77 13.88 6.79 12.21 6.79 12.21 6.92 12.14 7.08 12.14 7.21 12.21 7.21 12.21 10.24 13.88 10.24 13.88 10.38 13.96 10.54 14 10.7 14 11 14 11.28 13.86 11.47 13.62 11.67 13.38 11.74 13.08 11.69 12.77 11.69 12.77 11.11 9.25 11.11 9.25 11.09 9.1 11.14 8.94 11.24 8.84 11.24 8.84 13.69 6.34 13.69 6.34Z" fill="rgb(152,152,152)"/></svg>
