<?xml version="1.0" encoding="utf-8"?>
<svg xmlns="http://www.w3.org/2000/svg"
	xmlns:xlink="http://www.w3.org/1999/xlink"
	width="12px" height="12px" viewBox="0 0 12 12">
<path fillRule="evenodd" d="M 6 12C 2.69 12-0 9.31-0 6-0 2.69 2.69-0 6-0 9.31-0 12 2.69 12 6 12 9.31 9.31 12 6 12ZM 6 1.5C 3.51 1.5 1.5 3.51 1.5 6 1.5 8.48 3.51 10.5 6 10.5 8.48 10.5 10.5 8.48 10.5 6 10.5 3.51 8.48 1.5 6 1.5ZM 6.75 7.36C 6.75 7.36 6.75 7.5 6.75 7.5 6.75 7.5 6 7.5 6 7.5 6 7.5 5.25 7.5 5.25 7.5 5.25 7.5 5.25 6.37 5.25 6.37 5.25 6.17 5.42 6 5.62 6 6.12 6 6 6 6 6 6.41 6 6.75 5.66 6.75 5.25 6.75 4.84 6.41 4.5 6 4.5 5.59 4.5 5.25 4.84 5.25 5.25 5.25 5.25 3.75 5.25 3.75 5.25 3.75 4.01 4.76 3 6 3 7.24 3 8.25 4.01 8.25 5.25 8.25 6.23 7.62 7.05 6.75 7.36ZM 6.75 8.25C 6.75 8.25 6.75 9 6.75 9 6.75 9 6 9 6 9 6 9 5.25 9 5.25 9 5.25 9 5.25 8.62 5.25 8.62 5.25 8.62 5.25 8.25 5.25 8.25 5.25 8.25 6 8.25 6 8.25 6 8.25 6.75 8.25 6.75 8.25Z" fill="rgb(203,203,203)"/></svg>
