<?xml version="1.0" encoding="utf-8"?>
<svg xmlns="http://www.w3.org/2000/svg"
	xmlns:xlink="http://www.w3.org/1999/xlink"
	width="32px" height="32px" viewBox="0 0 32 32">
<path fillRule="evenodd" d="M 31.41 15.59C 31.41 15.59 15.59 31.41 15.59 31.41 15.19 31.81 14.68 32 14.17 32 13.66 32 13.15 31.81 12.76 31.41 12.76 31.41 0.59 19.24 0.59 19.24 0.21 18.87-0 18.36-0 17.83-0 17.3 0.21 16.79 0.59 16.41 0.59 16.41 16.41 0.59 16.41 0.59 16.79 0.21 17.3 0 17.83 0 17.83 0 30-0 30-0 30.53-0 31.04 0.21 31.41 0.59 31.79 0.96 32 1.47 32 2 32 2 32 14.17 32 14.17 32 14.7 31.79 15.21 31.41 15.59ZM 3.41 17.83C 3.41 17.83 14.17 28.59 14.17 28.59 14.17 28.59 16.32 26.44 16.32 26.44 16.32 26.44 5.56 15.68 5.56 15.68 5.56 15.68 3.41 17.83 3.41 17.83ZM 29 3C 29 3 18.24 3 18.24 3 18.24 3 7.68 13.56 7.68 13.56 7.68 13.56 18.44 24.32 18.44 24.32 18.44 24.32 29 13.76 29 13.76 29 13.76 29 3 29 3ZM 23 7C 24.1 7 25 7.9 25 9 25 10.1 24.1 11 23 11 21.9 11 21 10.1 21 9 21 7.9 21.9 7 23 7Z" fill="rgb(63,178,53)"/></svg>
