<?xml version="1.0" encoding="utf-8"?>
<svg xmlns="http://www.w3.org/2000/svg"
	xmlns:xlink="http://www.w3.org/1999/xlink"
	width="22px" height="22px" viewBox="0 0 22 22">
<path fillRule="evenodd" d="M 21.6 10.72C 21.6 10.72 10.71 21.6 10.71 21.6 10.45 21.87 10.09 22 9.74 22 9.39 22 9.04 21.87 8.77 21.6 8.77 21.6 0.4 13.23 0.4 13.23 0.14 12.97-0 12.62-0 12.26-0 11.89 0.14 11.54 0.4 11.29 0.4 11.29 11.28 0.4 11.28 0.4 11.54 0.14 11.89 0 12.26 0 12.26 0 20.63-0 20.63-0 20.99-0 21.34 0.14 21.6 0.4 21.86 0.66 22 1.01 22 1.37 22 1.37 22 9.74 22 9.74 22 10.11 21.86 10.46 21.6 10.72ZM 2.35 12.26C 2.35 12.26 9.74 19.65 9.74 19.65 9.74 19.65 11.22 18.18 11.22 18.18 11.22 18.18 3.82 10.78 3.82 10.78 3.82 10.78 2.35 12.26 2.35 12.26ZM 19.94 2.06C 19.94 2.06 12.54 2.06 12.54 2.06 12.54 2.06 5.28 9.32 5.28 9.32 5.28 9.32 12.68 16.72 12.68 16.72 12.68 16.72 19.94 9.46 19.94 9.46 19.94 9.46 19.94 2.06 19.94 2.06ZM 15.81 4.81C 16.57 4.81 17.19 5.43 17.19 6.19 17.19 6.95 16.57 7.56 15.81 7.56 15.05 7.56 14.44 6.95 14.44 6.19 14.44 5.43 15.05 4.81 15.81 4.81Z" fill="rgb(255,255,255)"/></svg>
